<svg width="1024" height="1024" viewBox="0 0 1024 1024" fill="none" xmlns="http://www.w3.org/2000/svg">
<path d="M894.4 664.467C852.021 656.401 814.349 687.797 787.672 712.424C760.991 737.052 619.311 885.454 619.311 885.454C619.311 885.454 564.982 930.081 527.57 888.785C548.144 868.526 560.094 853.195 560.094 853.195L787.672 627.371C787.672 627.371 822.2 588.66 866.149 628.985C866.149 628.985 837.509 543.498 751.378 541.883C706.063 539.033 666.822 574.142 666.822 574.142L439.243 799.967C439.243 799.967 252.266 1000.03 189.577 856.526C236.01 857.57 284.954 843.571 319.956 818.097C385.879 770.129 640.134 511.233 640.134 511.233C640.134 511.233 673.099 469.293 734.309 487.034C795.518 504.787 841.037 485.426 853.59 437.034C866.144 388.637 847.313 343.475 809.641 304.764C771.981 266.047 615.027 108.783 615.027 108.783C615.027 108.783 583.637 70.8677 627.581 37C627.581 37 538.125 64.4272 525.56 137.011C517.714 177.337 550.679 216.047 550.679 216.047L732.739 399.131C732.739 399.131 774.329 439.456 760.2 455.577C746.078 471.721 687.227 428.974 687.227 428.974C687.227 428.974 605.606 365.314 503.586 462.063C401.577 558.811 265.028 735.449 165.362 760.437C65.7744 785.426 -22.0611 698.471 125.031 515.664C119.114 526.967 116.034 539.539 116.056 552.298C116.056 595.022 149.755 629.651 191.327 629.651C232.899 629.651 266.598 595.022 266.598 552.298C266.598 537.351 262.404 523.448 255.263 511.622C267.397 519.822 281.706 524.205 296.35 524.21C337.917 524.21 371.621 489.574 371.621 446.85C371.621 404.126 337.923 369.496 296.35 369.496C254.778 369.496 221.08 404.126 221.08 446.856C221.069 461.197 224.989 475.267 232.414 487.537C220.28 479.337 205.972 474.954 191.327 474.949C162.709 474.949 137.828 491.364 125.093 515.528C118.342 522.517 -39.1416 688.22 83.7468 816.105C103.153 836.329 130.111 848.465 159.751 853.636C168.376 887.306 199.828 967.561 305.833 984.67C392.06 998.573 471.818 941.093 518.234 897.731C525.628 927.829 547.93 972.647 615.021 984.659C682.519 996.755 715.473 958.044 715.473 958.044L922.652 751.581C922.652 751.581 954.041 716.093 987 762.87C987 762.87 977.579 678.985 894.4 664.467Z" fill="#009EB4"/>
</svg>
