<svg width="1024" height="1024" viewBox="0 0 1024 1024" fill="none" xmlns="http://www.w3.org/2000/svg">
<path fill-rule="evenodd" clip-rule="evenodd" d="M523.312 614.568C631.437 709.909 719.552 759.203 808.872 759.203C911.624 759.203 987 676.123 987 581.066C987 485.71 910.13 402.947 808.872 402.947H773.253V540.046C815.53 540.192 849.856 574.907 849.856 616.691C849.856 658.941 815.516 692.887 773.557 693.327C718.97 693.9 649.581 641.14 567.156 570.734L523.312 614.568Z" fill="#0099B4"/>
<path fill-rule="evenodd" clip-rule="evenodd" d="M215.866 465.189C279.991 465.189 342.842 498.965 393.337 535.684L427.004 486.992C362.603 442.547 299.217 403.165 215.118 402.94C119.499 402.94 37 480.089 37 581.068C37 679.155 116.287 758.985 215.118 759.195C327.83 759.195 423.357 665.353 481.193 607.518C583.367 505.344 670.742 402.949 773.254 402.949V264C721.178 264 643.75 274.015 570.575 347.19C497.243 420.522 453.34 534.632 368.175 619.796C325.144 662.827 274.969 693.284 214.289 693.284C147.468 693.284 99.4291 644.323 99.4291 582.094C99.4291 534.681 135.208 465.189 215.866 465.189Z" fill="#0099B4"/>
</svg>
