<svg width="1024" height="1024" viewBox="0 0 1024 1024" fill="none" xmlns="http://www.w3.org/2000/svg">
<path fill-rule="evenodd" clip-rule="evenodd" d="M37.4111 485.036C37.4111 490.251 25.2457 637.925 133.272 745.952C194.885 807.566 283.009 836.706 354.84 836.706C542.663 836.706 657.581 722.465 659.096 719.663C652.697 720.66 584.19 756.961 486.915 756.961C472.106 756.961 340.641 759.991 236.8 656.15C168.486 587.836 132.576 492.737 132.576 393.381C132.576 244.811 213.156 143.922 214.709 137.902C209.536 140.385 37.4111 272.618 37.4111 485.036Z" fill="#4B256D"/>
<path fill-rule="evenodd" clip-rule="evenodd" d="M301.646 654.399C294.957 636.21 267.567 570.699 267.567 492.506C267.567 461.83 270.073 337.647 368.417 239.303C379.735 227.985 469.893 134.77 627.651 134.77C783.608 134.77 885.519 219.977 892.212 222.445C885.042 203.667 747.116 37 526.344 37C446.449 37 350.651 64.0968 283.69 131.059C182.389 232.36 190.631 364.057 190.631 373.772C190.631 532.612 298.094 652.728 301.646 654.399Z" fill="#4B256D"/>
<path fill-rule="evenodd" clip-rule="evenodd" d="M369.599 301.672C387.57 295.064 453.21 267.597 531.508 267.597C562.176 267.597 686.355 270.101 784.693 368.439C796.035 379.782 889.228 469.918 889.228 627.681C889.228 783.633 804.044 885.512 801.56 892.239C820.46 885.016 987 748.013 987 526.378C987 446.482 959.906 350.677 892.943 283.714C791.59 182.362 659.722 190.658 650.233 190.658C491.388 190.658 371.27 298.12 369.599 301.672Z" fill="#4B256D"/>
<path fill-rule="evenodd" clip-rule="evenodd" d="M724.871 370.062C731.548 388.223 758.95 453.769 758.95 531.962C758.95 562.694 756.422 686.838 658.1 785.162C646.784 796.477 556.629 889.69 398.876 889.69C242.92 889.69 141.02 804.501 134.311 802.023C141.504 820.886 278.519 987.463 500.172 987.463C580.139 987.463 675.918 960.321 742.827 893.412C844.127 792.112 835.887 660.45 835.887 650.671C835.887 491.925 728.46 371.749 724.871 370.062Z" fill="#4B256D"/>
<path d="M513.794 701.999C618.308 701.999 703.034 617.273 703.034 512.759C703.034 408.245 618.308 323.52 513.794 323.52C409.28 323.52 324.555 408.245 324.555 512.759C324.555 617.273 409.28 701.999 513.794 701.999Z" fill="#DE0072"/>
</svg>
