<svg width="1024" height="1024" viewBox="0 0 1024 1024" fill="none" xmlns="http://www.w3.org/2000/svg">
<path d="M413.255 235.181C333.48 285.779 277.99 396.538 277.99 524.662C277.99 700.475 382.402 843.496 510.703 843.496C639.004 843.496 743.416 700.475 743.416 524.662C743.416 396.538 687.97 285.823 608.196 235.181L679.067 149.633C680.169 148.311 680.037 146.327 678.759 145.137C658.132 126.229 633.538 111.112 603.656 98.9472C595.017 95.4213 585.63 92.3361 574.214 89.1627C518.636 74.0011 514.141 41.2538 514.009 39.8875C514.009 39.7994 513.965 39.7553 513.965 39.6672C513.92 39.5349 513.921 39.4027 513.876 39.2705C513.832 39.1823 513.788 39.0942 513.788 39.006C513.744 38.8738 513.7 38.7857 513.656 38.6975C513.612 38.6094 513.524 38.5212 513.48 38.4331C513.436 38.3449 513.392 38.2568 513.303 38.2127C513.215 38.1246 513.127 38.0364 513.039 37.9483C512.995 37.9042 512.951 37.816 512.863 37.772C512.73 37.6838 512.598 37.5957 512.466 37.5075C512.422 37.4634 512.378 37.4634 512.334 37.4194C511.761 37.1108 511.1 36.9345 510.395 37.0227C509.337 37.1549 508.411 37.772 507.926 38.6534C507.926 38.6534 507.926 38.6975 507.882 38.6975C507.794 38.8297 507.706 39.006 507.662 39.1823C507.662 39.2264 507.618 39.2705 507.618 39.3146C507.574 39.4468 507.53 39.6231 507.53 39.7553C507.53 39.7994 507.486 39.8875 507.486 39.9316C507.309 41.2979 502.814 74.0452 447.236 89.2509C435.777 92.3801 426.433 95.5094 417.794 99.0354C387.912 111.2 363.362 126.317 342.691 145.225C341.413 146.415 341.281 148.399 342.383 149.721L413.255 235.181Z" stroke="black" stroke-width="5"/>
<path d="M413.912 606.422C415.675 609.243 412.149 612.416 409.548 610.301C383.809 589.894 367.325 558.337 367.325 522.99C367.325 477.813 394.255 438.896 432.952 421.398C436.081 419.988 438.726 424.131 436.125 426.334C410.077 448.812 392.976 486.628 392.976 529.513C392.932 558.513 400.778 585.223 413.912 606.422ZM628.51 529.513C628.51 486.628 611.409 448.812 585.361 426.334C582.761 424.087 585.405 419.988 588.535 421.398C627.232 438.896 654.161 477.813 654.161 522.99C654.161 558.381 637.678 589.894 611.938 610.301C609.338 612.372 605.812 609.243 607.575 606.422C620.665 585.223 628.51 558.513 628.51 529.513ZM510.7 404.341C506.909 409.189 501.532 412.231 495.538 412.231C491.527 412.231 487.605 410.82 484.431 408.352C481.038 405.796 478.481 402.182 476.895 398.259C475.616 395.174 474.955 391.824 474.823 388.474C474.779 387.064 476.718 386.623 477.291 387.901C480.376 394.513 486.767 399.052 494.172 399.052C500.474 399.052 506.028 395.747 509.466 390.722C509.774 390.281 510.215 390.061 510.7 390.061C511.184 390.061 511.625 390.281 511.934 390.722C515.371 395.791 520.925 399.052 527.227 399.052C534.632 399.052 541.023 394.513 544.108 387.901C544.725 386.623 546.62 387.064 546.576 388.474C546.444 391.824 545.783 395.174 544.505 398.259C542.918 402.182 540.362 405.752 536.968 408.352C533.795 410.776 529.872 412.231 525.861 412.231C519.867 412.186 514.49 409.145 510.7 404.341ZM579.808 642.387C566.63 646.574 552.57 648.602 538.025 648.073C533.53 647.896 529.034 647.5 524.671 646.839C524.45 646.795 524.186 646.927 524.054 647.103L513.388 663.851C512.771 664.777 511.801 665.262 510.831 665.262C509.862 665.262 508.848 664.777 508.275 663.851L497.609 647.103C497.477 646.883 497.257 646.795 496.992 646.839C492.629 647.456 488.177 647.896 483.638 648.073C469.093 648.602 454.989 646.574 441.855 642.387C440.445 641.946 440.885 639.831 442.34 639.963C442.913 640.007 443.398 640.051 443.838 640.095C458.074 641.021 472.046 639.302 485.312 635.291C485.841 635.115 485.885 634.41 485.401 634.145C443.133 612.108 414.881 566.403 416.689 514.659C417.923 480.325 432.159 449.562 454.416 427.26C456.091 425.541 458.824 427.657 457.678 429.728C442.957 455.996 436.61 488.127 441.679 521.447C447.541 559.748 467.418 592.23 494.656 613.474C495.053 613.783 495.67 613.474 495.67 612.989L492.144 425.453C492.144 424.527 492.717 423.734 493.554 423.47C500.033 421.354 505.19 417.035 509.289 412.231C509.686 411.746 510.258 411.525 510.831 411.525C511.404 411.525 511.977 411.746 512.374 412.231C516.517 416.991 521.674 421.354 528.109 423.47C528.99 423.734 529.563 424.571 529.519 425.453L525.993 612.989C525.993 613.518 526.566 613.827 527.007 613.474C554.245 592.186 574.122 559.704 579.984 521.447C585.097 488.127 578.706 455.996 563.985 429.728C562.795 427.657 565.528 425.541 567.247 427.26C589.504 449.562 603.74 480.281 604.974 514.659C606.825 566.403 578.574 612.108 536.262 634.145C535.778 634.41 535.822 635.115 536.351 635.291C549.617 639.258 563.589 641.021 577.825 640.095C578.221 640.051 578.75 640.007 579.323 639.963C580.778 639.831 581.219 641.946 579.808 642.387Z" fill="#ED1C24"/>
<path d="M513.125 906.079H508.409C504.751 905.903 500.828 906.873 497.258 908.195C493.6 903.435 489.589 898.719 485.182 894.091C487.297 891.799 493.908 886.554 510.701 886.554C527.405 886.554 534.104 891.799 536.22 894.091C531.857 898.719 527.846 903.435 524.188 908.151C520.618 906.829 516.739 905.903 513.125 906.079ZM853.247 487.284C856.861 482.172 860.21 476.706 863.252 471.109C864.75 468.376 866.337 465.115 866.249 461.501C866.116 456.432 862.987 452.818 860.21 449.645C859.329 448.675 858.536 447.75 857.83 446.78C854.349 442.152 852.85 435.497 853.908 429.415C854.084 428.445 854.305 427.519 854.525 426.594C855.054 424.346 855.583 422.01 855.539 419.498C855.406 414.914 852.542 410.198 847.958 410.154C846.151 410.154 844.652 410.903 843.506 411.564C841.303 412.843 839.319 414.473 837.424 416.016C836.014 417.162 834.691 418.264 833.325 419.189C830.592 421.04 828.653 421.79 826.934 421.657C825.524 419.498 823.585 417.779 821.822 416.236C820.367 414.958 819.001 413.724 817.943 412.358C816.621 410.639 815.739 408.523 814.77 406.231C814.241 405.041 813.712 403.807 813.095 402.617C812.875 399.708 813.756 395.169 815.034 391.863C815.916 389.659 817.194 387.588 818.56 385.384C819.353 384.062 820.235 382.74 820.984 381.329C823.585 376.525 825.127 371.325 826.582 366.3C828.565 359.468 830.372 351.667 826.141 345.409C825.524 344.527 824.863 343.734 824.202 342.985C823.276 341.927 822.395 340.913 822.042 339.855C821.513 338.313 821.998 336.373 822.527 334.17C823.849 328.572 824.863 322.843 825.524 317.113C825.832 314.248 826.097 310.943 824.598 307.99C822.527 303.847 818.252 302.304 814.505 300.938C813.403 300.541 812.302 300.144 811.244 299.66C806.396 297.456 802.605 292.872 801.327 287.715C801.107 286.922 800.974 286.085 800.842 285.247C800.49 283.22 800.093 281.104 799.035 279.033C797.184 275.463 792.733 272.774 788.766 274.581C787.223 275.286 786.165 276.476 785.416 277.446C783.874 279.385 782.728 281.501 781.582 283.528C780.744 285.027 779.951 286.437 779.025 287.759C777.439 290.095 775.588 291.726 773.692 292.564C771.577 291.418 769.197 290.889 766.993 290.36C765.186 289.963 763.467 289.566 762.013 288.905C760.206 288.112 758.575 286.79 756.856 285.379C755.666 284.41 754.432 283.44 753.11 282.559C753.021 282.515 752.933 282.47 752.889 282.426C752.977 280.179 753.286 278.107 753.55 276.873C754.079 274.537 755.049 272.333 756.063 269.953C756.68 268.543 757.297 267.089 757.87 265.59C759.721 260.433 760.47 255.1 761.175 249.899C762.145 242.848 762.718 234.87 757.605 229.317C756.856 228.523 756.107 227.862 755.357 227.201C754.3 226.276 753.242 225.438 752.757 224.424C752.008 222.97 752.184 220.987 752.36 218.739C752.845 213.009 752.977 207.191 752.801 201.418C752.713 198.553 752.404 195.247 750.509 192.515C747.821 188.768 743.413 187.843 739.491 187.049C738.345 186.829 737.199 186.565 736.097 186.256C730.984 184.802 726.533 180.835 724.505 175.943C724.197 175.149 723.888 174.356 723.624 173.563C722.963 171.579 722.258 169.552 720.891 167.701C718.555 164.483 713.751 162.456 710.093 164.836C708.683 165.761 707.801 167.084 707.228 168.141C705.994 170.301 705.157 172.549 704.319 174.709C703.702 176.339 703.129 177.838 702.424 179.292C701.19 181.805 699.603 183.744 697.884 184.846C695.637 184.052 693.213 183.876 690.921 183.7C689.07 183.568 687.307 183.435 685.764 182.995C683.869 182.466 682.062 181.408 680.122 180.262C678.8 179.469 677.434 178.675 675.979 178.014C671.969 176.207 666.019 175.502 662.36 179.425C657.38 184.758 661.303 192.03 664.168 197.319C664.476 197.936 664.829 198.509 665.137 199.082C667.297 203.225 668.266 207.853 667.958 212.48C667.782 212.392 667.561 212.304 667.385 212.26C658.879 209.351 650.02 209.175 641.425 208.998C637.943 208.91 635.607 210.541 635.387 213.097C634.902 218.078 637.194 222.882 642.307 227.774C647.551 232.799 651.65 239.057 654.207 245.845C654.956 247.828 655.573 249.944 656.234 251.971C657.733 256.863 659.275 261.888 662.405 266.295C666.636 272.201 672.894 275.683 678.932 279.077C683.692 281.721 688.188 284.233 691.714 287.848C692.287 288.421 692.86 289.038 693.389 289.655C694.799 291.241 696.298 292.872 698.237 294.194C701.719 296.53 705.73 297.103 709.564 297.676C711.107 297.897 712.561 298.117 713.928 298.425C728.075 301.599 737.992 306.315 740.637 311.119C740.593 312.573 740.416 314.028 740.108 315.482C739.931 315.394 739.755 315.262 739.579 315.174C731.601 311.031 722.831 309.488 714.368 308.078C710.975 307.505 708.418 308.739 707.801 311.207C706.611 316.055 708.11 321.168 712.429 326.765C716.881 332.495 720.01 339.282 721.508 346.422C721.949 348.494 722.258 350.654 722.566 352.769C723.315 357.838 724.065 363.039 726.533 367.843C729.838 374.322 735.48 378.685 740.945 382.916C745.264 386.266 749.319 389.439 752.272 393.494C752.757 394.155 753.198 394.86 753.683 395.521C754.873 397.328 756.063 399.18 757.826 400.722C760.911 403.543 764.789 404.733 768.536 405.835C770.034 406.275 771.401 406.716 772.767 407.245C782.551 411.08 788.193 415.884 789.956 421.922C789.118 424.39 787.972 426.77 786.606 428.886C786.562 428.842 786.518 428.753 786.474 428.709C781.053 420.644 773.781 414.914 766.729 409.405C765.759 408.656 763.864 407.466 761.836 407.73C760.69 407.906 759.677 408.523 758.972 409.493C755.886 413.856 755.093 419.674 756.547 427.343C758.09 435.453 758.046 444.003 756.371 452.113C755.886 454.449 755.225 456.873 754.608 459.209C753.11 464.718 751.611 470.448 751.743 476.442C751.964 484.552 755.181 491.736 758.266 498.655C760.735 504.165 763.07 509.41 764.04 515.051C764.172 515.977 764.305 516.902 764.437 517.828C764.745 520.208 765.054 522.676 765.935 525.056C767.522 529.419 770.475 532.416 773.384 535.369C774.53 536.515 775.632 537.617 776.601 538.807C780.259 543.171 782.067 546.741 782.551 551.192C779.422 547.049 775.984 543.259 772.546 539.557C771.533 538.455 769.946 537.176 767.963 537.132C766.773 537.132 765.715 537.573 764.878 538.411C761.131 542.201 759.412 547.842 759.677 555.688C759.941 563.93 758.531 572.392 755.578 580.105C754.74 582.353 753.683 584.645 752.713 586.804C750.377 592.049 747.953 597.426 747.16 603.376C746.102 611.442 748.129 619.023 750.113 626.339C751.699 632.157 753.154 637.71 753.198 643.44C753.198 644.365 753.154 645.335 753.154 646.261C753.066 648.641 752.977 651.153 753.462 653.621C754.344 658.161 756.812 661.643 759.192 664.992C760.162 666.314 761.043 667.593 761.836 668.915C765.847 675.614 766.861 686.545 764.437 695.448C764.393 695.448 764.349 695.492 764.349 695.492C764.349 695.404 764.349 695.36 764.349 695.271C764.084 685.575 760.955 676.848 757.958 668.43C757.561 667.284 756.592 665.257 754.696 664.419C753.639 663.934 752.449 663.934 751.347 664.375C746.41 666.403 742.62 670.898 739.799 678.215C736.802 685.884 732.174 693.112 726.401 699.062C724.726 700.781 722.919 702.5 721.112 704.13C716.925 708.009 712.561 712.02 709.476 717.22C705.333 724.184 704.231 731.985 703.173 739.478C702.336 745.472 701.543 751.114 699.295 756.403C698.942 757.284 698.546 758.121 698.149 758.959C697.135 761.119 696.077 763.366 695.548 765.879C694.579 770.418 695.46 774.561 696.342 778.572C696.694 780.159 697.003 781.657 697.223 783.2C698.325 791.221 692.331 803.077 685.808 810.702H685.764C685.808 810.614 685.808 810.57 685.852 810.482C688.805 801.226 688.717 791.971 688.673 783.024C688.673 781.834 688.408 779.586 686.91 778.175C686.072 777.382 684.971 776.985 683.781 777.029C678.448 777.294 673.379 780.335 668.311 786.241C662.933 792.499 656.19 797.788 648.786 801.491C646.626 802.548 644.334 803.562 642.13 804.532C636.885 806.824 631.464 809.16 626.836 813.038C620.622 818.239 617.008 825.247 613.526 831.99C610.749 837.367 608.105 842.436 604.27 846.711C603.653 847.416 602.992 848.077 602.331 848.738C600.656 850.457 598.937 852.22 597.571 854.38C595.147 858.303 594.618 862.534 594.133 866.633C593.913 868.263 593.737 869.806 593.428 871.305C591.974 878.445 590.211 883.028 585.274 886.907V873.861C585.274 867.294 579.941 861.961 573.374 861.961H548.031C542.522 861.961 540.891 861.961 532.032 860.154C528.595 859.449 525.95 858.567 523.438 857.73C519.339 856.363 515.769 855.217 511.097 855.394C506.205 855.217 502.635 856.363 498.58 857.73C496.024 858.567 493.379 859.449 489.941 860.154C481.127 861.961 479.452 861.961 473.942 861.961H448.292C441.725 861.961 436.392 867.294 436.392 873.861V895.061C434.981 894.135 433.659 893.165 432.337 892.24C434.849 872.23 426.255 848.915 409.903 832.211C402.41 824.542 393.199 818.459 384.296 812.597C371.118 803.915 358.644 795.673 351.681 782.891C351.064 781.745 349.786 781.172 348.507 781.481C347.273 781.745 346.348 782.847 346.26 784.125C346.215 784.654 345.598 797.039 346.568 803.43C347.538 809.865 349.697 815.771 351.989 821.456C346.788 820.09 341.544 818.636 336.563 816.696C332.068 814.977 328.057 812.862 324.266 810.394C334.756 791.971 335.417 768.523 326.073 747.544C321.71 737.759 315.187 728.856 308.84 720.262C299.497 707.524 290.638 695.492 288.566 681.079C288.39 679.801 287.376 678.832 286.098 678.655C284.82 678.479 283.586 679.184 283.101 680.374C282.881 680.859 277.988 692.274 276.666 698.577C275.344 704.924 275.3 711.226 275.52 717.353C271.113 714.267 266.705 711.094 262.695 707.568C259.213 704.483 256.26 701.265 253.659 697.784C268.777 683.9 276.754 662.656 274.991 640.443C274.154 629.733 270.98 619.199 267.895 608.974C263.356 593.856 259.036 579.532 261.901 565.252C262.166 563.974 261.549 562.74 260.403 562.123C259.257 561.55 257.89 561.77 257.009 562.74C256.656 563.136 248.194 572.26 244.888 577.725C241.495 583.278 239.379 589.184 237.528 595.046C234.443 590.683 231.314 586.187 228.713 581.515C226.377 577.328 224.614 573.141 223.336 568.866C241.803 560.404 257.097 541.099 262.518 518.974C265.075 508.572 265.383 497.51 265.647 486.888C266.088 471.109 266.485 456.168 273.669 443.518C274.286 442.417 274.11 441.006 273.228 440.081C272.347 439.155 270.936 438.979 269.79 439.596C269.35 439.86 258.463 445.854 253.571 450.041C248.635 454.228 244.756 459.209 241.142 464.189C239.555 459.077 238.013 453.832 237.043 448.587C236.206 444.268 235.897 440.081 235.897 435.938C255.907 431.442 273.361 416.986 282.925 396.888C287.508 387.191 290.021 376.481 292.489 366.08C296.103 350.698 299.497 336.153 309.105 325.223C309.942 324.253 310.03 322.843 309.369 321.785C308.664 320.727 307.342 320.242 306.108 320.595C305.623 320.771 293.767 324.429 288.125 327.559C282.44 330.688 277.636 334.743 273.096 338.886C272.567 333.553 272.126 328.088 272.215 322.799C272.303 317.906 272.876 313.279 273.933 308.827C276.446 309.136 279.002 309.312 281.558 309.312C297.778 309.312 314.129 302.833 327.087 290.933C334.536 284.101 340.574 275.551 346.348 267.353C354.942 255.188 363.008 243.685 375.261 237.515C376.406 236.942 377.024 235.663 376.803 234.385C376.539 233.107 375.525 232.182 374.247 232.093C373.762 232.049 362.038 231.08 356 231.785C350.006 232.49 344.453 234.297 339.075 236.281C340.486 231.52 341.984 226.716 343.88 222.221C346.348 216.359 349.477 211.246 353.356 206.663C353.708 206.266 354.105 205.781 354.546 205.252C356.793 202.52 361.024 197.407 363.977 195.82C365.344 195.115 365.961 193.528 365.476 192.074C364.991 190.619 363.537 189.738 362.038 190.002C345.29 192.735 328.586 199.17 314.262 208.073C317.038 196.349 316.333 185.463 312.058 177.309C310.647 174.62 307.077 170.169 306.681 169.684C305.976 168.803 304.786 168.406 303.684 168.67C302.582 168.935 301.744 169.86 301.524 170.962C299.276 183.303 293.194 195.027 284.335 203.93C281.338 206.927 277.988 209.748 274.727 212.436C271.377 215.213 267.895 218.078 264.722 221.295C249.164 236.942 240.657 272.289 253.307 302.921C247.533 308.563 242.244 314.689 237.616 321.08C235.765 308.298 230.741 297.764 223.248 291.374C220.824 289.302 215.579 286.349 214.962 286.041C213.948 285.468 212.714 285.556 211.833 286.217C210.907 286.878 210.466 288.024 210.687 289.17C213.375 302.216 212.053 316.187 206.896 328.484C205.177 332.627 202.93 336.726 200.814 340.649C198.61 344.704 196.363 348.891 194.511 353.298C183.625 379.258 191.47 414.517 212.758 435.805C209.012 441.623 205.706 447.705 202.886 453.92C198.522 441.799 191.426 432.456 182.832 427.74C180.055 426.197 174.325 424.39 173.664 424.17C172.606 423.817 171.372 424.17 170.623 425.007C169.874 425.845 169.653 427.079 170.094 428.136C175.339 440.389 176.838 454.317 174.281 467.407C173.4 471.814 172.078 476.266 170.755 480.585C169.433 484.992 168.023 489.576 167.141 494.248C161.764 521.53 177.675 556.701 202.753 573.141C200.417 581.163 198.831 589.361 197.949 597.47C189.972 587.333 180.364 580.678 170.711 578.915C167.582 578.342 161.544 578.386 160.883 578.386C159.737 578.386 158.723 579.091 158.238 580.105C157.797 581.163 157.974 582.353 158.723 583.234C167.582 593.195 173.356 605.977 175.031 619.199C175.603 623.65 175.736 628.322 175.824 632.818C175.956 637.446 176.088 642.206 176.661 646.922C180.011 673.763 206.235 701.618 235.457 709.728C235.985 717.617 237.219 725.374 239.027 732.911C228.14 726.035 216.813 722.994 207.117 724.537C203.943 725.022 198.302 727.093 197.685 727.358C196.627 727.754 195.878 728.724 195.79 729.87C195.701 731.016 196.274 732.073 197.288 732.646C208.968 739.081 218.708 749.174 224.702 761.074C226.73 765.085 228.405 769.449 230.035 773.636C231.71 777.955 233.385 782.406 235.545 786.638C247.445 810.261 276.225 826.613 304.521 826.613C306.637 826.613 308.796 826.525 310.912 826.305C314.306 834.194 318.405 841.731 323.076 848.694C310.471 846.006 298.791 847.108 290.241 851.868C287.464 853.41 282.881 857.333 282.352 857.774C281.47 858.523 281.118 859.713 281.426 860.771C281.735 861.873 282.66 862.666 283.806 862.842C296.984 864.826 309.634 870.952 319.374 880.031C322.68 883.116 325.721 886.598 328.718 889.948C331.759 893.43 334.932 897 338.414 900.261C352.43 913.352 368.693 924.767 404.35 924.767C420.878 924.767 441.637 922.299 468.258 916.393C473.106 919.081 477.337 922.431 479.761 926.662L479.849 926.618C480.069 927.411 480.422 928.072 480.863 928.601L482.449 930.673C474.692 934.86 459.487 939.311 432.381 935.08C422.773 933.538 419.379 936.887 418.189 939.047C416.426 942.264 417.263 946.407 420.437 950.947C407.259 956.06 385.442 958.924 352.518 947.641C351.196 947.201 349.786 947.862 349.257 949.14C348.728 950.418 349.301 951.873 350.535 952.49L384.296 968.621L374.82 979.331C374.203 980.036 374.026 981.006 374.291 981.887C374.599 982.769 375.349 983.43 376.23 983.606C377.376 983.826 392.802 987 410.432 987C425.153 987 441.46 984.796 452.259 976.907C454.021 975.629 454.903 973.469 454.594 971.309C454.286 969.062 452.743 967.21 450.628 966.461C449.129 965.932 447.675 965.315 446.264 964.654C447.543 964.698 448.821 964.742 450.055 964.742C475.882 964.742 488.84 954.605 495.055 946.628C497.787 948.787 501.842 949.581 505.897 948.479L510.745 947.157L515.593 948.479C516.828 948.831 518.062 948.964 519.296 948.964C522.028 948.964 524.541 948.126 526.436 946.628C532.65 954.605 545.608 964.742 571.303 964.742C572.582 964.742 573.86 964.698 575.182 964.654C573.772 965.271 572.361 965.888 570.819 966.461C568.703 967.21 567.16 969.062 566.852 971.309C566.543 973.469 567.425 975.629 569.188 976.907C579.986 984.796 596.294 987 611.015 987C628.644 987 644.07 983.871 645.216 983.606C646.142 983.43 646.847 982.769 647.156 981.887C647.464 981.006 647.244 980.036 646.627 979.331L637.151 968.621L670.912 952.49C672.146 951.873 672.719 950.418 672.19 949.14C671.661 947.862 670.206 947.201 668.928 947.641C636.005 958.924 614.188 956.06 601.01 950.947C604.227 946.407 605.02 942.264 603.257 939.047C602.067 936.887 598.674 933.538 589.065 935.08C561.916 939.311 546.71 934.86 538.953 930.673L540.54 928.601C540.936 928.072 541.289 927.411 541.553 926.618L541.641 926.662C543.889 922.739 547.636 919.566 552.043 917.01C558.125 920.051 564.648 921.197 570.907 921.197C583.115 921.197 594.443 916.966 600.084 914.409C601.494 913.792 602.729 912.911 603.963 912.029C606.827 909.958 614.012 909.297 618.066 909.605C620.623 909.781 623.091 910.443 625.691 911.148C627.234 911.544 628.865 911.985 630.539 912.338C636.225 913.484 642.043 913.396 647.728 913.352C655.353 913.263 663.948 912.69 669.766 906.696C670.603 905.859 671.264 904.933 671.969 904.052C672.983 902.774 673.909 901.54 675.055 900.79C676.729 899.733 678.977 899.6 681.445 899.424C687.704 899.027 694.051 898.322 700.309 897.22C703.394 896.691 706.92 895.898 709.697 893.606C713.62 890.345 714.457 885.673 715.206 881.53C715.427 880.252 715.647 879.018 715.956 877.872C717.41 872.274 721.685 866.941 727.106 863.988C727.944 863.547 728.825 863.107 729.707 862.71C731.778 861.74 733.938 860.727 735.877 859.052C739.359 856.099 741.298 850.898 738.478 847.328C737.376 845.918 735.833 845.213 734.599 844.728C732.219 843.802 729.707 843.273 727.327 842.744C725.564 842.348 723.889 841.995 722.302 841.51C720.628 840.981 717.983 839.879 716.396 837.984C717.19 835.56 717.322 833.004 717.454 830.624C717.542 828.685 717.63 826.833 718.071 825.159C718.6 823.087 719.702 821.016 720.892 818.856C721.112 818.459 721.333 818.063 721.553 817.622C723.536 815.11 728.914 812.245 733.145 811.143C735.613 810.482 738.169 810.306 740.858 810.085C742.444 809.953 744.119 809.821 745.794 809.6C751.524 808.807 757.033 806.824 762.366 804.884C769.55 802.284 777.484 798.89 780.921 791.309C781.406 790.208 781.759 789.15 782.111 788.092C782.64 786.549 783.125 785.051 783.962 783.993C785.197 782.451 787.268 781.569 789.56 780.599C795.334 778.175 801.107 775.355 806.661 772.269C809.393 770.727 812.479 768.876 814.33 765.746C816.93 761.383 816.181 756.667 815.52 752.524C815.299 751.246 815.123 750.012 815.035 748.822C814.55 743.048 816.842 736.613 820.985 732.074C821.646 731.368 822.307 730.707 823.012 730.002C824.643 728.371 826.362 726.696 827.64 724.537C829.976 720.614 830.064 715.061 826.23 712.593C824.731 711.623 823.012 711.447 821.734 711.403C819.178 711.314 816.666 711.623 814.198 711.931C812.39 712.152 810.716 712.372 809.041 712.416C807.234 712.46 804.413 712.328 802.297 711.05C802.253 708.494 801.548 706.026 800.843 703.778C800.314 701.927 799.785 700.12 799.609 698.445C799.433 696.329 799.785 693.993 800.182 691.569C800.446 689.894 800.711 688.175 800.843 686.457C800.887 686.06 800.843 685.663 800.843 685.266L800.887 685.311C802.694 683.151 804.633 681.388 805.823 680.462C807.851 678.876 810.099 677.73 812.479 676.452C813.889 675.702 815.388 674.953 816.842 674.072C821.778 671.119 826.053 667.108 830.196 663.229C835.75 658.028 841.744 651.77 841.964 643.44C842.008 642.25 841.92 641.104 841.788 640.002C841.656 638.371 841.524 636.829 841.876 635.551C842.405 633.655 843.948 632.025 845.711 630.262C850.074 625.766 854.261 620.918 858.14 615.893C860.035 613.425 862.15 610.472 862.635 606.902C863.34 601.878 860.784 597.823 858.536 594.253C857.831 593.151 857.17 592.093 856.641 591.035C853.953 585.879 853.512 579.091 855.539 573.273C855.848 572.348 856.2 571.466 856.597 570.585C857.479 568.469 858.404 566.222 858.713 563.753C859.286 559.214 857.214 554.101 852.719 553.308C850.956 552.999 849.325 553.528 848.091 553.969C845.711 554.894 843.507 556.173 841.347 557.407C839.761 558.332 838.306 559.17 836.764 559.875C834.251 561.021 831.915 561.506 830.02 561.241C828.962 558.949 827.376 556.966 825.877 555.159C824.643 553.66 823.453 552.25 822.66 550.707C821.734 548.988 821.161 546.917 820.632 544.713C821.073 544.14 821.514 543.611 821.911 543.215C823.629 541.364 825.701 539.821 827.861 538.234C829.139 537.265 830.505 536.295 831.783 535.193C836.191 531.491 839.805 526.863 843.287 522.367C847.959 516.373 852.851 509.233 851.749 500.991C851.573 499.801 851.308 498.7 851.044 497.642C850.647 496.055 850.294 494.557 850.427 493.19C850.514 491.163 851.837 489.312 853.247 487.284Z" fill="black"/>
<path d="M435.468 964.571C439.214 967.039 443.71 969.463 448.867 971.314C449.307 971.49 449.395 971.843 449.44 971.975C449.484 972.372 449.263 972.548 449.175 972.592C431.193 985.727 394.567 981.275 381.785 979.204L390.468 969.375C390.997 968.758 391.217 967.92 391.085 967.127C390.909 966.334 390.38 965.629 389.631 965.276L376.717 959.106C398.313 962.543 413.695 959.326 423.876 955.051C425.683 956.946 429.474 960.56 434.807 964.13" fill="#FFF685"/>
<path d="M445.38 959.323H437.094C430.571 954.783 426.737 950.376 426.649 950.288C422.903 946.101 422.021 942.839 422.77 941.473C423.431 940.239 426.076 939.269 431.541 940.151C459.881 944.558 476.365 940.062 485.664 934.773L491.57 942.442C486.061 950.067 473.368 960.645 445.38 959.323Z" fill="#FFF685"/>
<path d="M586.552 964.169C591.929 960.555 595.675 956.941 597.482 955.09C607.663 959.409 623.045 962.582 644.642 959.145L631.728 965.315C630.979 965.668 630.45 966.329 630.273 967.166C630.097 967.96 630.317 968.797 630.89 969.414L639.573 979.243C626.791 981.314 590.166 985.766 572.183 972.631C572.095 972.587 571.875 972.411 571.919 972.014C571.963 971.882 572.051 971.486 572.492 971.353C577.649 969.546 582.144 967.078 585.89 964.61" fill="#FFF685"/>
<path d="M589.944 940.151C595.41 939.269 598.054 940.239 598.715 941.473C599.464 942.839 598.583 946.101 594.793 950.332C594.748 950.42 590.914 954.783 584.391 959.323H575.973C548.118 960.601 535.424 950.067 529.915 942.442L535.821 934.773C545.077 940.107 561.56 944.602 589.944 940.151Z" fill="#FFF685"/>
<path d="M540.231 919.745C539.922 919.26 539.614 918.731 539.217 918.202C537.19 915.47 534.545 913.178 531.284 911.415C530.623 911.062 529.917 910.71 529.168 910.313C538.38 898.589 549.839 887.13 563.37 876.243C564.516 875.318 564.692 873.687 563.767 872.585C562.841 871.439 561.21 871.263 560.108 872.189C552.792 878.095 546.005 884.133 539.878 890.347C536.661 886.998 528.595 881.356 510.745 881.356C492.895 881.356 484.829 886.998 481.612 890.347C475.486 884.133 468.742 878.095 461.382 872.189C460.236 871.263 458.605 871.483 457.724 872.585C456.798 873.731 457.018 875.362 458.12 876.243C471.651 887.13 483.11 898.545 492.322 910.313C491.573 910.666 490.868 911.062 490.206 911.415C486.945 913.178 484.256 915.47 482.273 918.202C481.876 918.731 481.568 919.26 481.259 919.745C472.665 910.137 456.534 905.421 446.969 903.349C443.928 902.688 441.725 899.955 441.725 896.826V873.952C441.725 870.249 444.722 867.252 448.424 867.252H473.767C479.364 867.252 481.436 867.252 490.824 865.313C494.57 864.564 497.479 863.594 500.035 862.713C503.781 861.478 506.734 860.465 510.921 860.641C514.932 860.465 517.841 861.478 521.631 862.713C524.188 863.55 527.097 864.52 530.843 865.313C540.187 867.252 542.302 867.252 547.9 867.252H573.243C576.945 867.252 579.942 870.249 579.942 873.952V896.826C579.942 899.955 577.738 902.688 574.697 903.349C564.956 905.421 548.825 910.137 540.231 919.745Z" fill="#FFF685"/>
<path d="M783.258 290.713C784.316 289.171 785.197 287.584 786.079 286.042C787.181 284.102 788.195 282.251 789.473 280.62C789.869 280.136 790.354 279.519 790.839 279.298C791.809 278.857 793.528 279.915 794.321 281.414C795.026 282.78 795.335 284.411 795.643 286.174C795.819 287.099 795.996 288.069 796.216 288.995C797.891 295.782 802.695 301.512 809.042 304.421C810.232 304.949 811.466 305.434 812.656 305.831C815.785 306.977 818.738 308.079 819.884 310.327C820.721 312.001 820.545 314.293 820.281 316.497C819.664 322.006 818.65 327.56 817.372 333.069C816.755 335.625 816.05 338.578 817.063 341.531C817.724 343.559 819.047 345.101 820.237 346.423C820.81 347.085 821.338 347.702 821.779 348.319C824.732 352.726 823.19 359.117 821.559 364.802C820.148 369.563 818.738 374.499 816.358 378.818C815.653 380.096 814.86 381.33 814.11 382.609C812.656 384.9 811.201 387.28 810.144 389.925C809.615 391.291 808.865 393.715 808.337 396.404C807.499 395.743 806.574 395.214 805.648 394.817C807.94 384.151 807.587 372.604 807.279 363.216C807.147 359.337 806.97 354.974 805.075 351.007C804.546 349.949 803.929 348.98 803.356 348.054C802.739 347.041 802.122 346.071 801.725 345.101C800.491 342.192 800.844 338.71 801.197 335.008C801.637 330.292 802.078 325.356 799.389 320.993C797.009 317.07 792.999 315.131 789.12 313.235C785.594 311.517 782.244 309.842 780.878 306.933C780.349 305.787 780.085 304.332 779.864 302.834C779.512 300.762 779.071 298.426 777.793 296.355C780.217 294.724 782.068 292.52 783.258 290.713Z" fill="#FAA627"/>
<path d="M706.964 181.628C707.757 179.953 708.418 178.278 709.035 176.603C709.829 174.532 710.578 172.548 711.592 170.741C711.9 170.213 712.297 169.507 712.782 169.243C713.707 168.67 715.514 169.419 716.528 170.786C717.409 172.02 717.938 173.606 718.511 175.281C718.82 176.207 719.128 177.088 719.481 177.97C722.17 184.405 727.767 189.385 734.466 191.324C735.7 191.677 737.023 191.941 738.257 192.206C741.518 192.867 744.603 193.484 746.058 195.599C747.16 197.142 747.292 199.434 747.38 201.638C747.6 207.191 747.424 212.833 746.983 218.474C746.763 221.119 746.499 224.071 747.953 226.848C748.923 228.743 750.465 230.066 751.832 231.212C752.493 231.785 753.11 232.313 753.639 232.886C757.209 236.765 756.68 243.376 755.842 249.238C755.181 254.13 754.476 259.243 752.801 263.871C752.316 265.237 751.699 266.603 751.126 267.926C750.069 270.394 748.923 272.994 748.306 275.771C748.041 276.917 747.777 278.547 747.645 280.399C746.675 280.178 745.705 280.09 744.692 280.09C745.176 269.556 743.149 258.67 741.474 249.767C740.769 245.976 739.976 241.657 737.463 238.043C736.802 237.073 736.053 236.192 735.304 235.355C734.51 234.473 733.761 233.592 733.232 232.71C731.601 230.022 731.381 226.54 731.205 222.837C730.94 218.077 730.676 213.185 727.326 209.218C724.373 205.692 720.142 204.37 716.043 203.048C712.297 201.858 708.727 200.756 706.964 198.024C706.259 196.966 705.818 195.555 705.333 194.101C704.672 192.118 703.923 189.87 702.292 187.975C704.54 186.035 706.038 183.567 706.964 181.628Z" fill="#FAA627"/>
<path d="M714.942 293.361C713.355 293.008 711.724 292.788 710.182 292.523C706.744 292.038 703.526 291.553 701.014 289.879C699.604 288.953 698.414 287.587 697.136 286.176C696.519 285.515 695.902 284.81 695.285 284.193C691.23 280.094 686.205 277.273 681.313 274.541C675.539 271.323 670.03 268.238 666.504 263.302C663.859 259.644 662.537 255.192 661.083 250.52C660.422 248.405 659.761 246.201 658.967 244.085C656.146 236.549 651.563 229.629 645.745 224.076C642.131 220.638 640.368 217.42 640.412 214.335C640.588 214.291 640.853 214.291 641.161 214.291C649.359 214.467 657.821 214.6 665.534 217.288C673.732 220.109 679.859 225.706 681.93 232.273C682.371 233.596 682.635 235.05 682.944 236.593C683.781 240.736 684.751 245.408 688.541 248.361C690.348 249.771 692.42 250.476 694.271 251.093C695.946 251.666 697.532 252.195 698.634 253.121C700.485 254.707 701.102 257.352 701.763 260.393C702.381 263.081 702.998 265.858 704.584 268.326C707.052 272.161 711.107 274.144 714.677 275.907C715.647 276.392 716.617 276.833 717.498 277.361C728.517 283.356 734.907 289.438 737.023 295.917C737.464 297.283 737.904 298.605 738.345 299.839C738.566 300.501 738.83 301.118 739.006 301.735C739.095 302.043 739.183 302.352 739.271 302.66C732.968 298.209 723.228 295.212 714.942 293.361Z" fill="#FAA627"/>
<path d="M774.485 402.397C772.943 401.824 771.4 401.339 769.902 400.855C766.596 399.841 763.467 398.915 761.219 396.844C759.985 395.698 758.971 394.199 757.913 392.613C757.429 391.863 756.9 391.114 756.371 390.365C752.977 385.693 748.437 382.167 744.03 378.729C738.785 374.674 733.849 370.796 731.072 365.419C729.001 361.408 728.339 356.824 727.634 351.976C727.326 349.772 726.973 347.525 726.488 345.277C724.813 337.431 721.332 329.895 716.439 323.548C713.398 319.581 712.12 316.188 712.605 313.146C712.913 313.146 713.046 313.146 713.354 313.235C721.42 314.601 729.794 316.055 737.022 319.846C744.691 323.857 749.936 330.336 750.994 337.123C751.214 338.489 751.302 339.988 751.39 341.574C751.61 345.762 751.831 350.566 755.18 354.048C756.723 355.722 758.706 356.736 760.425 357.618C762.012 358.411 763.466 359.204 764.436 360.306C766.023 362.157 766.243 364.846 766.463 367.975C766.684 370.708 766.904 373.528 768.094 376.217C769.945 380.36 773.692 382.96 776.953 385.208C777.835 385.825 778.716 386.442 779.554 387.059C787.178 392.833 791.41 400.899 791.85 410.375C791.806 411.036 791.718 411.697 791.674 412.314C791.63 412.887 791.586 413.416 791.542 413.945C787.972 409.273 782.419 405.482 774.485 402.397Z" fill="#FAA627"/>
<path d="M780.658 535.282C779.512 533.96 778.322 532.726 777.132 531.536C774.576 528.935 772.107 526.467 770.961 523.25C770.3 521.443 770.036 519.371 769.771 517.212C769.639 516.198 769.507 515.184 769.375 514.215C768.317 507.868 765.717 502.05 763.204 496.453C760.207 489.709 757.342 483.362 757.166 476.399C757.034 471.198 758.4 466.129 759.855 460.752C760.516 458.328 761.177 455.86 761.706 453.348C763.557 444.533 763.601 435.189 761.926 426.374C760.868 420.821 761.177 416.634 762.852 413.637C762.94 413.681 763.028 413.769 763.16 413.857C769.86 419.102 776.779 424.567 781.716 431.884C787.005 439.773 788.988 449.028 786.96 456.697C786.564 458.24 785.991 459.827 785.374 461.502C783.743 466.085 782.024 470.801 783.479 475.826C784.184 478.206 785.506 480.189 786.652 481.952C787.71 483.539 788.767 485.081 789.164 486.712C789.869 489.489 788.812 492.618 787.71 495.88C786.74 498.744 785.726 501.741 785.682 505.003C785.594 510.027 787.71 514.214 789.781 518.269C790.31 519.327 790.839 520.385 791.324 521.443C795.29 530.081 798.552 539.337 796.04 548.769C795.908 549.298 795.731 549.827 795.555 550.311C795.467 550.62 795.379 550.884 795.29 551.193C793.88 555.248 791.632 559.038 788.856 562.123C788.812 562.035 788.812 561.991 788.767 561.903C788.415 561.11 787.974 560.316 787.577 559.567C788.943 549.386 787.093 542.951 780.658 535.282Z" fill="#FAA627"/>
<path d="M766.331 666.137C765.45 664.638 764.436 663.228 763.466 661.861C761.351 658.864 759.323 656.044 758.706 652.694C758.354 650.799 758.398 648.727 758.486 646.568C758.53 645.554 758.53 644.54 758.53 643.527C758.486 637.092 756.855 630.965 755.269 625.015C753.373 617.919 751.522 611.176 752.492 604.212C753.197 599.055 755.313 594.251 757.604 589.183C758.618 586.891 759.676 584.555 760.602 582.175C763.819 573.757 765.362 564.545 765.097 555.554C764.921 549.868 765.89 545.814 768.05 543.125C768.138 543.213 768.226 543.301 768.315 543.389C774.088 549.648 780.082 556.083 783.785 564.104C787.751 572.743 788.236 582.175 785.063 589.447C784.402 590.902 783.608 592.4 782.771 593.943C780.435 598.218 777.967 602.581 778.628 607.782C778.936 610.25 779.95 612.41 780.832 614.305C781.625 616.068 782.418 617.699 782.551 619.374C782.771 622.239 781.272 625.147 779.642 628.189C778.231 630.877 776.777 633.654 776.204 636.871C775.322 641.808 776.777 646.303 778.187 650.622C778.54 651.768 778.892 652.87 779.245 653.972C782.286 664.814 781.493 676.053 777.262 684.516C776.865 685.045 776.468 685.529 776.116 686.014C774.573 687.998 772.81 689.805 770.827 691.391C771.796 682.444 770.298 672.748 766.331 666.137Z" fill="#FAA627"/>
<path d="M702.468 782.494C702.248 780.775 701.851 779.101 701.498 777.47C700.705 773.9 699.956 770.506 700.705 767.156C701.102 765.261 701.983 763.41 702.909 761.427C703.349 760.501 703.79 759.576 704.143 758.65C706.655 752.7 707.536 746.441 708.374 740.359C709.388 733.043 710.401 726.167 713.971 720.129C716.616 715.633 720.494 712.063 724.593 708.317C726.444 706.642 728.295 704.879 730.103 703.028C736.361 696.549 741.386 688.704 744.647 680.33C746.719 675.041 749.187 671.691 752.228 670.061C752.272 670.149 752.316 670.281 752.36 670.413C755.225 678.435 758.178 686.721 758.442 695.536C758.707 705.012 755.445 713.915 749.672 719.336C748.482 720.438 747.203 721.451 745.793 722.553C741.959 725.55 737.992 728.635 736.537 733.66C735.832 736.04 735.92 738.42 735.964 740.536C736.009 742.475 736.097 744.282 735.568 745.869C734.642 748.601 732.13 750.673 729.441 752.832C727.061 754.772 724.637 756.755 722.874 759.443C720.142 763.631 719.701 768.347 719.26 772.842C719.172 774.032 719.04 775.178 718.908 776.324C717.497 787.122 712.12 796.554 703.746 803.077C703.041 803.518 702.38 804.003 701.719 804.443C701.057 804.884 700.44 805.325 699.823 805.722C698.016 806.912 696.077 807.837 694.094 808.63C699.383 800.653 703.57 790.516 702.468 782.494Z" fill="#FAA627"/>
<path d="M598.628 872.451C598.981 870.732 599.201 869.013 599.378 867.383C599.818 863.724 600.259 860.287 602.022 857.378C603.036 855.747 604.49 854.248 605.989 852.706C606.694 852.001 607.399 851.251 608.104 850.502C612.424 845.698 615.333 840.056 618.153 834.635C621.547 828.112 624.72 821.898 630.097 817.402C634.108 814.053 638.912 811.981 644.025 809.733C646.317 808.764 648.653 807.706 650.945 806.56C659.01 802.505 666.327 796.775 672.188 789.944C675.891 785.625 679.329 783.289 682.766 782.76C682.766 782.892 682.766 782.98 682.766 783.156C682.81 791.663 682.899 800.478 680.21 808.896C677.345 817.931 671.307 825.247 664.079 828.465C662.624 829.126 661.038 829.655 659.363 830.228C654.735 831.77 649.975 833.401 646.934 837.676C645.479 839.704 644.774 841.996 644.157 843.979C643.584 845.83 643.011 847.549 641.998 848.915C640.235 851.207 637.149 852.309 633.888 853.499C631.023 854.513 628.07 855.615 625.47 857.554C621.459 860.595 619.52 864.87 617.624 869.013C617.14 870.071 616.655 871.173 616.126 872.187C612.688 878.93 601.317 885.409 590.166 889.949C595.146 885.277 597.129 879.812 598.628 872.451Z" fill="#FAA627"/>
<path d="M381.166 817.405C389.804 823.135 398.751 829.041 405.847 836.269C419.819 850.549 427.885 870.647 427.003 888.012C415.456 878.008 408.977 867.033 403.115 857.072C396.636 846.142 391.083 836.754 380.637 831.157C373.761 827.498 366.357 825.251 359.085 823.267L359.04 823.179C356.132 816.259 353.399 809.736 352.341 802.552C351.989 800.172 351.9 796.646 351.9 793.385C359.657 803.213 370.544 810.397 381.166 817.405Z" fill="#FAA627"/>
<path d="M282.352 699.726C282.837 697.346 283.983 694.04 285.085 690.955C289.007 702.899 296.764 713.433 304.257 723.658C310.383 732.032 316.73 740.671 320.873 749.883C329.291 768.746 328.939 789.726 319.992 806.342C319.375 802.287 318.846 798.188 318.317 793.825C315.76 773.374 313.16 752.263 298.968 736.352C293.767 730.534 287.641 725.862 281.471 721.499V721.455C281.162 713.962 280.854 706.866 282.352 699.726Z" fill="#FAA627"/>
<path d="M249.779 580.724C251.058 578.652 253.217 575.92 255.333 573.363C255.024 585.924 258.815 598.442 262.473 610.606C265.47 620.523 268.555 630.792 269.348 640.885C270.935 661.071 263.883 680.288 250.485 692.981C250.44 692.893 250.396 692.805 250.308 692.761C250.176 692.54 250 692.276 249.823 691.968C250.573 688.221 251.41 684.431 252.248 680.684C256.655 660.895 261.239 640.445 253.261 620.787C250.308 613.559 246.077 607.08 241.758 600.91V600.866C243.917 593.726 245.989 586.938 249.779 580.724Z" fill="#FAA627"/>
<path d="M257.319 454.321C259.17 452.734 262.079 450.839 264.856 449.076C260.625 460.932 260.272 473.978 259.92 486.672C259.655 497.029 259.347 507.739 256.923 517.568C251.986 537.71 238.367 555.251 221.839 563.185C221.751 562.7 221.619 562.127 221.487 561.466C221.443 561.245 221.399 561.025 221.354 560.761C223.382 557.235 225.497 553.709 227.745 549.962C238.367 532.421 249.342 514.306 247.975 493.371C247.447 485.57 245.463 478.121 243.259 470.893L243.304 470.849C247.667 464.811 251.766 459.081 257.319 454.321Z" fill="#FAA627"/>
<path d="M290.814 332.454C292.93 331.308 296.191 329.986 299.276 328.84C292.753 339.594 289.756 352.287 286.891 364.672C284.511 374.765 282.087 385.211 277.768 394.334C269.218 412.317 253.88 425.407 236.25 429.902C236.294 429.638 236.294 429.418 236.294 429.153C236.338 428.933 236.338 428.712 236.382 428.448C238.894 425.539 241.539 422.586 244.139 419.765C257.318 405.265 270.892 390.235 273.845 368.859C274.903 361.102 274.463 353.433 273.757 345.897L273.801 345.853C279.267 340.784 284.423 335.98 290.814 332.454Z" fill="#FAA627"/>
<path d="M356.573 237.383C358.732 237.119 361.817 237.119 364.77 237.207C355.427 244.303 348.419 254.264 341.587 263.916C335.946 271.894 330.128 280.18 323.12 286.614C309.633 298.999 292.092 304.993 275.432 303.098C275.564 302.702 275.696 302.217 275.872 301.732C275.916 301.6 275.961 301.423 276.005 301.291C279.046 299.749 282.131 298.25 285.172 296.796C301.744 288.862 318.845 280.664 328.894 263.167C332.552 256.776 334.888 249.9 336.915 243.113C343.571 240.557 349.785 238.177 356.573 237.383Z" fill="#FAA627"/>
<path d="M268.821 225.307C271.774 222.31 275.167 219.533 278.385 216.845C281.778 214.068 285.26 211.159 288.434 207.942C296.587 199.744 302.582 189.342 305.755 178.191C306.196 178.808 306.548 179.425 306.813 179.91C312.851 191.502 308.972 206.355 306.592 213.098C302.009 216.448 297.733 220.062 293.899 223.941C278.164 239.807 266.352 266.208 262.209 294.812C260.711 296.046 259.256 297.28 257.846 298.559C249.56 275.904 251.719 242.496 268.821 225.307Z" fill="#FAA627"/>
<path d="M199.8 355.505C201.519 351.362 203.723 347.307 205.883 343.384C208.086 339.285 210.378 335.098 212.229 330.691C216.989 319.275 218.752 306.582 217.386 294.285C218.179 294.814 218.929 295.343 219.413 295.784C230.035 304.819 232.063 321.082 232.415 328.663C229.242 333.776 226.465 339.065 224.217 344.354C214.301 367.933 212.494 398.521 219.325 426.244C218.179 427.742 217.077 429.241 215.976 430.784C197.244 411.259 190.104 378.688 199.8 355.505Z" fill="#FAA627"/>
<path d="M172.827 495.218C173.709 490.811 175.031 486.403 176.309 482.128C177.631 477.677 179.042 473.093 179.967 468.421C182.347 456.301 181.51 443.475 177.675 431.707C178.557 432.06 179.394 432.412 179.967 432.765C192.176 439.508 197.465 455.022 199.36 462.383C197.289 468.068 195.614 473.754 194.512 479.396C189.884 502.843 194.732 534.533 206.809 560.889C206.015 562.961 205.222 565.032 204.517 567.148C182.083 551.545 167.935 519.9 172.827 495.218Z" fill="#FAA627"/>
<path d="M182.391 646.088C181.818 641.637 181.73 637.009 181.597 632.557C181.465 627.93 181.333 623.126 180.76 618.366C179.217 606.113 174.413 594.213 167.053 584.252C168.022 584.296 168.904 584.384 169.565 584.516C183.272 587.073 193.145 600.163 197.244 606.554C197.067 612.592 197.288 618.542 197.993 624.227C201.166 649.57 215.05 677.117 235.104 697.964C235.06 699.815 235.104 701.622 235.148 703.473C208.747 695.275 185.432 670.241 182.391 646.088Z" fill="#FAA627"/>
<path d="M240.744 783.909C238.716 779.898 237.085 775.623 235.455 771.436C233.78 767.117 232.061 762.621 229.901 758.346C224.348 747.327 215.842 737.719 205.572 730.755C206.498 730.491 207.379 730.271 207.996 730.182C221.748 727.979 235.455 737.014 241.449 741.642C243.3 747.371 245.504 752.925 248.06 758.037C259.74 781.309 281.028 801.891 306.415 814.541C307.076 816.524 307.781 818.507 308.53 820.491C281.512 822.122 252.071 806.387 240.744 783.909Z" fill="#FAA627"/>
<path d="M342.425 895.946C339.164 892.905 336.078 889.423 333.125 886.073C330.084 882.591 326.911 878.977 323.385 875.716C314.35 867.297 303.023 861.215 290.99 858.306C291.784 857.733 292.489 857.248 293.062 856.896C305.226 850.064 321.181 853.767 328.453 856.058C332.156 860.818 336.122 865.226 340.354 869.149C362.92 890.216 400.956 904.364 442.033 906.92C443.179 907.625 444.413 908.154 445.78 908.463C449.526 909.256 454.33 910.49 459.222 912.297C384.251 927.679 361.112 913.355 342.425 895.946Z" fill="#FAA627"/>
<path d="M516.959 943.373L510.744 941.698L504.53 943.373C501.797 944.122 498.932 943.505 497.698 941.918L485.005 925.39C484.52 924.773 485.093 923.186 486.459 921.335C488.002 919.22 490.073 917.457 492.674 916.046C495.979 914.239 502.238 911.33 507.527 911.33C507.747 911.33 508.012 911.33 508.232 911.33H508.32H513.301C518.766 911.066 525.377 914.151 528.859 916.002C531.415 917.369 533.531 919.176 535.073 921.291C536.44 923.142 536.969 924.729 536.528 925.346L523.834 941.874C522.512 943.461 519.647 944.078 516.959 943.373Z" fill="#FFF685"/>
<path d="M720.584 846.757C722.436 847.33 724.287 847.727 726.138 848.124C728.43 848.609 730.589 849.093 732.573 849.887C732.881 850.019 733.763 850.372 734.071 850.724C734.556 851.341 733.895 853.369 732.264 854.779C730.898 855.925 729.135 856.762 727.328 857.644C726.358 858.085 725.388 858.569 724.463 859.054C717.631 862.756 712.475 869.235 710.579 876.42C710.227 877.786 709.962 879.152 709.742 880.474C709.081 884.133 708.508 887.306 706.128 889.289C704.409 890.744 701.853 891.273 699.34 891.713C693.302 892.771 687.132 893.476 680.961 893.873C678.141 894.049 674.923 894.226 672.014 896.077C670.031 897.311 668.709 899.074 667.519 900.616C666.902 901.41 666.329 902.159 665.712 902.776C661.437 907.228 654.12 907.668 647.641 907.756C642.264 907.801 636.711 907.889 631.642 906.831C630.144 906.522 628.689 906.126 627.147 905.729C624.414 904.98 621.593 904.231 618.508 904.01C615.247 903.746 605.638 903.922 600.702 907.448C599.688 908.197 598.763 908.814 597.837 909.255C592.24 911.767 574.301 918.731 558.743 913.662C564.781 911.106 571.04 909.475 575.668 908.462C578.709 907.801 581.265 905.993 582.94 903.525C584.835 903.79 586.907 903.922 589.199 903.922C607.093 903.922 635.477 896.826 647.289 893.08C651.343 891.757 655.971 890.303 659.806 887.218C660.819 886.38 661.745 885.499 662.627 884.617C663.596 883.648 664.522 882.722 665.535 882.017C668.533 879.857 672.367 879.108 676.466 878.271C681.579 877.257 686.823 876.243 690.922 872.321C694.58 868.795 695.903 864.211 697.181 859.803C698.371 855.66 699.517 851.782 702.514 849.402C703.704 848.476 705.246 847.771 706.833 847.022C709.125 845.964 711.505 844.862 713.444 842.879C715.251 844.51 717.675 845.832 720.584 846.757Z" fill="#FAA627"/>
<path d="M809.082 717.969C811.022 717.925 812.917 717.66 814.768 717.44C817.104 717.131 819.264 716.867 821.423 716.955C821.732 716.955 822.745 716.999 823.142 717.263C823.759 717.66 823.847 719.82 822.745 721.671C821.82 723.214 820.454 724.58 818.999 725.99C818.25 726.74 817.457 727.489 816.751 728.282C811.551 734.012 808.774 741.857 809.391 749.262C809.523 750.672 809.743 752.038 809.92 753.36C810.493 757.063 811.022 760.236 809.435 762.88C808.289 764.82 806.041 766.186 803.838 767.42C798.46 770.417 792.907 773.15 787.221 775.53C784.621 776.632 781.624 777.866 779.508 780.554C778.054 782.361 777.393 784.477 776.776 786.328C776.467 787.254 776.159 788.179 775.806 788.973C773.25 794.614 766.506 797.435 760.38 799.639C755.312 801.446 750.111 803.341 744.954 804.09C743.456 804.31 741.957 804.399 740.37 804.531C737.55 804.751 734.597 804.972 731.644 805.765C730.145 806.162 727.368 807.131 724.504 808.63C724.592 807.484 724.504 806.382 724.283 805.368C735.61 800.652 745.924 792.895 755.135 785.931C758.529 783.375 762.408 780.422 765.008 776.279C765.713 775.133 766.286 773.987 766.815 772.885C767.432 771.651 768.005 770.461 768.71 769.448C770.782 766.406 774.175 764.423 777.79 762.308C782.285 759.707 786.913 756.975 789.469 751.906C791.761 747.366 791.497 742.606 791.276 738.023C791.056 733.703 790.836 729.648 792.907 726.431C793.744 725.153 794.935 724.007 796.213 722.773C798.02 721.01 799.915 719.203 801.105 716.646C803.308 717.616 806.041 718.057 809.082 717.969Z" fill="#FAA627"/>
<path d="M827.463 579.049C827.728 577.551 828.389 576.008 829.05 574.377C830.063 572.041 831.033 569.617 831.121 566.84C834.118 566.796 836.983 565.827 839.011 564.901C840.774 564.108 842.404 563.138 844.035 562.169C846.062 560.979 847.958 559.877 849.941 559.127C850.25 558.995 851.175 558.643 851.616 558.731C852.365 558.863 853.291 560.802 853.026 562.962C852.806 564.725 852.057 566.532 851.307 568.383C850.911 569.353 850.514 570.366 850.161 571.38C847.605 578.696 848.178 586.982 851.616 593.55C852.277 594.784 853.026 595.974 853.731 597.12C855.715 600.293 857.434 603.026 857.037 606.067C856.729 608.314 855.186 610.43 853.643 612.413C849.897 617.306 845.842 621.978 841.523 626.385C839.54 628.412 837.292 630.748 836.41 634.054C835.793 636.302 836.014 638.505 836.146 640.445C836.234 641.414 836.322 642.384 836.278 643.265C836.102 649.436 831.033 654.681 826.317 659.132C822.395 662.79 818.296 666.581 813.888 669.269C812.61 670.063 811.244 670.724 809.833 671.473C807.321 672.795 804.721 674.118 802.297 676.013C801.371 676.718 800.401 677.599 799.388 678.569C798.947 677.599 798.374 676.762 797.713 676.013C805.206 667.55 811.2 657.105 816.136 648.51C818.252 644.808 820.676 640.577 821.425 635.729C821.645 634.406 821.689 633.128 821.733 631.894C821.822 630.528 821.866 629.206 822.13 628.016C822.835 624.402 825.215 621.228 827.683 617.923C830.769 613.736 833.986 609.416 834.339 603.775C834.647 598.706 832.576 594.431 830.548 590.288C828.609 586.498 826.802 582.839 827.463 579.049Z" fill="#FAA627"/>
<path d="M848.619 484.204C846.988 486.54 845.137 489.184 844.784 492.578C844.564 494.87 845.093 497.03 845.533 498.925C845.754 499.894 846.018 500.82 846.106 501.702C846.944 507.828 842.757 513.822 838.746 518.935C835.44 523.166 832.047 527.573 828.08 530.923C826.934 531.893 825.7 532.774 824.422 533.744C822.483 535.198 820.499 536.697 818.648 538.504C818.031 537.005 817.326 535.683 816.444 534.581C820.764 526.471 824.201 517.48 826.978 510.164C828.477 506.153 830.196 501.613 830.151 496.721C830.151 495.399 830.019 494.121 829.887 492.887C829.755 491.52 829.579 490.242 829.667 489.008C829.799 485.306 831.606 481.824 833.545 478.122C835.925 473.494 838.437 468.734 837.864 463.092C837.38 458.024 834.647 454.145 831.959 450.399C829.49 446.873 827.11 443.567 827.154 439.733C827.154 438.19 827.551 436.604 827.992 434.885C828.609 432.461 829.182 429.948 828.873 427.26C831.606 426.819 834.118 425.453 836.366 423.954C837.953 422.896 839.451 421.662 840.906 420.472C842.713 418.974 844.432 417.608 846.283 416.55C846.547 416.373 847.385 415.889 847.913 415.889C848.663 415.889 849.897 417.652 849.941 419.855C849.985 421.662 849.544 423.514 849.103 425.497C848.839 426.555 848.619 427.568 848.442 428.626C847.12 436.251 848.927 444.361 853.379 450.267C854.216 451.369 855.142 452.426 856.023 453.44C858.491 456.261 860.607 458.685 860.695 461.77C860.739 464.018 859.593 466.354 858.359 468.602C855.45 473.891 852.189 479.135 848.619 484.204Z" fill="#FAA627"/>
<path d="M669.632 196.746C669.324 196.129 668.971 195.512 668.663 194.895C665.842 189.65 663.815 185.463 666.062 183.083C667.737 181.32 671.219 181.717 673.687 182.863C674.921 183.435 676.111 184.097 677.345 184.846C679.461 186.08 681.665 187.402 684.221 188.107C686.248 188.68 688.364 188.813 690.391 188.989C693.653 189.253 696.518 189.43 698.193 191.237C699.25 192.339 699.779 194.013 700.352 195.776C700.925 197.495 701.498 199.258 702.6 200.933C705.421 205.164 710.225 206.707 714.5 208.029C718.026 209.131 721.376 210.189 723.359 212.569C725.563 215.169 725.783 219.048 726.004 223.102C726.224 227.29 726.488 231.609 728.78 235.399C729.574 236.677 730.499 237.735 731.381 238.749C732.042 239.498 732.659 240.203 733.188 240.953C735.083 243.685 735.744 247.255 736.361 250.693C738.168 260.433 740.195 271.408 739.358 281.898C739.358 281.898 739.314 281.898 739.314 281.942C738.08 282.911 737.243 284.057 736.714 285.291C731.91 279.782 725.342 275.727 720.053 272.862C719.084 272.334 718.026 271.805 717.012 271.32C713.751 269.733 710.666 268.191 708.991 265.59C707.889 263.871 707.404 261.668 706.831 259.332C706.038 255.85 705.156 251.927 701.983 249.239C700.132 247.652 697.884 246.903 695.945 246.242C694.358 245.713 692.816 245.184 691.758 244.302C689.466 242.495 688.761 239.146 688.055 235.576C687.747 233.989 687.394 232.314 686.91 230.727C684.882 224.248 679.769 218.607 672.85 214.861C673.643 208.646 672.541 202.299 669.632 196.746Z" fill="#FFF685"/>
<path d="M744.077 300.107C743.856 299.49 743.636 298.829 743.371 298.124C741.344 292.526 739.978 288.075 742.578 286.047C744.473 284.549 747.867 285.475 750.159 286.973C751.305 287.722 752.363 288.56 753.464 289.485C755.36 291.028 757.343 292.659 759.811 293.716C761.75 294.598 763.778 295.039 765.761 295.479C768.979 296.229 771.755 296.846 773.166 298.873C774.047 300.107 774.312 301.87 774.62 303.677C774.929 305.484 775.237 307.291 776.075 309.098C778.234 313.726 782.73 315.93 786.741 317.913C790.09 319.544 793.219 321.087 794.85 323.731C796.613 326.64 796.261 330.474 795.908 334.529C795.511 338.716 795.115 343.036 796.834 347.135C797.407 348.501 798.156 349.691 798.905 350.837C799.434 351.674 799.963 352.468 800.359 353.305C801.814 356.302 801.946 359.916 802.078 363.442C802.431 373.183 802.784 384.201 800.448 394.338C800.315 394.382 800.227 394.382 800.095 394.382C797.583 395.088 795.864 396.63 794.674 398.658C792.338 392.487 788.283 387.154 782.642 382.879C781.76 382.218 780.79 381.557 779.865 380.896C776.868 378.824 774.047 376.841 772.813 374.064C771.976 372.213 771.799 369.965 771.623 367.541C771.359 364.015 771.05 359.96 768.317 356.831C766.731 354.98 764.615 353.922 762.808 352.952C761.31 352.159 759.899 351.454 758.93 350.44C756.946 348.325 756.726 344.887 756.55 341.273C756.461 339.642 756.373 337.967 756.109 336.292C755.051 329.593 750.864 323.246 744.605 318.53C746.28 312.492 746.148 306.013 744.077 300.107Z" fill="#FFF685"/>
<path d="M796.92 415.095C797.008 414.346 797.052 413.552 797.14 412.759C797.581 407.382 798.154 400.683 801.547 399.757C803.751 399.14 806.219 401.696 807.63 404.253C807.894 404.694 808.114 405.178 808.335 405.663C808.555 406.412 808.864 407.118 809.304 407.779C809.393 407.999 809.525 408.219 809.613 408.484C810.671 410.996 811.773 413.552 813.492 415.8C814.858 417.607 816.533 419.062 818.119 420.472C820.72 422.764 822.968 424.747 823.408 427.612C823.673 429.419 823.188 431.403 822.659 433.518C822.174 435.457 821.689 437.485 821.645 439.689C821.601 445.286 824.598 449.517 827.463 453.616C829.799 456.922 832.003 460.051 832.355 463.621C832.752 467.632 830.725 471.466 828.609 475.565C826.493 479.62 824.29 483.851 824.113 488.788C824.069 490.418 824.202 492.005 824.378 493.503C824.51 494.649 824.642 495.707 824.642 496.765C824.686 500.644 823.232 504.478 821.822 508.18C819.221 515.056 816.048 523.43 812.125 530.923C810.759 530.306 809.304 529.997 807.806 530.129C805.117 530.438 803.09 531.76 801.547 533.699C800.446 528.631 798.506 523.738 796.302 519.067C795.774 517.921 795.201 516.819 794.672 515.717C792.821 512.103 791.102 508.709 791.19 505.095C791.234 502.715 792.071 500.247 792.953 497.646C794.275 493.768 795.641 489.713 794.54 485.35C793.922 482.749 792.468 480.678 791.234 478.827C790.22 477.284 789.207 475.83 788.766 474.287C787.796 470.981 789.162 467.279 790.573 463.357C791.19 461.638 791.851 459.875 792.292 458.068C794.231 450.707 793.085 442.157 789.383 434.356C793.57 428.934 796.214 422.191 796.92 415.095Z" fill="#FFF685"/>
<path d="M792.425 678.966C794.584 679.627 795.378 683.109 795.201 686.018C795.113 687.473 794.849 689.015 794.629 690.602C794.188 693.29 793.747 696.023 794.011 698.888C794.232 701.136 794.849 703.251 795.422 705.323C796.127 707.791 796.788 709.995 796.612 712.066C796.612 712.066 796.436 713.565 796.083 714.182C795.157 715.724 793.879 717.267 792.293 718.765C790.838 720.176 789.34 721.586 788.15 723.437C785.108 728.153 785.417 733.31 785.681 738.334C785.902 742.389 786.122 746.18 784.491 749.397C782.684 752.967 778.938 755.171 774.971 757.507C771.005 759.843 766.906 762.223 764.129 766.278C763.203 767.644 762.498 769.054 761.837 770.421C761.352 771.434 760.868 772.448 760.295 773.33C758.267 776.635 754.962 779.103 751.788 781.483C742.665 788.359 732.44 796.028 721.553 800.479C721.377 800.347 721.245 800.127 721.024 799.995C719.482 798.849 717.807 798.364 716.088 798.276C720.495 792.149 723.36 784.921 724.418 777.12C724.594 775.886 724.682 774.652 724.815 773.418C725.167 769.407 725.52 765.572 727.503 762.531C728.825 760.548 730.809 758.917 732.968 757.198C736.142 754.598 739.447 751.909 740.858 747.634C741.695 745.078 741.607 742.566 741.563 740.362C741.519 738.511 741.431 736.792 741.916 735.205C742.885 731.9 745.97 729.475 749.276 726.919C750.73 725.817 752.185 724.627 753.551 723.393C759.105 718.192 762.719 710.391 763.732 701.753C770.123 699.417 775.985 695.141 780.304 689.5C780.525 689.191 781.582 687.913 781.803 687.517C785.065 683.241 789.075 677.953 792.425 678.966Z" fill="#FFF685"/>
<path d="M621.152 874.611C621.725 873.51 622.209 872.364 622.738 871.218C624.413 867.516 626 864.078 628.865 861.874C630.76 860.42 633.184 859.538 635.784 858.613C639.663 857.202 643.63 855.792 646.406 852.222C648.037 850.106 648.786 847.682 649.447 845.567C650.02 843.804 650.505 842.129 651.475 840.851C653.458 838.03 657.205 836.796 661.127 835.473C662.846 834.9 664.609 834.283 666.328 833.534C673.292 830.449 679.242 824.279 683.076 816.477C689.908 816.389 696.827 814.274 702.777 810.395C703.395 809.998 704.056 809.558 704.761 809.073C705.422 808.632 706.083 808.191 706.788 807.751V807.795C706.832 807.751 706.92 807.707 706.965 807.663C710.975 805.106 715.295 802.726 717.675 804.489C719.482 805.811 719.085 809.337 717.939 812.07C717.587 812.951 717.102 813.833 716.617 814.758C716.176 815.42 715.779 816.081 715.515 816.786C714.325 818.99 713.135 821.281 712.518 823.794C711.945 825.997 711.857 828.201 711.725 830.317C711.592 832.873 711.46 835.165 710.623 837.06C710.623 837.06 709.653 838.647 709.433 838.867C708.199 840.189 706.348 841.027 704.364 841.952C702.513 842.79 700.618 843.671 698.899 844.994C694.491 848.475 693.037 853.412 691.627 858.216C690.481 862.094 689.423 865.797 686.823 868.265C683.914 871.042 679.683 871.879 675.143 872.76C670.647 873.642 665.975 874.567 662.009 877.476C660.686 878.446 659.541 879.548 658.483 880.606C657.689 881.399 656.896 882.192 656.059 882.853C653.062 885.278 649.139 886.556 645.349 887.746C631.333 892.241 600.084 899.558 584.702 898.147C584.702 898.015 584.746 897.883 584.746 897.751C592.327 895.194 615.069 886.6 621.152 874.611Z" fill="#FFF685"/>
<path d="M352.912 827.718C361.727 830.01 370.057 832.17 377.814 836.313C386.849 841.117 392.006 849.887 398.044 860.025C405.405 872.454 414.484 887.791 433.789 900.397C397.383 896.606 364.416 883.604 344.362 864.873C328.804 850.372 316.463 829.217 310.204 806.959C311.659 808.193 313.157 809.383 314.7 810.529C315.229 810.97 315.757 811.322 316.154 811.675C321.531 815.994 327.746 819.476 334.533 822.121C340.527 824.501 346.83 826.131 352.912 827.718Z" fill="#FFF685"/>
<path d="M258.905 711.931C263.753 716.206 269.086 719.952 274.243 723.522C281.735 728.723 288.787 733.659 294.605 740.227C307.563 754.815 310.075 775.001 312.499 794.57C312.808 797.038 313.116 799.595 313.469 802.107C311.133 800.124 308.885 797.92 307.871 796.113C307.122 794.791 305.535 794.218 304.081 794.747C302.627 795.275 301.833 796.774 302.098 798.228C302.671 801.049 303.332 803.87 304.081 806.691C282 794.482 263.665 776.059 253.263 755.388C243.699 736.392 239.424 712.283 241.275 689.232C242.201 690.863 243.214 692.538 244.228 694.169C244.581 694.742 244.933 695.271 245.198 695.711C248.855 701.661 253.439 707.127 258.905 711.931Z" fill="#FFF685"/>
<path d="M234.178 600.429C239.467 607.834 244.491 614.842 247.797 622.996C255.113 640.978 250.75 660.503 246.519 679.411C246.122 681.086 245.769 682.805 245.373 684.523C244.183 682.276 243.169 680.028 242.905 678.353C242.684 676.855 241.406 675.753 239.863 675.709C238.277 675.665 237.043 676.81 236.778 678.309C236.161 682.055 235.72 685.89 235.456 689.724C218.311 670.331 206.587 645.958 203.767 623.48C201.298 603.603 204.736 581.037 213.066 560.851L213.198 560.807C213.198 560.763 213.154 560.763 213.154 560.718C213.639 559.528 214.168 558.338 214.697 557.148C215.05 559 215.446 560.895 215.843 562.79C215.975 563.495 216.107 564.068 216.24 564.597C217.606 571.34 220.118 577.996 223.644 584.386C226.773 590.028 230.52 595.317 234.178 600.429Z" fill="#FFF685"/>
<path d="M242.153 493.849C243.431 512.934 232.942 530.255 222.761 547.003C221.791 548.59 220.821 550.265 219.808 551.895C219.631 550.176 219.587 548.546 219.808 547.356C220.072 545.857 219.235 544.403 217.824 543.874C216.37 543.345 214.783 543.962 214.034 545.284C212.579 547.973 211.213 550.705 209.891 553.482C199.886 529.241 196.051 501.342 200.15 480.495C204.293 459.648 215.709 437.963 231.311 420.906C231.047 422.757 230.826 424.697 230.65 426.592C230.562 427.297 230.518 427.914 230.43 428.443C229.636 435.319 229.901 442.415 231.267 449.555C232.457 455.901 234.396 462.116 236.247 468.154C239.024 476.881 241.58 485.079 242.153 493.849Z" fill="#FFF685"/>
<path d="M349.961 201.42C349.52 201.949 349.167 202.39 348.859 202.786C344.628 207.767 341.146 213.497 338.457 219.843C336.077 225.485 334.358 231.347 332.683 237.076C330.259 245.318 327.968 253.119 323.869 260.259C314.745 276.214 299.187 283.663 282.703 291.508C281.425 292.125 280.147 292.742 278.869 293.359C279.706 291.42 280.588 289.701 281.513 288.599C282.527 287.453 282.527 285.734 281.513 284.589C280.499 283.399 278.869 283.134 277.546 283.927C274.637 285.69 271.817 287.586 269.04 289.569C273.712 264.535 284.29 241.925 298.085 228.041C312.101 213.937 332.155 202.963 353.178 197.674C352.076 198.908 351.019 200.186 349.961 201.42Z" fill="#FFF685"/>
<path d="M272.127 294.504C271.51 296.267 270.893 298.118 270.32 299.969C270.099 300.63 269.923 301.247 269.747 301.732C267.587 308.299 266.397 315.307 266.309 322.579C266.221 329.058 266.838 335.537 267.455 341.796C268.336 350.875 269.218 359.425 267.984 368.152C265.295 387.721 252.91 401.428 239.732 415.929C239.071 416.634 238.41 417.383 237.749 418.133C238.145 416.237 238.674 414.518 239.291 413.328C240.041 412.006 239.688 410.331 238.454 409.406C237.22 408.48 235.545 408.524 234.443 409.582C230.741 413.02 227.259 416.678 223.954 420.557C218.621 395.17 220.648 367.932 229.595 346.688C237.881 326.987 253.395 308.079 272.127 294.504Z" fill="#FFF685"/>
<path d="M825.612 566.532C825.612 568.339 824.818 570.234 823.937 572.218C823.143 574.069 822.35 575.964 821.953 578.124C821.028 583.677 823.32 588.305 825.524 592.8C827.331 596.415 829.005 599.852 828.785 603.466C828.521 607.477 825.964 610.959 823.232 614.661C820.499 618.364 817.678 622.154 816.709 627.002C816.4 628.633 816.312 630.176 816.224 631.718C816.18 632.864 816.092 633.966 815.959 634.98C815.386 638.814 813.315 642.384 811.376 645.822C806.131 654.989 800.181 665.259 792.732 673.368C790.264 673.016 788.016 673.765 785.945 675.175C787.091 668.035 786.65 660.278 784.534 652.565C784.182 651.375 783.829 650.185 783.432 648.995C782.198 645.161 781.008 641.503 781.669 637.933C782.11 635.597 783.3 633.305 784.578 630.881C786.474 627.267 788.457 623.476 788.104 618.981C787.884 616.336 786.826 614.044 785.901 612.017C785.107 610.342 784.402 608.755 784.182 607.169C783.785 603.775 785.68 600.293 787.708 596.679C788.589 595.092 789.515 593.462 790.264 591.743C793.349 584.779 793.57 576.184 791.145 567.854C795.641 563.623 799.079 558.114 801.018 551.988C801.415 550.797 801.723 549.652 801.988 548.506C802.032 548.285 802.12 548.021 802.164 547.8C803.486 542.556 805.073 536.033 808.599 535.636C810.847 535.371 812.918 538.28 813.932 541.057C814.417 542.467 814.813 543.922 815.166 545.509C815.827 548.153 816.488 550.842 817.855 553.354C818.912 555.337 820.323 557.056 821.689 558.687C823.716 561.331 825.612 563.623 825.612 566.532Z" fill="#FFF685"/>
<path d="M420.258 105.033C428.676 101.595 437.8 98.5979 448.995 95.5127C489.852 84.3178 505.145 63.735 510.787 51.1738C516.428 63.735 531.678 84.3178 572.579 95.5127C583.774 98.5979 592.898 101.595 601.316 105.033C629.347 116.448 652.574 130.508 672.143 147.917L602.726 231.659C602.682 231.703 602.682 231.747 602.682 231.747C574.474 215.087 543.402 205.831 510.787 205.831C478.172 205.831 447.143 215.087 418.936 231.747C418.936 231.703 418.892 231.703 418.892 231.659L349.475 147.917C369 130.508 392.183 116.448 420.258 105.033Z" fill="#FFF685"/>
<path d="M464.334 182.289C464.025 184.449 463.673 185.463 463.32 185.331C462.923 185.198 462.615 184.185 462.394 182.157C462.086 178.631 461.557 175.017 460.808 171.271C460.059 167.525 459.045 163.822 457.899 160.12C456.709 156.462 455.298 152.848 453.668 149.366C452.037 145.884 450.142 142.667 447.982 139.67C446.968 138.215 446.792 136.672 447.409 135.086C447.806 133.411 448.247 131.736 448.775 130.149C449.304 128.563 449.789 126.888 450.142 125.213C450.45 124.199 450.759 123.626 451.067 123.45C451.376 123.274 451.773 123.626 452.345 124.552C454.858 128.475 457.106 132.75 459.001 137.422C460.896 142.094 462.439 146.942 463.54 152.01C464.642 157.079 465.303 162.192 465.48 167.348C465.612 172.461 465.259 177.441 464.334 182.289Z" fill="#ED1C24"/>
<path d="M510.966 137.513C509.424 139.805 507.573 141.303 505.325 142.052C503.121 142.758 500.741 142.052 498.185 139.937C497.568 139.32 497.215 139.055 497.171 139.188C497.083 139.32 496.73 139.716 496.025 140.378C494.659 141.964 493.248 143.066 491.794 143.595C491.397 143.771 491.221 143.859 491.177 143.903C491.133 143.948 491.177 144.212 491.353 144.785C493.337 150.999 494.571 157.258 495.1 163.605C495.584 169.951 495.188 176.43 493.91 182.997C493.513 184.76 493.204 185.554 492.94 185.422C492.676 185.289 492.455 184.364 492.323 182.689C491.485 173.874 489.899 165.985 487.607 158.977C485.315 151.969 482.098 145.578 477.955 139.849C476.897 138.306 476.544 136.763 476.897 135.133C477.338 133.546 477.867 131.871 478.395 130.152C478.924 128.433 479.541 126.626 480.247 124.687C480.467 124.07 480.687 123.673 480.82 123.497C480.952 123.321 481.26 123.497 481.613 124.114C482.759 125.48 484.213 126.803 485.932 128.081C487.651 129.359 489.414 130.064 491.177 130.196C492.191 130.285 493.116 130.108 493.998 129.756C494.879 129.359 495.717 128.83 496.466 128.169C497.215 127.464 497.876 126.714 498.405 125.877C498.934 125.04 499.419 124.158 499.771 123.233C500.168 122.175 500.477 121.734 500.741 121.91C501.006 122.087 501.358 122.527 501.843 123.233C502.548 124.555 503.297 125.613 504.135 126.494C504.972 127.376 506.206 127.816 507.793 127.816C510.922 127.816 513.17 126.23 514.58 123.1C514.889 122.263 515.153 121.822 515.462 121.778C515.726 121.734 515.815 122.219 515.77 123.233C515.594 125.701 515.153 128.169 514.316 130.769C513.435 133.237 512.333 135.529 510.966 137.513Z" fill="#ED1C24"/>
<path d="M528.156 161.268C527.407 163.251 526.481 165.058 525.379 166.645C524.057 168.232 523.043 169.069 522.206 169.113C521.413 169.157 520.223 168.761 518.724 167.923C517.578 167.394 516.52 166.865 515.551 166.337C514.581 165.808 513.655 165.279 512.73 164.75C511.981 164.309 511.584 163.957 511.584 163.736C511.584 163.516 511.716 162.987 512.025 162.149C512.774 160.475 513.523 158.756 514.273 157.037C514.978 155.318 515.727 153.599 516.52 151.924C516.961 150.91 517.402 150.382 517.843 150.338C518.283 150.249 518.9 150.47 519.738 150.91C521.016 151.616 522.382 152.365 523.749 153.158C525.115 153.952 526.349 154.877 527.407 155.979C528.244 156.816 528.641 157.654 528.597 158.491C528.641 159.241 528.464 160.21 528.156 161.268Z" fill="#ED1C24"/>
<path d="M574.432 131.08C574.432 132.314 574.344 133.416 574.124 134.341C573.948 135.311 573.463 136.236 572.669 137.162C567.292 143.685 563.237 150.693 560.505 158.23C557.728 165.766 555.701 173.7 554.423 182.074C554.026 184.278 553.585 185.379 553.1 185.291C552.616 185.203 552.219 184.057 551.91 181.853C550.324 167.089 545.035 153.602 536.088 141.437C535.471 140.512 535.074 139.718 534.942 138.969C534.765 138.264 534.809 137.294 535.074 136.148C535.294 134.694 535.603 133.107 535.955 131.432C536.308 129.757 536.661 127.862 537.057 125.791C537.278 124.557 537.762 124.469 538.424 125.438C546.401 137.691 551.514 148.93 553.806 159.199C554.114 160.125 554.423 160.125 554.731 159.199C555.348 156.202 556.23 153.161 557.42 150.076C558.61 146.991 559.976 143.905 561.563 140.82C563.149 137.735 564.868 134.782 566.808 131.873C568.703 128.964 570.73 126.276 572.758 123.852C573.507 122.926 573.992 122.529 574.212 122.662C574.388 122.794 574.521 123.323 574.521 124.336V131.08H574.432Z" fill="#ED1C24"/>
</svg>
