<svg width="1024" height="1024" viewBox="0 0 1024 1024" fill="none" xmlns="http://www.w3.org/2000/svg">
<path fill-rule="evenodd" clip-rule="evenodd" d="M795.21 226.81V336.187L512.443 172.925C499.876 165.669 484.166 174.739 484.166 189.25V378.351C393.492 391.986 323.932 470.219 323.932 564.726C323.932 588.981 328.519 612.105 336.939 633.407L229.676 695.301V226.81C229.676 204.36 241.653 183.616 261.095 172.391L481.025 45.4182C500.467 34.1939 524.419 34.1939 543.861 45.4182L763.791 172.391C783.233 183.616 795.21 204.36 795.21 226.81Z" fill="url(#paint0_radial_1215_212)" stroke="#AA1F00" stroke-width="3"/>
<path d="M78.4169 488.813L173.137 434.125V760.639C173.137 775.151 188.844 784.221 201.411 776.965L365.177 682.415C422.323 754.123 524.854 775.248 606.7 727.995C627.706 715.867 645.438 700.333 659.676 682.39L766.91 744.335L361.184 978.581C341.742 989.806 317.788 989.805 298.346 978.58L78.4195 851.602C58.9783 840.377 47.0003 819.633 47 797.184V543.233C46.9997 520.783 58.9748 500.038 78.4169 488.813Z" fill="#D12236" stroke="#AA1F00" stroke-width="3"/>
<path d="M663.717 978.575L568.994 923.887L851.766 760.635C864.334 753.379 864.334 735.239 851.766 727.983L688.001 633.433C721.529 548.089 688.558 448.732 606.713 401.478C585.707 389.351 563.402 381.761 540.744 378.402V254.562L946.484 488.808C965.926 500.033 977.901 520.778 977.901 543.228V797.179C977.901 819.628 965.923 840.372 946.482 851.596L726.555 978.575C707.113 989.8 683.159 989.8 663.717 978.575Z" fill="#D12236" stroke="#AA1F00" stroke-width="3"/>
<path d="M512.449 696.693C585.328 696.693 644.407 637.614 644.407 564.735C644.407 491.857 585.328 432.777 512.449 432.777C439.571 432.777 380.491 491.857 380.491 564.735C380.491 637.614 439.571 696.693 512.449 696.693Z" fill="url(#paint1_linear_1215_212)" stroke="#FF9F00" stroke-width="3.5"/>
<defs>
<radialGradient id="paint0_radial_1215_212" cx="0" cy="0" r="1" gradientUnits="userSpaceOnUse" gradientTransform="translate(462.438 264.828) scale(237.146 237.146)">
<stop stop-color="white"/>
<stop offset="0.0255132" stop-color="#FDF8F8"/>
<stop offset="0.297308" stop-color="#EEADB4"/>
<stop offset="0.54012" stop-color="#E1717E"/>
<stop offset="0.745488" stop-color="#D94657"/>
<stop offset="0.905297" stop-color="#D32C3F"/>
<stop offset="1" stop-color="#D12236"/>
</radialGradient>
<linearGradient id="paint1_linear_1215_212" x1="667.797" y1="725.493" x2="426.497" y2="475.79" gradientUnits="userSpaceOnUse">
<stop offset="0.0811578" stop-color="#FFD88B"/>
<stop offset="0.389924" stop-color="#FFD667"/>
<stop offset="0.792553" stop-color="#FFD33E"/>
<stop offset="1" stop-color="#FFD22E"/>
</linearGradient>
</defs>
</svg>
