<svg width="1024" height="1024" viewBox="0 0 1024 1024" fill="none" xmlns="http://www.w3.org/2000/svg">
<path d="M511.997 300.334C395.078 300.334 300.328 395.085 300.328 512.003C300.328 628.922 395.078 723.672 511.997 723.672C628.915 723.672 723.666 628.922 723.666 512.003C723.666 395.085 628.915 300.334 511.997 300.334ZM900.437 514.22V620.498L971.5 549.435C992.167 528.768 992.167 495.263 971.5 474.572L767.558 270.629H656.846L900.437 514.22ZM709.922 863.392H863.385V522.074L786.685 445.374V786.692L709.922 863.392ZM509.78 900.437H403.502L474.565 971.5C495.232 992.167 528.737 992.167 549.428 971.5L753.371 767.558V656.846L509.78 900.437ZM160.608 709.922V863.385H501.926L578.626 786.685H237.308L160.608 709.922ZM123.563 509.78V403.502L52.4999 474.565C31.8334 495.232 31.8334 528.737 52.4999 549.428L256.442 753.371H367.154L123.563 509.78ZM314.078 160.608H160.615V501.926L237.315 578.626V237.308L314.078 160.608ZM514.22 123.563H620.498L549.435 52.4999C528.768 31.8334 495.263 31.8334 474.572 52.4999L270.629 256.442V367.154L514.22 123.563ZM786.692 237.315H445.374L522.074 160.615H863.392V314.078L786.692 237.315Z" fill="#001B49"/>
</svg>
