<svg width="1024" height="1024" viewBox="0 0 1024 1024" fill="none" xmlns="http://www.w3.org/2000/svg">
<path d="M722.74 395.642L408.609 576.929C368.327 600.202 338.936 638.52 326.9 683.458C314.864 728.395 321.168 776.274 344.426 816.565L390.969 897.167C392.264 899.317 394.24 900.974 396.583 901.873C398.927 902.772 401.504 902.862 403.905 902.129C406.306 901.397 408.393 899.883 409.835 897.828C411.278 895.774 411.992 893.296 411.865 890.789C409.703 858.675 416.437 826.586 431.327 798.05C446.218 769.514 468.688 745.637 496.267 729.042L691.802 616.009C727.524 595.342 753.605 561.366 764.337 521.516C775.068 481.666 769.577 439.188 749.065 403.377C747.857 401.128 746.215 399.141 744.233 397.532C742.251 395.923 739.969 394.724 737.52 394.004C735.071 393.284 732.503 393.059 729.966 393.34C727.429 393.621 724.972 394.404 722.74 395.642Z" fill="url(#paint0_linear_1215_212)"/>
<path d="M819.082 46.6382C817.817 44.4461 816.132 42.5247 814.124 40.9837C812.117 39.4426 809.825 38.3122 807.381 37.657C804.936 37.0017 802.386 36.8345 799.877 37.1648C797.368 37.4951 794.949 38.3165 792.757 39.5821L271.557 340.551C231.357 363.796 202.022 402.041 189.989 446.891C177.956 491.742 184.208 539.534 207.373 579.78L253.916 661.196C255.211 663.346 257.187 665.003 259.531 665.902C261.875 666.801 264.452 666.891 266.853 666.158C269.254 665.426 271.341 663.912 272.783 661.857C274.225 659.803 274.94 657.325 274.813 654.818C272.625 622.682 279.347 590.564 294.239 562.002C309.13 533.44 331.614 509.541 359.215 492.935L761.954 260.356C779.762 250.097 795.37 236.425 807.884 220.123C820.398 203.821 829.571 185.209 834.878 165.355C840.185 145.5 841.522 124.794 838.811 104.422C836.1 84.0504 829.396 64.4139 819.082 46.6382Z" fill="url(#paint1_linear_1215_212)"/>
<path d="M545.396 813.584C528.247 813.584 511.482 818.669 497.223 828.197C482.964 837.725 471.851 851.267 465.288 867.111C458.725 882.954 457.008 900.389 460.354 917.208C463.699 934.028 471.957 949.478 484.084 961.604C496.21 973.731 511.66 981.989 528.48 985.335C545.3 988.68 562.734 986.963 578.578 980.401C594.422 973.838 607.964 962.724 617.491 948.465C627.019 934.206 632.104 917.442 632.104 900.292C632.104 877.296 622.969 855.241 606.708 838.98C590.447 822.719 568.392 813.584 545.396 813.584Z" fill="url(#paint2_linear_1215_212)"/>
<defs>
<linearGradient id="paint0_linear_1215_212" x1="208.867" y1="112.042" x2="858.163" y2="1079.27" gradientUnits="userSpaceOnUse">
<stop offset="0.3" stop-color="#21409A"/>
<stop offset="0.66" stop-color="#D11776"/>
</linearGradient>
<linearGradient id="paint1_linear_1215_212" x1="322.849" y1="35.5113" x2="972.144" y2="1002.6" gradientUnits="userSpaceOnUse">
<stop offset="0.3" stop-color="#21409A"/>
<stop offset="0.66" stop-color="#D11776"/>
</linearGradient>
<linearGradient id="paint2_linear_1215_212" x1="76.1667" y1="201.198" x2="725.462" y2="1168.29" gradientUnits="userSpaceOnUse">
<stop offset="0.3" stop-color="#21409A"/>
<stop offset="0.66" stop-color="#D11776"/>
</linearGradient>
</defs>
</svg>
