<svg width="1024" height="1024" viewBox="0 0 1024 1024" fill="none" xmlns="http://www.w3.org/2000/svg">
<path d="M404.72 865.245L393.823 861.103C393.563 861.103 393.563 860.844 393.563 860.844L397.715 849.97C397.715 849.711 397.974 849.711 397.974 849.711L408.871 853.853C409.131 853.853 409.131 854.112 409.131 854.112L404.979 864.986C404.979 865.245 404.72 865.245 404.72 865.245Z" fill="#4F4F4F"/>
<path d="M402.643 881.298L391.746 877.156C391.486 877.156 391.486 876.897 391.486 876.897L395.638 866.023C395.638 865.764 395.897 865.764 395.897 865.764L406.794 869.906C407.054 869.906 407.054 870.165 407.054 870.165L402.902 881.039C402.902 881.298 402.902 881.557 402.643 881.298Z" fill="#4F4F4F"/>
<path d="M644.456 886.216L639.786 875.601C639.786 875.342 639.786 875.342 640.046 875.342L650.683 870.682C650.943 870.682 650.943 870.682 650.943 870.941L655.613 881.556C655.613 881.815 655.613 881.815 655.353 881.815L644.716 886.475C644.456 886.216 644.456 886.216 644.456 886.216Z" fill="#4F4F4F"/>
<path d="M649.126 817.087L644.456 806.472C644.456 806.213 644.456 806.213 644.716 806.213L655.353 801.553C655.613 801.553 655.613 801.553 655.613 801.812L660.283 812.427C660.283 812.686 660.283 812.686 660.023 812.686L649.386 817.346C649.386 817.346 649.126 817.346 649.126 817.087Z" fill="#4F4F4F"/>
<path d="M389.153 871.976L378.256 867.833C377.996 867.833 377.996 867.574 377.996 867.574L382.147 856.7C382.147 856.441 382.407 856.441 382.407 856.441L393.304 860.584C393.563 860.584 393.563 860.843 393.563 860.843L389.412 871.717C389.412 871.976 389.153 871.976 389.153 871.976Z" fill="#4F4F4F"/>
<path d="M364.244 349.244C379.811 320.247 402.644 295.133 429.367 276.232C393.563 282.446 359.833 301.346 336.223 329.05C315.207 353.646 302.234 384.715 299.64 416.819C297.564 441.156 301.197 466.012 309.499 488.795C312.353 497.08 315.986 505.366 320.915 512.615C330.256 526.855 341.153 540.318 353.866 551.969C362.687 559.736 372.547 566.727 383.444 571.387C383.444 570.61 383.703 568.798 383.703 567.762C361.39 539.541 346.342 505.624 341.672 470.154C336.223 428.729 344.526 385.75 364.244 349.244Z" fill="#4F4F4F"/>
<path d="M924.148 362.188C916.105 325.941 903.133 290.988 885.23 258.366C876.149 241.278 864.993 225.485 853.836 209.95C833.858 182.506 810.507 157.392 784.043 135.903C759.913 116.226 733.968 98.8789 706.466 84.3801C689.082 76.095 671.699 68.0689 653.277 61.8551C633.299 54.8646 612.802 50.2043 592.046 45.8029C567.138 40.3658 541.712 38.2945 516.285 37C485.41 37.2589 454.535 40.1069 424.438 47.0974C410.168 50.4632 395.898 53.5701 381.887 57.9715C345.304 69.1045 310.018 85.6746 278.105 106.905C253.457 123.475 229.587 141.858 208.572 163.088C184.702 186.907 164.464 214.093 146.562 242.573C126.584 274.936 111.535 310.406 101.936 347.171C96.487 368.919 91.2979 390.927 88.9628 413.452C86.8872 434.941 84.5521 456.948 87.1466 478.437C88.4439 504.069 92.5952 529.183 98.8221 554.038C110.238 604.784 132.032 653.2 162.389 695.402C172.248 709.124 182.367 722.587 193.783 735.273C189.372 738.38 184.961 741.487 181.848 745.889C177.696 751.585 173.026 757.281 170.172 764.012C167.578 769.708 166.54 776.181 164.983 782.136C164.205 786.019 162.907 789.903 163.945 794.045C165.243 798.965 165.761 804.143 168.097 808.803C188.334 844.791 208.312 880.779 228.55 916.768C235.555 928.418 241.003 941.105 250.084 951.72C255.273 956.898 261.241 961.559 267.208 965.701C273.954 970.879 282.516 972.692 290.3 975.54C306.127 980.2 322.472 984.084 338.818 986.414C351.012 988.485 362.688 984.601 374.623 982.012C381.369 980.718 387.855 978.129 393.563 974.245C400.049 969.585 406.795 965.442 411.465 958.97C415.098 954.05 418.99 949.131 422.103 943.694C436.114 937.998 450.643 933.079 465.432 929.195C502.534 921.428 541.193 921.169 578.295 929.195C590.489 932.302 602.424 936.186 614.1 940.587C616.694 946.542 620.846 951.72 624.478 956.898C628.629 962.594 635.116 966.219 640.824 970.62C651.721 978.388 665.472 979.941 678.185 983.307C689.082 986.155 700.498 984.084 711.655 982.271C732.671 977.87 753.686 972.951 772.886 963.112C778.335 959.487 784.043 955.863 788.453 950.943C798.832 938.516 807.134 924.276 814.14 909.518C832.042 872.753 848.128 834.953 867.587 798.965C870.182 794.304 870.441 789.126 871.998 784.207C873.555 779.288 870.701 774.369 870.182 769.708C867.847 758.316 860.841 748.737 853.836 739.675C849.425 734.238 843.198 730.613 837.75 726.471C858.766 700.839 877.965 673.136 893.014 643.361C907.803 614.105 918.7 582.518 925.705 550.414C932.71 522.452 936.083 493.972 937.381 465.233C936.602 430.28 932.71 395.587 924.148 362.188ZM915.327 512.354C910.657 543.164 902.873 573.715 891.457 602.972C879.522 633.264 863.955 661.744 845.015 688.152C833.339 704.464 820.626 720.257 806.615 734.497C812.583 735.015 818.81 736.309 824.518 738.38C836.453 743.559 845.274 754.174 850.982 765.825C853.058 770.485 854.874 775.404 855.393 780.582C855.133 787.832 850.723 793.787 847.609 800C829.966 833.658 814.918 868.611 798.313 902.787C792.864 913.92 786.897 925.053 779.373 934.891C775.221 940.587 769.513 945.247 763.286 948.613C745.903 956.898 727.482 962.076 708.541 965.442C699.201 966.737 689.342 968.549 680.001 966.219C672.218 964.407 664.434 963.112 657.169 960.005C643.418 954.05 631.224 942.658 627.591 927.642C613.581 921.946 599.311 917.027 584.781 913.402C549.236 904.858 512.134 903.822 476.07 910.036C454.794 913.402 434.297 920.392 414.319 928.418C412.244 929.454 409.39 929.713 408.611 932.302C401.866 947.319 388.893 959.746 373.066 964.924C363.207 967.513 352.829 970.361 342.45 969.585C321.434 967.255 300.938 962.076 281.219 954.309C275.251 951.461 270.322 946.801 265.392 942.658C260.203 938.257 256.83 932.561 253.717 926.865C230.885 885.958 207.793 845.05 184.961 804.143C182.367 800 181.069 795.34 180.55 790.421C182.367 774.627 189.631 759.093 202.864 749.772C208.572 745.112 215.577 743.041 222.842 741.487C175.102 693.848 138.778 634.817 120.097 569.832C111.535 539.798 105.568 508.988 104.271 477.661C102.195 459.537 103.752 441.155 105.308 423.031C106.865 403.613 110.238 384.454 114.908 365.554C123.47 328.012 137.74 291.765 156.94 258.625C173.026 230.922 192.226 205.031 214.28 181.729C236.333 158.428 261.5 137.974 288.224 120.368C320.137 99.3967 355.423 83.0855 392.006 71.9525C420.287 63.6675 449.086 57.7126 478.405 55.3824C491.896 54.3468 505.388 53.3112 518.88 53.5701C539.117 54.8646 559.355 56.1592 579.333 59.7839C617.473 66.5155 655.094 77.3896 689.861 94.7364C696.347 97.8433 702.833 100.432 708.801 104.575C736.822 119.85 762.767 138.751 786.637 159.981C814.658 185.095 838.788 214.611 859.025 246.197C862.917 252.67 867.328 258.625 870.441 265.615C887.825 297.202 900.798 331.637 908.841 366.848C916.884 399.729 920.257 433.905 919.997 467.822C918.181 482.839 917.662 497.596 915.327 512.354Z" fill="#E8651D"/>
<path d="M586.079 791.198C582.966 790.68 579.074 789.127 576.739 791.975C574.144 795.082 571.031 797.93 569.993 802.072C573.885 802.072 577.517 801.555 581.409 801.037C583.225 797.93 584.782 794.564 586.079 791.198Z" fill="#4F4F4F"/>
<path d="M546.642 755.21C545.085 755.21 543.269 754.951 541.712 754.951C529.777 766.343 517.842 777.994 504.091 787.574C488.783 798.448 471.4 806.215 453.497 811.911C434.038 817.866 413.282 816.571 393.044 816.053C390.45 821.231 387.077 826.669 381.628 828.999C376.699 830.293 371.25 828.481 366.839 831.329C360.353 834.695 357.759 841.944 355.942 848.676C356.721 849.452 357.499 850.229 358.277 850.747C360.613 849.193 362.948 847.381 365.802 847.381C370.731 847.122 376.18 847.899 380.591 845.31C385.52 842.721 387.336 837.025 389.153 832.106C402.385 832.106 415.617 832.623 428.59 832.106C447.53 831.07 465.951 824.597 482.297 815.018C496.567 806.733 509.021 795.6 520.956 784.467C527.442 778.512 533.669 772.039 541.193 767.379C545.863 765.049 546.123 759.612 546.642 755.21Z" fill="#4F4F4F"/>
<path d="M852.797 265.098C820.884 209.692 774.961 162.571 720.735 128.654C667.287 95.255 606.056 75.0602 543.267 70.1409C531.592 69.3642 519.916 68.0697 507.982 68.3286C482.814 69.3642 457.647 71.4355 432.999 76.6136C393.562 84.6398 355.163 98.6208 320.136 118.298C266.169 148.072 219.468 190.792 184.96 241.797C148.117 295.908 125.545 359.6 120.096 424.585C118.799 439.602 117.761 454.36 118.54 469.376C119.059 474.296 119.577 479.474 119.837 484.652C123.988 542.906 141.891 600.125 171.468 650.612C203.641 705.5 249.564 752.103 303.531 785.761C301.715 786.797 299.639 787.832 297.564 788.35C294.191 787.832 291.337 786.538 288.223 785.243C274.991 780.583 261.759 775.923 248.527 771.262C246.97 766.602 245.413 762.201 243.856 757.54C239.186 755.987 234.257 754.433 229.067 754.692C218.43 755.21 208.83 761.424 203.122 770.227C199.23 776.441 196.117 783.431 195.857 790.68C197.673 796.376 201.565 801.296 204.419 806.733C224.916 843.498 245.673 880.262 266.169 917.286C268.764 921.947 271.099 927.125 275.25 930.491C279.661 934.374 284.072 938.776 289.52 941.106C307.682 948.096 326.623 953.533 346.082 954.569C359.833 954.31 374.622 950.944 384.74 941.106C391.227 935.151 395.119 927.125 398.492 918.84C443.377 898.904 492.933 888.03 542.23 891.913C575.18 894.502 607.353 902.787 637.709 915.733C641.082 916.768 640.822 920.652 641.86 923.5C644.455 934.633 654.055 942.659 664.173 946.802C674.552 950.944 685.708 953.533 697.124 952.239C717.881 950.426 737.859 944.213 756.799 935.669C764.842 931.785 770.031 923.759 774.701 916.251C780.928 905.894 786.117 894.761 791.306 883.887C807.133 849.97 822.441 815.794 840.343 782.913C841.9 780.583 840.343 777.994 839.565 775.664C835.673 766.602 829.965 757.54 820.884 752.88C812.582 748.479 802.204 748.996 793.382 752.103C792.085 752.621 790.269 753.139 789.49 754.692C786.896 759.612 784.561 764.79 781.966 769.968C773.404 772.816 764.842 775.664 756.28 777.994C746.161 780.324 736.042 783.431 725.405 783.431C729.816 779.547 735.005 776.699 739.675 773.334C768.993 752.621 795.717 727.766 818.29 699.804C860.062 648.799 888.343 587.179 899.499 522.193C902.872 503.552 904.169 484.652 905.467 465.752C905.467 428.21 901.056 390.41 890.937 353.904C881.597 323.094 869.143 293.06 852.797 265.098ZM272.915 912.108C252.937 875.602 233.219 838.578 213.5 802.072C211.165 797.412 208.052 793.011 206.495 788.091C211.165 778.253 220.246 768.673 231.921 768.932C250.083 809.063 268.764 849.194 286.926 889.583C289.002 894.243 291.337 898.645 292.893 903.564C285.629 904.6 279.142 908.483 272.915 912.108ZM279.142 927.384C279.142 925.312 278.883 923.241 278.883 921.17C283.812 915.474 290.818 911.331 298.601 910.814C298.342 914.956 298.601 919.875 295.228 922.464C290.558 926.089 284.85 926.866 279.142 927.384ZM324.547 945.507C314.428 943.436 304.569 940.329 294.969 936.445C293.153 935.928 291.856 934.374 290.558 932.821C296.526 931.008 302.493 928.16 306.126 922.723C308.461 918.84 311.055 913.661 308.461 909.26C293.153 873.272 276.288 838.061 260.98 802.331C258.645 796.894 256.051 791.457 254.494 786.02C262.018 787.574 267.726 793.528 270.84 800.26C293.931 847.381 317.023 894.502 340.374 941.365C335.963 944.73 330.255 946.802 324.547 945.507ZM749.015 922.464C745.642 921.688 743.307 919.357 740.713 917.286C740.713 915.474 740.713 913.662 740.713 911.849C745.123 911.072 750.053 910.037 754.464 912.367C758.096 914.179 759.653 917.804 761.21 921.429C757.318 922.723 753.167 923.241 749.015 922.464ZM799.09 759.612C806.874 760.906 815.176 761.424 821.663 766.084C826.592 769.709 827.371 776.699 824.776 782.136C805.057 825.115 785.079 867.835 765.361 910.814C758.615 909.26 753.167 904.6 746.161 903.305C763.545 855.407 781.707 807.509 799.09 759.612ZM760.431 802.849C763.026 797.412 765.101 791.716 768.993 786.797C770.291 784.467 773.145 784.985 775.48 784.467C774.442 791.198 771.588 797.671 769.512 804.144C765.62 814.5 763.026 825.374 758.096 835.213C749.794 856.184 742.01 877.156 733.448 898.127C731.372 903.305 727.48 908.742 729.037 914.697C731.632 921.947 738.896 925.83 745.123 929.196C744.864 929.973 744.345 931.526 744.345 932.044C733.448 935.669 722.81 939.811 711.394 941.365C706.465 941.882 701.276 942.918 696.865 940.07C717.621 894.502 739.156 848.676 760.431 802.849ZM739.156 813.982C734.486 820.455 688.822 917.804 687.524 920.393C685.449 922.723 682.854 924.795 679.481 924.536C676.108 922.982 673.514 920.134 670.4 918.063C647.828 902.011 621.363 891.654 594.121 885.7C554.683 877.156 513.69 876.897 473.733 882.852C436.631 888.547 399.789 899.939 367.097 918.581C362.427 920.911 358.535 924.536 353.606 926.089C335.963 895.538 294.71 818.125 293.931 809.581C303.531 801.555 314.428 795.6 325.066 789.386C356.719 772.298 390.708 760.129 425.734 751.844C471.917 740.97 519.916 736.569 567.397 740.194C599.569 742.783 631.482 748.996 661.319 760.906C690.897 772.816 718.14 790.163 739.156 813.982ZM682.335 754.433C682.335 753.398 682.335 751.585 682.335 750.55C691.935 748.737 701.794 747.702 711.654 747.961C706.724 757.54 695.568 760.647 685.708 761.683C685.708 760.647 685.968 758.835 685.968 758.058C688.303 756.505 690.638 754.951 693.232 753.139C689.341 753.139 685.708 753.657 682.335 754.433ZM656.13 749.514C657.947 743.818 661.319 738.381 666.768 735.792C673.254 732.685 680.519 732.167 687.524 731.65C686.487 737.604 684.67 744.077 680.779 748.737C677.406 752.621 672.217 753.916 667.287 754.692C668.584 748.996 672.995 745.113 675.071 739.676C667.806 741.229 663.136 747.702 656.13 749.514ZM654.574 736.569C655.352 727.766 660.282 716.892 670.141 715.338C670.919 719.999 670.4 724.918 669.881 729.578C667.806 730.873 665.73 731.908 663.395 733.203C662.876 730.614 660.801 729.837 658.465 729.837C657.428 732.167 656.13 734.498 654.574 736.569ZM753.167 641.55C752.648 644.398 752.129 647.505 751.61 650.612C750.053 650.612 748.496 650.612 746.94 650.612C750.572 643.103 754.723 635.854 758.356 628.604C761.988 633.265 763.285 639.737 761.469 645.433C760.431 648.799 759.134 653.201 754.983 653.718C755.242 649.317 756.539 645.174 757.577 641.032C756.021 641.032 754.723 641.291 753.167 641.55ZM764.583 656.566C762.766 664.334 756.799 670.547 750.053 674.431C747.458 675.984 744.086 676.243 740.972 676.502C741.751 673.913 742.788 671.324 744.864 669.512C750.831 664.334 757.577 659.932 764.583 656.566ZM688.822 203.478C686.746 203.996 684.67 204.773 682.595 204.773C677.665 205.55 674.552 200.889 670.66 198.818C670.66 197.265 670.66 195.711 670.66 194.158C676.368 190.015 683.892 191.051 689.6 194.934C685.968 196.229 682.335 197.265 678.703 198.559C682.076 200.371 685.708 201.407 688.822 203.478ZM735.783 209.433C734.226 209.174 732.67 208.915 731.113 208.915C730.853 202.702 731.113 196.747 731.372 190.533C732.41 190.533 733.448 190.533 734.486 190.274C739.675 196.747 746.161 202.96 747.459 211.504C742.01 208.915 740.453 202.702 735.524 199.336C735.524 202.702 735.524 206.067 735.783 209.433ZM743.567 219.789C746.68 222.12 748.237 226.003 748.756 229.887C746.421 229.369 743.826 229.369 742.01 227.816C737.34 224.45 732.929 220.307 727.999 217.459C730.334 220.825 733.448 224.191 734.745 228.075C730.075 227.816 727.74 223.932 725.924 220.307C724.108 216.683 722.551 213.058 721.254 209.174C729.037 210.987 737.08 214.611 743.567 219.789ZM767.177 669.253C770.031 655.79 785.858 650.094 798.312 651.906C789.75 660.968 782.744 672.878 770.291 677.279C771.588 671.583 776.777 668.735 780.669 665.369C775.999 665.628 771.328 667.441 767.177 669.253ZM795.458 646.21C796.755 640.514 800.647 635.854 802.982 630.676C798.312 631.711 794.679 634.818 791.047 637.666C791.825 631.711 795.458 626.792 800.387 623.685C805.576 619.802 811.544 617.212 818.03 616.695C814.917 625.756 809.209 634.041 802.722 641.032C800.387 642.844 798.052 644.657 795.458 646.21ZM808.949 573.457C807.133 576.823 805.317 580.189 805.576 584.072C803.501 586.661 801.166 588.992 798.571 591.063C798.312 578.117 806.614 567.502 814.398 558.182C815.695 558.182 817.252 558.182 818.549 558.182C818.549 567.502 819.587 578.635 812.322 585.885C812.063 581.483 812.582 577.082 813.101 572.939C811.544 573.198 810.247 573.457 808.949 573.457ZM814.138 613.07C815.436 607.892 818.03 603.231 819.846 598.053C816.733 599.089 813.62 599.866 810.506 600.642C814.138 591.063 821.922 583.037 832.041 580.706C828.149 592.357 823.479 604.785 814.138 613.07ZM830.225 569.832C832.041 566.467 834.116 563.101 835.673 559.476C833.857 559.994 831.522 559.217 830.225 560.771C827.89 563.101 825.554 565.69 822.96 567.761C823.219 562.842 825.554 558.44 828.149 554.557C819.068 554.039 809.987 554.557 800.906 554.557C803.241 553.78 805.576 554.298 808.171 554.298C814.917 554.298 821.663 554.298 828.408 554.557C832.819 550.155 838.268 546.531 844.235 544.459C842.679 551.968 840.343 558.958 837.23 565.949C836.192 568.538 834.117 570.609 832.3 572.421C831.781 571.904 830.744 570.609 830.225 569.832ZM813.62 465.493C812.582 463.939 811.803 462.127 811.544 460.315C810.247 453.842 809.728 447.11 809.209 440.379C816.733 442.968 822.7 449.44 823.998 457.467C822.96 458.502 822.182 459.538 821.144 460.573C818.809 457.725 818.29 453.065 813.879 452.288C814.398 456.69 814.657 461.091 813.62 465.493ZM809.209 425.362C808.171 422.514 808.43 419.666 808.171 416.818C812.582 418.889 816.214 421.737 819.846 424.844C819.846 426.657 819.846 428.469 819.846 430.54C816.733 427.951 813.101 426.398 809.209 425.362ZM815.695 438.825C811.544 436.495 810.766 431.317 809.728 427.174C814.657 428.469 815.955 434.165 815.695 438.825ZM823.738 386.008C829.446 391.186 834.376 397.659 836.192 405.167C836.711 406.721 836.192 408.274 835.933 410.086C835.154 410.086 833.857 410.345 833.338 410.604C831.522 405.685 830.225 400.766 828.149 396.105C827.371 395.847 826.073 395.07 825.295 394.811C825.036 401.025 825.554 407.497 823.998 413.452C823.998 415.006 822.441 415.782 821.403 416.559C818.809 406.462 820.884 395.847 823.738 386.008ZM822.441 364.001C823.219 364.001 824.517 364.001 825.295 364.001C825.814 367.108 826.073 369.956 826.333 373.063C823.479 370.991 823.219 367.367 822.441 364.001ZM827.63 464.198C828.149 463.939 829.187 463.162 829.706 462.645C829.446 466.528 829.446 470.671 828.668 474.554C828.149 474.813 827.111 475.59 826.333 476.108C826.333 471.965 826.333 468.082 827.63 464.198ZM825.554 443.486C826.073 433.906 827.111 424.326 828.408 414.747C833.598 417.077 834.635 423.032 835.414 428.21C833.857 428.728 832.56 428.987 831.262 429.505C830.744 434.683 829.187 439.861 825.554 443.486ZM830.484 485.17C831.781 485.429 832.819 485.946 834.116 486.205C835.154 493.714 836.97 501.481 835.673 509.248C835.154 511.837 833.079 513.908 831.262 515.98C830.744 511.06 831.262 506.141 830.744 501.222C829.446 500.704 828.149 500.186 826.852 499.668C827.111 494.49 827.63 489.312 830.484 485.17ZM834.116 462.645C832.3 461.609 830.484 460.832 828.408 459.797C828.668 456.431 829.706 453.324 830.744 450.476C836.97 455.136 837.749 463.162 839.306 470.153C839.825 470.412 840.603 471.189 841.122 471.706C840.603 475.331 840.084 478.956 836.97 481.027C835.673 474.813 834.895 468.858 834.116 462.645ZM825.036 519.863C826.333 520.381 827.89 520.899 829.187 521.417C828.408 522.711 827.63 523.747 827.111 525.041C827.89 527.889 828.927 530.478 829.706 533.326C827.63 533.326 825.814 533.326 823.738 533.585C820.625 539.281 817.252 544.977 812.063 549.12C813.62 538.246 819.068 528.666 825.036 519.863ZM829.446 535.916C827.63 539.799 828.668 545.754 823.738 547.825C823.998 544.201 824.257 540.835 824.776 537.21C826.333 536.692 827.89 536.174 829.446 535.916ZM840.343 539.54C841.381 533.585 843.457 527.889 844.754 522.193C840.343 523.488 836.452 526.077 834.116 529.961C833.857 527.889 833.338 525.559 834.895 523.747C838.787 518.051 843.457 511.319 850.981 511.578C849.424 521.417 846.051 531.255 840.343 539.54ZM844.495 506.659C845.532 499.41 850.203 493.196 852.019 485.946C851.24 485.946 849.424 485.687 848.386 485.687C846.311 490.348 843.716 495.267 838.787 497.338C838.787 487.759 846.83 480.509 855.911 478.697C855.132 485.687 853.835 492.419 851.241 498.892C849.943 502.258 847.349 504.588 844.495 506.659ZM850.203 471.189C850.203 466.528 850.722 461.609 851.5 456.949C849.943 457.208 848.646 457.208 847.089 457.467C845.792 459.797 844.495 462.127 842.938 464.457C840.862 461.35 841.641 457.208 843.716 454.101C846.57 449.958 849.684 445.557 854.354 443.227C856.689 452.547 855.132 462.904 850.203 471.189ZM848.386 439.084C848.386 436.236 848.386 433.388 848.386 430.799C847.349 430.54 846.051 430.022 845.014 429.763C844.754 430.799 844.235 431.835 843.976 432.87C842.678 432.352 841.641 431.835 840.343 431.317C841.381 423.032 844.235 412.934 852.797 409.569C853.057 419.407 854.354 430.54 848.386 439.084ZM846.83 398.695C847.089 400.248 846.051 401.543 845.273 402.578C845.014 399.73 844.754 396.882 845.014 394.034C843.976 393.775 842.938 393.775 841.9 393.516C840.603 395.329 839.306 396.882 838.008 398.695C835.673 390.41 840.343 382.124 845.273 375.911C847.089 383.419 846.83 391.186 846.83 398.695ZM838.527 369.956C836.97 368.402 835.673 366.59 834.376 364.778C833.338 365.037 831.262 365.813 830.225 366.331C829.965 359.341 831.003 351.832 835.673 346.395C838.268 354.162 839.565 362.189 838.527 369.956ZM831.262 342.771C830.484 343.288 828.927 344.065 828.149 344.583C827.89 340.958 827.89 337.333 827.89 333.968C825.814 335.521 823.998 336.816 821.922 338.369C820.884 330.861 821.922 323.611 823.479 316.362C824.257 316.362 826.073 316.621 826.852 316.88C830.225 324.647 833.079 333.709 831.262 342.771ZM822.441 356.493C820.884 357.01 819.587 357.787 818.03 358.305C818.29 363.742 819.068 369.179 819.587 374.616C818.549 374.616 816.733 374.616 815.695 374.616C813.36 366.072 813.36 357.01 813.879 348.208C818.03 349.502 821.144 352.35 822.441 356.493ZM810.247 330.861C809.987 329.048 809.468 326.977 809.209 325.165C811.025 326.459 812.841 328.013 814.657 329.566C813.101 330.084 811.544 330.343 810.247 330.861ZM816.214 318.951C815.436 315.326 815.176 311.702 814.657 308.336C813.36 308.336 812.063 308.336 810.766 308.336C810.766 311.702 811.025 315.326 811.025 318.692C809.987 318.433 808.171 317.657 807.393 317.139C806.874 307.818 806.095 298.238 807.393 288.659C808.949 290.471 810.506 292.284 811.284 294.355C813.879 300.828 817.252 307.3 817.252 314.55C817.771 316.103 816.733 317.398 816.214 318.951ZM808.949 321.799C807.912 322.576 806.614 323.611 805.576 324.388C806.095 330.084 808.949 335.78 807.393 341.735C802.722 334.227 800.906 325.165 801.166 316.621C804.02 317.657 806.614 319.469 808.949 321.799ZM801.425 305.488C795.717 303.934 794.939 295.649 788.712 294.614C791.306 300.051 794.42 305.747 793.642 311.961C792.344 310.925 790.787 309.889 790.009 308.336C785.339 301.086 783.004 292.284 783.263 283.481C792.085 288.141 798.052 296.685 801.425 305.488ZM791.825 262.25C799.868 267.428 802.203 277.785 801.425 286.588C798.831 284.516 798.052 281.151 797.533 278.044C796.755 278.044 795.458 278.044 794.939 278.044C794.42 280.892 793.901 283.74 792.863 286.329C788.193 279.079 789.49 270.018 791.825 262.25ZM786.117 262.25C783.004 258.626 781.966 253.189 777.815 250.599C777.036 250.858 775.48 251.117 774.701 251.376C773.923 245.939 773.923 240.502 774.182 235.065C775.48 235.583 777.555 235.842 778.074 237.395C781.707 243.091 785.08 249.305 786.636 256.037C787.155 258.108 786.636 260.179 786.117 262.25ZM783.523 276.749C778.074 275.455 775.22 270.018 770.55 267.428C772.366 271.571 774.961 275.455 775.999 279.856C774.701 279.079 773.145 278.82 772.366 277.526C768.474 272.607 766.658 266.393 765.62 260.179C773.923 261.732 783.004 267.17 783.523 276.749ZM758.875 222.379C757.577 222.379 756.28 222.12 754.983 222.12C755.761 225.744 756.539 229.369 756.799 232.994C755.242 231.958 752.648 231.44 752.129 229.369C749.275 223.155 751.869 216.424 752.907 209.951C755.502 211.246 758.096 212.799 759.912 215.129C764.842 221.861 768.734 229.887 768.474 238.431C763.545 234.547 761.988 227.816 758.875 222.379ZM758.615 241.02C762.247 244.127 764.583 248.528 766.399 252.671C765.101 252.671 764.064 252.671 762.766 252.671C759.134 248.528 755.502 243.868 750.053 242.314C752.388 247.751 758.615 252.412 756.28 258.885C750.053 252.153 744.086 244.127 743.048 234.547C748.496 236.101 754.204 237.136 758.615 241.02ZM714.508 178.364C715.027 182.507 716.324 186.39 717.102 190.533C715.805 189.497 714.248 188.979 713.47 187.167C710.875 181.471 709.578 174.998 709.319 168.785C715.286 172.151 721.254 176.034 724.626 182.248C725.924 184.578 725.405 187.167 725.664 189.497C720.735 187.426 718.4 181.989 714.508 178.364ZM719.437 198.3C713.729 198.818 708.8 195.711 704.13 193.122C707.502 199.336 711.394 205.55 713.989 212.281C704.648 207.103 694.27 198.818 694.53 187.167C698.681 187.426 703.092 187.426 706.984 188.462C712.432 189.756 716.583 193.64 719.437 198.3ZM696.346 170.079C694.011 170.079 694.53 173.963 693.492 175.257C687.265 172.409 686.227 164.901 685.968 158.946C695.308 161.276 704.389 168.785 704.908 179.141C701.276 176.811 699.2 172.927 696.346 170.079ZM696.346 181.989C694.27 182.248 692.454 182.248 690.638 181.471C684.411 179.141 678.443 175.775 671.698 175.257C676.627 180.177 682.854 183.801 687.524 188.979C685.708 188.979 683.892 189.756 682.335 188.721C674.292 184.578 667.027 178.105 664.173 169.303C675.849 168.785 688.822 172.409 696.346 181.989ZM690.378 209.433C694.011 208.915 697.903 207.88 701.794 208.915C706.205 209.951 710.097 212.799 713.47 215.388C710.356 216.165 706.984 216.683 703.87 216.941C710.097 220.566 716.843 222.896 722.291 227.816C719.178 229.628 715.286 229.887 711.913 228.851C702.832 226.003 696.346 218.754 689.341 212.799C689.6 212.022 690.119 210.21 690.378 209.433ZM729.556 232.217C731.632 234.547 733.707 236.877 735.524 239.466C730.594 239.466 725.664 238.949 720.735 239.466C725.664 241.797 730.594 243.868 734.745 247.493C732.929 248.787 730.853 250.341 728.518 249.305C721.254 246.975 714.248 242.056 711.135 234.806C717.362 233.512 723.329 232.476 729.556 232.217ZM759.653 264.322C761.469 265.875 759.912 268.464 759.912 270.535C754.723 267.946 749.794 265.098 743.826 264.839C749.275 269.759 756.28 272.865 761.469 278.303C758.875 278.303 755.761 279.079 753.426 277.267C744.605 271.053 734.486 264.839 730.594 254.224C741.232 253.189 751.61 257.59 759.653 264.322ZM775.48 287.105C778.334 289.177 779.372 292.801 779.112 296.167C772.107 295.908 767.696 289.694 761.21 288.141C765.62 293.578 771.847 296.944 776.258 302.381C773.923 302.381 771.069 302.381 769.253 300.569C762.766 295.649 756.539 289.695 753.685 281.927C760.95 282.445 769.253 282.445 775.48 287.105ZM783.523 309.63C787.415 311.961 791.047 314.809 793.382 318.433C789.75 318.174 786.377 317.398 782.744 317.139C787.415 322.317 794.16 325.683 796.496 332.414C791.306 332.414 787.155 328.79 783.263 326.2C777.036 321.799 772.366 315.585 770.809 308.077C774.961 307.818 779.631 307.3 783.523 309.63ZM796.236 335.262C800.387 337.075 802.463 341.735 805.058 345.36C804.539 345.618 803.501 346.136 802.982 346.395C800.128 345.101 797.274 343.806 794.42 343.029C799.349 348.984 808.43 353.386 807.912 362.447C796.236 358.046 789.49 345.618 786.636 334.227C790.009 334.485 793.123 334.485 796.236 335.262ZM805.836 364.001C809.209 366.331 809.468 370.733 809.987 374.357C806.095 373.063 801.944 371.768 798.571 369.179C796.496 367.626 796.236 365.037 795.458 362.965C798.571 363.224 802.463 362.706 805.836 364.001ZM809.209 383.16C807.393 382.642 804.539 383.419 803.501 381.348C802.722 380.053 802.463 378.5 801.944 377.205C802.722 377.205 804.279 377.464 805.058 377.723C806.355 379.535 807.652 381.348 809.209 383.16ZM817.252 396.623C816.474 398.695 816.214 401.284 813.62 402.06C812.063 400.248 810.766 397.918 809.468 395.847C808.43 395.847 806.355 395.847 805.317 395.847C807.652 399.73 809.987 403.873 811.544 408.015C810.506 408.015 808.69 408.274 807.652 408.274C803.76 401.543 801.425 394.034 800.906 386.267C807.133 388.597 813.101 391.704 817.252 396.623ZM823.479 486.982C824.776 490.089 822.441 492.678 820.625 494.749C819.068 491.383 817.771 488.018 816.474 484.911C815.176 484.911 813.879 484.652 812.582 484.652C813.101 489.312 813.879 493.972 813.879 498.633C812.582 497.338 811.284 496.044 811.025 494.231C809.209 485.687 808.171 477.143 807.393 468.6C814.398 472.742 820.625 479.215 823.479 486.982ZM808.171 500.186C813.879 506.4 817.252 514.944 817.252 523.488C816.474 525.041 814.917 526.336 813.62 527.63C811.025 523.488 811.025 518.569 809.987 514.167C808.43 514.426 806.614 514.685 805.058 515.203C805.836 520.122 806.355 525.3 806.095 530.478C805.576 530.478 804.279 530.737 803.76 530.737C800.128 520.122 804.279 509.507 808.171 500.186ZM802.982 535.916C806.614 539.799 807.393 544.977 808.43 549.897C807.393 550.673 806.355 551.45 805.317 552.227C804.279 549.896 802.982 547.566 801.944 544.977C801.166 544.977 799.35 544.977 798.571 544.977C800.128 550.673 801.685 557.146 798.831 562.842C795.198 553.003 794.939 542.129 795.198 531.773C798.052 532.809 801.166 533.585 802.982 535.916ZM793.901 583.554C791.825 583.296 789.49 582.778 787.415 582.519C786.377 587.179 785.598 591.84 783.782 596.5C783.782 584.59 787.933 573.198 790.269 561.806C791.566 561.806 792.863 562.065 794.16 562.065C797.274 568.538 800.647 578.117 793.901 583.554ZM790.009 606.856C793.901 601.678 798.831 597.018 805.058 594.688C804.539 600.901 803.241 607.374 801.166 613.329C800.647 614.882 799.09 615.659 798.052 616.695C797.793 613.588 798.052 610.222 798.052 607.115C794.16 607.892 792.604 611.775 790.269 614.364C788.452 616.695 785.858 617.989 783.263 619.284C783.263 614.364 787.415 610.74 790.009 606.856ZM787.674 625.756C787.155 636.63 782.225 646.987 774.442 654.495C774.961 647.246 778.593 640.773 781.447 634.559C774.961 636.631 771.847 642.585 768.215 647.505C768.734 636.889 778.074 629.122 787.674 625.756ZM777.555 613.329C773.663 614.364 769.512 615.4 766.399 618.248C766.918 609.186 771.847 601.16 775.22 592.875C775.999 593.134 777.296 593.652 778.074 593.911C778.593 600.125 778.334 606.856 777.555 613.329ZM774.701 681.68C767.177 689.707 759.912 699.027 749.275 703.17C751.61 696.697 757.837 693.331 762.247 688.412C757.837 688.671 753.685 689.965 749.534 691.519C749.534 690.742 749.794 688.93 749.794 688.153C757.318 683.752 765.88 680.386 774.701 681.68ZM752.388 680.904C753.167 676.761 754.983 673.136 757.318 669.771C758.096 669.771 759.912 670.03 760.95 670.288C759.393 674.69 756.28 678.315 752.388 680.904ZM742.269 661.227C740.713 663.816 738.637 666.146 736.821 668.476C736.561 666.146 735.783 664.075 734.486 662.003C734.745 658.12 735.524 654.236 737.599 651.129C738.896 648.799 741.75 649.058 743.826 648.022C743.826 652.683 744.086 657.343 742.269 661.227ZM745.902 682.975C744.086 693.072 737.599 702.911 727.999 707.053C729.816 701.357 733.448 696.438 735.524 691.001C731.113 690.742 728.778 694.108 726.183 696.956C725.145 696.179 724.108 695.661 723.329 694.885C730.075 689.707 737.08 684.011 745.902 682.975ZM739.156 707.312C743.826 706.018 748.496 706.018 753.426 706.277C752.907 711.196 748.496 714.044 744.864 716.892C738.897 721.552 731.372 723.106 724.108 724.918C723.848 723.623 723.329 722.588 723.07 721.293C728.518 718.445 734.486 716.115 739.675 712.749C733.967 713.267 728.259 714.303 722.551 714.821C722.551 714.044 722.551 712.749 722.551 712.231C727.999 711.196 733.448 708.866 739.156 707.312ZM730.075 728.543C721.772 736.828 711.654 743.559 699.719 744.595C699.719 743.818 699.978 742.265 699.978 741.488C703.092 740.711 705.946 739.676 709.059 738.381C705.427 736.31 701.276 737.863 697.643 738.122C698.94 734.756 702.313 733.462 705.167 731.65C708.54 729.578 711.913 727.248 715.805 726.73C720.735 726.212 725.405 727.507 730.075 728.543ZM715.027 699.545C713.729 700.063 712.432 700.581 711.135 701.098C711.654 696.438 712.692 692.037 713.729 687.635C712.692 688.153 711.394 688.412 710.356 688.93C707.762 694.367 704.908 699.545 700.497 703.688C700.497 692.554 708.021 683.752 715.805 676.502C717.362 674.949 719.697 675.467 721.513 674.949C721.772 683.493 719.697 692.296 715.027 699.545ZM710.356 707.312C713.47 706.277 716.583 707.83 719.437 709.125C718.14 710.419 717.102 711.455 716.064 713.008C715.286 714.821 715.546 716.892 714.767 718.704C712.432 721.293 709.319 722.588 706.465 724.4C705.167 727.766 702.313 730.096 698.94 731.132C701.794 725.436 705.686 720.258 708.8 714.562C705.686 715.338 702.573 716.892 699.978 718.963C697.384 720.775 694.789 723.882 691.416 722.847C691.676 719.999 694.27 718.186 696.086 716.115C700.238 712.49 704.648 708.607 710.356 707.312ZM692.973 711.973C690.897 714.562 688.043 716.374 685.189 717.927C684.93 716.115 684.93 714.044 684.93 712.231C683.633 712.49 682.335 712.49 681.038 712.749C679.481 715.338 677.925 717.669 675.849 719.999C676.368 711.196 681.297 701.098 690.897 700.063C692.195 703.688 693.751 707.83 692.973 711.973ZM714.767 752.88C715.027 750.291 714.508 747.184 715.805 744.854C722.81 739.676 731.372 736.569 738.378 731.65C737.599 729.578 736.561 727.766 735.783 725.954C745.642 721.811 755.242 715.597 761.729 706.794C761.469 704.982 759.912 702.911 761.729 701.357C778.334 685.564 792.344 667.44 806.095 649.317C805.576 648.799 804.279 648.022 803.501 647.505C806.614 637.666 812.582 628.863 818.03 620.319C825.554 608.151 833.598 596.241 838.268 582.778C840.084 578.117 838.008 572.939 840.862 568.797C846.311 559.735 850.722 550.155 853.057 540.058C851.759 539.54 850.462 539.281 849.165 538.763C851.241 530.737 853.057 522.452 855.651 514.685C856.949 510.801 858.505 506.659 859.543 502.775C858.765 502.516 857.467 501.999 856.689 501.74C857.986 491.124 860.84 481.027 862.916 470.671C861.619 470.412 860.062 470.153 858.765 469.635C859.803 457.208 861.878 445.039 862.916 432.87C861.1 432.611 859.024 432.353 857.208 431.835C857.208 420.702 857.208 409.569 857.208 398.436C855.651 398.436 853.835 398.177 852.278 398.177C851.5 387.303 850.722 376.428 849.424 365.813C847.868 365.813 846.311 365.554 844.754 365.295C842.678 354.939 841.9 344.324 841.9 333.709C840.084 333.709 838.008 333.45 836.192 333.45C834.376 324.388 831.003 315.844 827.89 307.3C825.814 307.3 823.998 307.041 821.922 307.041C816.992 298.238 813.36 288.918 811.803 278.82C801.166 274.419 798.571 262.25 795.717 252.412C793.641 252.153 791.566 251.635 789.75 251.117C784.561 242.314 779.371 233.77 775.739 224.191C765.101 221.084 759.134 210.987 754.983 201.666C752.129 201.407 748.496 202.443 746.421 199.595C736.302 187.944 726.702 176.034 715.546 165.678C713.21 163.607 710.616 161.794 708.021 160.241C706.724 162.83 705.427 165.16 703.87 167.749C696.346 163.089 689.341 156.616 680.519 155.063C681.038 160.241 681.816 165.16 682.595 170.079C674.811 168.267 666.768 165.678 658.725 165.937C660.541 175.257 669.881 180.177 672.476 189.238C669.363 191.569 666.249 193.64 662.876 195.711C662.876 196.747 662.876 197.782 662.876 198.818C670.4 201.407 677.925 204.773 683.114 210.728C682.595 211.246 681.816 212.54 681.557 213.058C689.6 217.459 698.162 221.861 703.87 229.628C705.686 231.699 704.648 234.288 704.908 236.618C709.059 239.725 713.989 241.797 717.621 245.68C719.697 248.01 720.216 251.376 720.735 254.483C730.853 261.474 741.491 268.464 749.015 278.303C748.237 279.338 747.459 280.374 746.68 281.151C752.648 288.918 758.875 296.426 766.658 302.64C765.88 304.193 765.101 305.747 764.323 307.3C774.701 324.906 786.636 341.994 794.16 360.894C792.085 361.412 790.009 361.93 788.193 362.447C792.863 367.885 798.052 373.581 798.052 381.348C796.755 381.866 795.198 382.383 793.901 382.901C799.609 397.4 803.501 412.676 804.798 428.21C802.722 440.12 806.355 452.029 806.874 463.939C805.058 464.198 803.501 464.716 801.944 464.975C803.241 473.001 805.317 481.286 805.058 489.571C804.279 489.571 802.463 489.83 801.425 490.089C799.09 510.284 794.679 530.22 789.231 549.897C786.636 558.958 783.782 567.761 779.631 576.305C778.074 579.412 775.739 581.742 773.145 583.813C771.588 594.688 766.399 604.526 762.766 614.623C762.247 616.954 759.653 616.436 758.096 617.212C756.539 625.498 752.129 633.006 746.68 639.22C746.161 638.702 745.123 637.925 744.605 637.666C744.605 636.889 744.345 635.336 744.345 634.559C742.788 634.559 741.232 634.3 739.675 634.3C738.378 646.469 727.221 654.754 725.924 666.923C721.772 667.958 717.881 669.771 714.767 672.619C708.54 678.056 705.946 686.859 698.681 691.001C695.827 691.26 692.973 690.224 690.378 689.707C687.784 694.367 685.189 699.286 680.779 702.652C676.887 705.759 671.698 706.536 667.027 707.312C657.168 719.999 643.936 729.837 635.374 743.559C596.456 735.274 556.5 730.096 516.544 730.873C480.739 731.132 444.934 736.051 409.908 744.077C396.935 747.184 385 753.139 372.027 755.469C364.243 739.417 353.606 724.659 340.893 711.973C329.736 699.804 314.428 692.555 301.974 681.68C294.45 674.949 289.52 666.146 284.331 657.602C280.18 650.094 273.694 644.139 268.764 637.148C246.191 607.115 232.7 571.645 223.1 535.657C222.84 533.585 220.246 533.844 218.949 533.068C219.727 516.756 218.43 500.445 216.614 484.134C215.057 469.894 214.538 455.136 217.651 440.896C216.873 440.638 215.057 440.379 214.019 440.379C215.576 429.505 218.17 418.889 220.246 408.015C223.878 391.186 227.251 374.357 233.219 358.305C232.7 356.752 232.181 355.198 231.662 353.386C240.743 344.324 248.267 333.968 255.791 323.611C262.537 314.032 268.764 303.934 273.175 293.06C274.991 289.177 274.472 283.74 278.104 280.892C291.077 268.464 302.493 254.742 313.131 240.502C316.504 235.324 322.731 233.253 327.141 229.11C321.693 225.744 314.947 225.744 308.72 225.744C310.017 219.531 315.206 215.906 318.839 211.246C324.287 204.773 328.179 196.488 326.622 187.685C316.763 187.685 307.942 192.863 300.418 199.077C295.488 202.96 291.596 207.621 286.666 211.504C284.591 205.55 282.775 199.336 280.699 193.381C278.623 193.381 276.548 193.122 274.732 193.122C264.353 209.951 247.748 222.12 236.851 238.69C232.959 244.386 230.365 250.599 228.808 257.072C228.808 258.626 227.251 259.402 225.954 260.179C225.954 261.732 226.213 263.027 226.213 264.58C223.1 264.839 219.727 265.098 216.614 264.839C214.797 267.946 213.5 271.053 211.165 273.642C203.122 282.963 195.338 292.542 190.149 303.934C184.96 315.585 183.144 328.531 182.106 341.217C180.29 340.699 178.474 340.44 176.917 339.923C172.506 344.583 174.063 351.056 172.506 356.752C169.133 369.956 164.204 382.642 160.312 395.847C159.015 399.989 159.274 404.39 159.533 408.792C160.052 420.702 160.831 432.87 159.274 444.78C157.717 444.262 156.42 443.744 154.863 443.486C154.863 466.01 153.566 488.794 158.236 511.06C160.052 519.863 162.128 528.407 165.501 536.692C168.096 542.129 172.247 546.531 174.841 551.968C170.69 551.968 166.539 551.709 162.647 551.968C164.723 556.628 167.317 561.03 169.652 565.69C178.474 584.331 184.701 604.267 195.857 621.614C201.825 631.193 209.349 639.479 217.911 646.469C215.835 648.799 212.722 648.54 210.127 649.058C207.792 649.576 205.457 650.87 203.381 651.906C209.868 659.673 217.651 666.405 224.657 673.395C227.77 676.761 231.403 679.868 232.959 684.27C236.592 693.331 241.781 702.134 249.564 708.089C256.31 713.267 263.575 717.669 270.84 721.811C270.321 723.882 269.802 725.695 269.023 727.766C279.661 735.274 290.299 742.783 300.677 750.55C306.904 755.21 312.871 759.87 320.136 762.977C323.768 764.531 327.66 766.084 329.995 769.191C331.552 771.262 329.995 774.11 329.736 776.699C327.401 776.441 325.066 776.441 322.99 775.146C266.948 742.006 219.986 694.108 188.074 637.407C170.431 606.338 157.717 572.421 149.934 537.469C139.037 488.277 138.777 437.013 148.636 387.82C162.128 319.987 195.857 256.554 243.856 206.844C288.483 160.241 345.563 125.547 407.572 107.424C462.577 91.1125 521.473 88.0056 578.034 98.103C645.233 110.013 709.059 140.823 760.172 186.131C811.544 231.44 849.943 290.989 869.402 356.752C880.559 394.552 885.489 433.906 884.191 473.26C881.856 544.459 857.467 614.364 815.955 672.101C787.674 711.196 751.869 745.113 710.875 770.486C707.502 768.156 703.351 769.709 699.719 769.45C698.162 768.414 697.124 767.12 695.827 765.825C701.794 761.424 708.54 757.281 714.767 752.88ZM649.644 736.569C648.087 739.417 644.195 740.194 642.12 742.783C641.082 743.3 639.785 743.559 638.747 744.077C638.747 743.042 639.006 742.006 639.006 740.711C639.785 740.711 641.341 740.97 642.12 740.97C642.898 739.417 643.677 737.863 644.195 736.31C646.271 736.31 647.828 736.31 649.644 736.569ZM354.644 758.058C356.2 758.835 356.46 760.906 356.979 762.201C352.309 763.495 346.86 765.308 342.19 762.977C337.26 760.388 332.849 757.54 328.179 754.692C330.774 757.54 333.368 760.647 334.925 764.013C330.514 765.049 326.623 762.46 322.99 760.647C306.385 752.103 291.856 740.193 276.288 730.096C276.288 729.06 276.288 727.248 276.288 726.212C288.742 728.025 299.899 733.98 310.536 740.452C301.715 731.908 293.153 722.07 290.039 709.901C298.601 710.419 306.904 713.267 314.688 716.115C334.147 723.623 348.417 739.676 361.908 754.692C355.163 756.505 348.936 752.362 343.487 748.737C334.925 743.041 326.882 736.051 318.32 730.355C315.985 728.802 313.39 728.025 310.796 727.248C325.066 738.899 339.855 748.479 354.644 758.058ZM272.656 717.927C267.986 717.927 263.834 715.338 259.943 713.008C253.456 709.125 248.008 703.688 243.856 697.215C239.186 690.224 236.073 682.457 231.662 675.467C224.916 666.664 214.538 661.486 208.311 652.165C213.76 648.54 220.505 651.906 224.657 656.049C236.073 666.664 243.078 680.904 252.678 693.072C256.57 697.733 262.278 700.581 266.948 704.205C271.099 707.312 276.548 709.642 279.142 714.562C276.029 714.303 272.915 714.303 270.321 713.008C264.353 710.678 260.98 704.723 255.013 702.393C259.943 708.348 266.948 712.232 272.656 717.927ZM298.601 206.585C302.753 197.782 312.871 195.711 320.914 192.863C318.579 202.443 314.169 213.058 304.05 216.941C306.385 211.246 310.277 206.326 312.352 200.63C307.682 202.184 303.272 204.773 298.601 206.585ZM299.12 229.628C304.05 229.11 308.72 229.11 313.65 229.628C312.871 231.699 311.574 233.77 310.017 235.583C300.677 246.457 292.115 258.108 281.737 267.946C280.18 269.5 278.104 270.794 276.288 272.089C278.104 263.545 283.034 256.295 287.445 249.046C291.596 242.573 295.488 236.36 299.12 229.628ZM293.153 230.405C289.78 239.208 285.629 248.269 278.623 254.742C273.434 259.661 270.58 266.393 264.872 270.794C259.943 274.678 254.753 278.561 248.527 280.633C250.343 268.464 258.645 259.143 266.429 250.341C271.618 244.386 277.845 239.466 282.256 232.994C280.44 233.253 278.104 232.735 276.548 234.029C266.169 241.797 260.721 254.483 250.343 262.509C247.229 264.839 243.856 266.393 240.224 267.687C241.002 263.545 242.559 259.402 244.894 255.778C251.64 245.162 260.721 236.101 270.061 227.816C277.845 221.343 286.407 214.87 296.785 213.317C297.045 219.272 295.228 224.968 293.153 230.405ZM264.613 289.694C256.829 307.3 248.267 324.647 236.073 339.923C234.516 339.405 232.7 338.887 231.143 338.369C231.921 329.307 236.851 321.281 241.262 313.255C244.635 307.3 243.337 299.015 248.267 293.837C252.937 290.471 259.164 290.471 264.613 289.694ZM254.494 236.36C249.824 241.797 245.154 247.234 240.483 252.671C238.667 252.412 236.851 252.412 234.775 252.153C234.257 254.483 233.738 256.554 233.219 258.885C232.7 258.885 231.662 258.626 231.143 258.626C232.44 252.671 234.775 247.234 238.148 242.056C246.451 228.851 258.126 217.977 268.505 206.585C271.099 203.996 272.915 200.63 276.288 198.818C280.44 203.737 279.661 210.469 279.921 216.424C270.58 221.602 261.759 228.333 254.494 236.36ZM235.035 279.597C238.148 276.49 241.781 273.901 245.673 272.089C245.413 278.044 244.375 283.74 242.559 289.436C237.629 306.782 231.921 323.87 223.619 339.664C220.246 345.877 216.873 352.35 210.646 356.234C209.868 352.35 209.349 348.466 209.868 344.583C213.241 332.673 220.246 322.317 226.473 311.443C230.105 305.488 232.181 298.497 230.884 291.248C229.846 292.284 228.549 293.06 227.77 294.355C216.873 310.666 211.943 330.343 200.787 346.395C198.452 346.395 198.452 343.806 197.933 341.994C196.376 333.191 200.787 324.647 204.679 317.139C212.722 303.417 223.1 290.73 235.035 279.597ZM282.775 680.645C281.996 680.645 280.699 680.645 279.921 680.645C274.991 673.136 269.023 666.405 263.315 659.673C259.164 654.754 255.013 649.576 253.197 643.362C251.381 637.407 251.381 630.935 251.64 624.721C255.532 626.533 258.645 629.381 260.98 633.006C271.359 647.764 279.142 664.075 286.148 680.645C284.331 677.797 282.515 674.949 280.18 672.619C280.699 675.467 281.477 678.056 282.775 680.645ZM280.18 685.564C283.553 690.483 287.445 695.144 288.742 701.098C289.261 702.911 288.483 704.723 287.704 706.536C274.472 694.108 264.872 678.574 251.899 665.887C250.083 664.075 247.748 662.78 245.673 661.486C246.451 663.039 246.97 664.851 248.008 666.405C259.424 681.163 271.878 694.885 283.294 709.642C280.699 709.384 278.104 709.383 276.029 707.571C264.872 699.027 253.716 689.965 245.673 678.315C237.629 666.664 233.478 652.683 231.403 638.961C237.37 641.291 242.04 645.692 246.71 649.835C258.905 660.709 270.061 672.619 280.18 685.564ZM235.813 600.383C234.516 600.383 233.219 600.642 232.181 600.642C226.992 585.626 216.614 572.68 212.203 557.405C211.424 553.78 210.906 549.638 211.943 546.013C212.981 543.165 215.835 542.129 218.43 541.094C222.841 565.69 238.927 586.661 242.04 611.516C239.705 607.633 239.186 602.973 235.813 600.383ZM213.5 514.685C213.241 524.006 211.684 533.326 209.089 542.129C208.311 542.129 207.014 542.388 206.235 542.388C206.754 534.88 207.792 527.372 208.83 519.863C204.419 517.533 203.381 512.355 201.825 507.953C197.933 495.008 197.414 481.027 199.749 467.564C200.787 461.868 202.862 456.172 205.716 450.994C206.754 450.735 207.792 450.735 209.089 450.476C209.349 472.224 214.278 493.196 213.5 514.685ZM187.295 548.084C185.998 547.566 184.182 547.566 183.663 545.754C177.695 532.55 173.025 518.569 173.285 504.07C172.766 485.429 178.733 467.305 182.625 449.44C183.663 449.44 185.479 449.44 186.517 449.699C191.187 460.832 193.782 472.483 195.857 484.134C198.192 497.856 200.008 511.578 198.711 525.559C197.933 530.22 197.414 535.657 193.782 539.281C191.187 535.139 189.63 530.478 189.111 525.818C187.036 509.766 187.814 493.196 185.998 477.144C185.22 477.144 183.663 477.144 182.884 477.144C182.366 500.704 191.965 524.265 187.295 548.084ZM205.198 434.424C204.938 427.433 205.976 420.702 206.754 413.711C208.311 399.73 210.127 385.749 211.424 372.027C211.165 369.438 213.76 368.143 215.835 366.849C218.43 365.295 221.284 364.519 224.138 363.742C222.062 376.946 219.727 389.892 216.873 402.837C214.797 411.899 212.981 421.219 209.349 429.763C208.83 431.835 207.014 433.129 205.198 434.424ZM216.873 289.177C209.868 304.193 198.711 317.139 193.522 332.932C191.187 333.191 188.852 333.191 186.517 333.45C188.592 318.433 194.041 303.675 201.046 290.212C205.716 281.668 211.165 272.348 220.505 268.723C221.024 275.713 219.987 282.963 216.873 289.177ZM188.592 367.108C192.744 360.376 198.711 354.421 206.235 351.832C206.235 360.376 206.235 368.92 205.457 377.464C204.938 394.552 203.9 411.899 199.49 428.469C197.414 434.942 194.56 442.45 187.555 445.039C187.295 431.576 189.89 418.63 192.744 405.685C194.819 395.588 197.414 385.49 196.376 375.393C194.819 376.17 192.484 376.429 192.484 378.759C186.517 400.766 179.771 422.773 179.512 445.557C178.214 446.075 176.917 446.592 175.36 447.11C172.506 432.87 173.804 418.372 175.879 404.132C177.955 391.186 181.847 378.241 188.592 367.108ZM185.479 358.305C184.182 372.027 177.955 384.455 171.987 396.623C170.431 399.989 168.355 403.355 168.096 407.238C167.577 419.666 168.874 432.353 167.317 444.78C160.571 433.388 160.571 419.407 162.387 406.721C166.02 386.008 175.36 366.59 177.695 345.618C183.403 347.431 186.257 352.868 185.479 358.305ZM171.987 462.645C173.025 464.975 172.247 467.564 171.987 469.894C169.133 486.723 167.577 504.07 170.431 521.158C171.468 527.889 173.025 534.362 174.322 540.835C173.804 540.835 172.506 540.576 171.728 540.576C163.425 524.265 159.533 506.141 158.496 488.018C157.977 474.813 157.198 461.868 157.458 448.664C165.241 449.181 169.393 456.431 171.987 462.645ZM189.63 572.68C195.338 588.733 195.598 606.338 202.084 622.132C201.306 622.132 200.008 621.873 199.23 621.614C189.63 603.749 180.549 585.367 173.025 566.467C171.468 562.842 170.431 558.958 169.393 555.075C178.733 556.887 186.776 563.619 189.63 572.68ZM194.041 575.269C193.263 566.725 193.003 558.182 193.522 549.638C193.263 547.825 194.3 546.531 195.598 545.236C205.198 557.923 214.019 571.386 221.543 585.367C228.549 598.571 233.997 613.329 233.219 628.604C232.44 628.345 230.624 628.087 229.846 628.087C223.1 612.811 215.576 597.794 209.608 582.26C207.273 576.564 205.457 570.609 202.862 564.654C202.084 570.091 202.344 575.787 203.9 581.224C208.311 597.535 216.354 612.293 224.138 627.31C225.435 629.381 224.916 631.711 224.916 633.783C219.468 631.452 215.576 626.792 211.684 622.391C200.527 609.704 195.338 592.357 194.041 575.269ZM222.062 636.113C221.024 636.889 220.246 637.666 219.208 638.443C216.354 636.113 213.76 633.783 211.165 631.452C214.797 632.488 218.43 634.3 222.062 636.113ZM302.753 687.894C310.277 690.742 316.504 695.92 322.731 701.098C331.293 708.348 339.336 715.856 347.119 723.882C344.265 724.918 341.152 726.989 338.298 725.177C329.995 721.034 320.655 718.704 313.131 713.008C305.347 707.312 303.531 696.956 302.753 687.894ZM877.186 559.735C859.543 620.578 826.073 676.761 780.928 721.293C760.95 741.229 738.637 759.094 714.508 774.11C713.21 772.816 712.173 771.78 710.875 770.745C765.101 736.828 810.506 688.671 840.862 632.488C857.208 602.455 869.402 570.091 876.408 536.433C894.569 453.842 882.894 364.778 843.197 289.953C798.831 204.514 719.697 137.716 627.85 108.2C593.342 97.0673 557.278 90.5946 520.954 90.0768C511.095 89.0412 500.976 90.3357 491.117 90.3357C424.178 93.7015 358.276 115.709 302.493 153.25C248.267 189.756 203.641 240.502 175.101 299.274C152.528 345.618 139.815 396.882 138.518 448.664C137.739 456.949 138.258 464.975 138.518 473.26C141.112 546.272 166.798 617.989 210.387 676.761C232.181 706.018 258.386 732.167 287.704 753.916C298.082 761.424 308.72 769.191 320.136 775.146C320.136 775.923 320.396 776.958 320.396 777.735C318.839 778.253 317.023 778.771 315.466 779.289C303.012 771.262 290.558 763.236 278.623 754.175C224.916 713.267 182.106 657.602 156.939 594.946C140.853 554.816 131.772 511.837 130.475 468.858C129.437 457.984 130.993 446.851 130.993 435.977C134.366 374.616 153.566 314.291 185.998 262.25C212.722 218.754 248.527 180.953 290.299 151.697C339.595 116.744 397.194 93.9604 457.128 85.6754C534.446 74.5424 615.396 88.0056 684.93 123.735C742.788 153.25 793.123 198.041 828.927 252.153C861.619 301.345 882.375 358.305 888.861 417.077C890.418 429.763 890.418 442.709 891.197 455.395C891.716 490.348 887.045 525.818 877.186 559.735Z" fill="#4F4F4F"/>
<path d="M465.95 271.311C473.734 275.971 484.112 276.748 492.155 272.606C496.566 270.275 499.161 265.615 503.312 263.026C508.501 262.508 511.355 268.463 516.025 270.017C526.144 273.9 538.857 275.454 547.938 268.463C557.797 260.178 559.095 245.679 556.5 233.77C555.203 233.77 553.906 233.77 552.608 233.77C548.457 238.948 544.825 244.126 539.895 248.527C535.225 252.67 529.257 256.036 523.031 255.518C514.728 255.518 508.242 249.045 503.312 243.09C499.939 243.867 498.123 246.974 495.528 249.304C486.188 258.107 470.102 257.848 461.021 248.786C457.129 245.161 455.053 239.983 454.534 234.546C452.459 234.028 449.345 233.252 448.048 235.841C446.491 241.019 446.751 246.974 448.048 252.152C450.383 260.955 458.167 267.169 465.95 271.311Z" fill="#4F4F4F"/>
<path d="M604.76 599.087C591.528 598.569 578.295 598.052 565.323 595.98C559.096 594.686 551.831 593.65 547.68 588.213C556.761 581.999 565.323 575.527 573.625 568.536C600.609 544.976 622.403 514.683 634.078 480.767C647.051 443.484 646.532 402.059 633.559 365.035C621.106 329.565 598.014 298.237 569.474 273.899C577.517 290.728 586.079 307.298 594.382 324.127C599.571 335.002 606.057 345.358 608.911 357.268C619.289 395.068 613.322 436.234 596.717 471.446C581.409 504.586 557.539 533.066 530.556 557.403C530.296 470.928 530.556 384.453 530.556 297.978C530.556 295.389 530.037 292.282 527.702 290.987C520.178 285.55 512.913 280.113 505.389 274.676C503.572 272.605 501.497 274.935 499.681 275.971C492.156 281.408 484.373 286.327 477.108 292.023C478.665 321.538 478.665 351.054 480.221 380.828C480.481 410.085 482.297 439.082 482.557 468.08C483.594 481.284 483.076 494.23 483.854 507.434C484.113 524.781 485.151 542.128 485.151 559.733C464.135 540.315 445.455 518.308 431.444 493.194C411.725 458.5 402.904 417.593 407.315 377.98C410.947 342.51 424.698 308.852 442.86 278.56C419.25 296.424 399.012 319.467 386.558 346.394C370.472 380.31 366.84 419.147 373.845 455.652C380.85 492.676 398.753 527.37 424.179 555.332C424.179 555.332 428.331 559.474 429.109 560.51C441.303 572.679 455.314 583.294 470.362 591.579C465.692 595.721 459.725 597.534 453.757 598.569C433.52 602.712 412.504 602.712 392.007 601.159C400.569 604.783 409.39 607.89 418.471 610.22C437.411 614.881 457.389 615.398 476.589 613.327C481.778 613.068 486.967 611.774 492.156 612.033C497.864 619.541 502.275 628.085 507.724 635.852C509.021 637.923 512.913 637.406 513.691 635.075C518.102 627.567 522.513 620.059 526.923 612.55C541.972 613.068 557.28 614.881 572.328 613.586C592.565 613.068 613.062 609.702 630.965 600.123C622.662 598.828 613.581 599.605 604.76 599.087Z" fill="#4F4F4F"/>
<path d="M651.202 349.244C670.921 386.009 679.223 428.729 673.515 470.154C668.845 505.883 653.797 539.8 631.483 567.762C631.483 568.539 631.743 570.351 631.743 571.387C642.64 566.986 652.499 559.736 661.321 551.969C674.034 540.577 684.931 526.855 694.272 512.615C699.461 505.366 702.834 497.08 705.688 488.795C713.99 465.753 717.622 441.156 715.547 416.819C712.952 384.715 699.98 353.387 678.964 329.05C655.353 301.346 621.884 282.446 585.819 276.232C612.803 295.133 635.635 320.247 651.202 349.244Z" fill="#4F4F4F"/>
<path d="M638.23 797.927C631.743 802.588 626.814 809.319 621.105 815.015C616.954 818.899 610.987 818.64 605.798 819.158C587.376 819.676 568.177 818.64 550.793 811.132C543.528 808.025 537.042 802.329 536.004 794.303C534.188 794.303 532.372 794.303 530.815 794.303C527.442 799.481 523.55 805.954 526.145 812.426C529.518 819.935 537.561 823.818 545.085 826.407C560.652 831.326 576.998 832.103 593.344 831.326C601.906 830.809 610.468 829.255 618.252 826.407C616.954 831.585 613.062 835.987 612.803 841.424C612.803 841.424 612.803 843.754 614.36 845.825C614.879 846.343 615.397 847.12 616.176 847.379C618.252 848.673 621.365 848.932 626.295 847.379C627.332 846.861 628.37 846.343 629.149 845.566C632.781 842.977 634.597 838.576 635.116 834.174C632.003 834.174 628.63 833.916 625.516 833.657C627.073 822.783 630.446 810.873 639.527 803.882C651.202 795.338 666.251 792.49 677.926 783.688C663.656 784.205 649.905 789.642 638.23 797.927Z" fill="#4F4F4F"/>
<path d="M681.299 809.84C681.299 809.581 681.299 809.581 681.039 809.322C679.223 807.251 665.991 821.49 662.878 825.633C657.688 832.623 653.278 840.391 651.202 848.935C650.424 851.783 650.164 854.89 650.943 857.479C651.202 857.996 654.316 866.54 662.359 861.362C662.618 861.103 664.434 859.809 664.434 859.809C668.326 856.702 671.44 852.3 673.515 847.64H662.099C662.878 834.177 682.596 811.911 681.299 809.84Z" fill="#4F4F4F"/>
</svg>
