<svg width="1024" height="1024" viewBox="0 0 1024 1024" fill="none" xmlns="http://www.w3.org/2000/svg">
<path d="M281.875 470.145C280.716 457.393 280.472 444.55 281.631 431.768C280.777 446.167 280.807 460.688 283.278 474.965C303.901 484.94 318.422 503.458 331.326 521.792C334.529 493.39 341.332 465.172 353.992 439.425C364.12 464.165 369.795 490.614 370.069 517.369C387.244 490.981 408.446 467.399 432.485 447.082C428.336 477.405 418.208 506.478 404.877 533.903C431.906 518.589 461.131 507.301 491.637 501.231C472.906 527.222 449.691 549.766 423.638 568.375C451.887 568.345 479.831 573.622 506.494 582.805L510.277 583.628C482.028 596.563 452.253 606.447 421.289 609.894C443.376 624.66 463.022 643.055 477.848 665.233C450.362 663.311 423.211 656.752 398.287 644.916C408.873 668.772 414.334 694.55 415.524 720.602C416.012 727.893 415.89 735.215 415.31 742.506C415.615 734.513 415.402 726.49 415.219 718.528C394.749 704.159 377.36 685.825 363.754 664.867C360.551 688.906 353.626 712.427 342.4 733.995C333.156 712.213 328.031 688.937 326.75 665.355C313.632 682.53 299.569 699.919 280.533 710.81C279.343 716.331 278.275 721.883 277.482 727.497C277.818 724.507 278.428 718.589 278.733 715.63L273.516 717.369C280.35 710.84 280.136 700.926 282.089 692.353C284.926 676.551 290.935 661.603 297.281 646.96C278.062 656.966 257.317 663.83 235.749 666.27C247.372 646.96 263.358 630.913 280.502 616.514C260.246 614.623 238.678 612.732 221.259 601.2C239.502 590.035 260.093 583.201 281.143 579.754C263.297 566.85 247.372 551.261 235.475 532.652C257.348 531.92 278.855 536.801 299.081 544.855C294.383 532.805 289.654 520.694 286.97 508.003C284.163 495.16 283.583 481.859 279.435 469.351L277.696 468.375L281.875 470.145Z" fill="white"/>
<path d="M477.97 71.3642C488.525 62.5479 497.25 51.5046 508.843 44C545.45 84.421 570.221 135.428 581.692 188.692C654.633 148.362 734.285 121.059 815.341 102.572C810.917 152.542 805.761 202.725 791.668 251.047C784.773 276.825 775.377 301.779 765.066 326.337C822.876 326.672 879.74 340.492 934.102 359.375C952.07 365.568 969.856 372.462 987 380.699C948.928 427.16 910.673 473.866 865.89 514.165C846.366 533.201 824.096 549.003 803.596 566.88C850.362 605.714 882.546 659.223 905.121 715.049C835.414 743.878 763.51 769.473 688.556 780.089C696.335 828.137 687.915 876.916 673.638 922.92C617.598 918.222 561.222 910.351 508.263 890.553C490.661 925.33 464.669 955.287 434.926 980.272C399.172 957.941 364.09 933.048 336.542 900.803C364.822 879.418 383.522 848.21 397.189 816.026C429.892 846.318 465.615 874.964 508.141 890.065C524.096 851.169 524.919 807.972 518.208 766.941C573.608 779.601 630.99 788.112 687.763 779.998C679.404 729.754 647.098 687.502 612.503 651.81C679.495 632.621 746.396 607.941 802.741 565.904C764.73 533.597 716.347 517.642 668.666 505.898C657.317 502.816 645.054 502.694 634.377 497.508C685.536 447.6 735.048 393.054 763.937 326.794C693.559 323.469 625.194 345.769 560.215 370.48C576.994 311.999 591.729 250.498 581.661 189.424C521.594 222.585 472.296 271.364 426.872 322.066C414.822 278.35 398.348 232.774 362.747 202.572C329.892 248.82 309.941 302.542 294.505 356.752C265.89 336.007 233.949 314.622 197.159 315.141C187.488 357.697 193.498 402.023 199.447 444.702C167.872 443.939 134.498 445.952 106.768 462.609C96.945 422.615 95.4196 381.096 97.0365 340.126C128.397 325.269 162.076 315.08 196.914 313.585C207.348 260.229 226.231 208.643 249.477 159.619C289.898 162.975 329.922 177.344 362.29 202.084C395.755 154.25 435.81 111.511 477.97 71.3642Z" fill="#7CCDF1"/>
<path d="M37 526.182C56.8292 502.143 78.4887 478.898 105.731 463.156C116.347 495.615 133.004 525.908 155.212 551.899C128.092 566.603 102.406 584.694 83.9189 609.801C63.6931 584.816 48.8975 555.926 37 526.182Z" fill="#7CCDF1"/>
<path d="M49.5078 693.758C56.0972 664.32 67.8726 635.674 84.5597 610.445C103.901 632.99 130.96 646.504 158.08 657.303C140.539 682.867 124.95 710.354 118.94 741.104C146.274 751.11 175.591 749.341 203.901 745.497C198.562 777.468 196.793 810.445 203.504 842.355C235.078 839.64 261.588 820.817 287 803.581C296.762 838.908 312.717 872.8 335.902 901.385C309.117 919.14 278.58 930.457 247.189 936.742C228.794 907.547 213.266 876.339 203.809 843.057C175.347 845.436 146.732 841.836 119.398 833.844C115.524 803.276 113.876 772.099 119.215 741.623C93.803 729.329 68.9099 714.533 49.5078 693.758Z" fill="#7CCDF1"/>
<path d="M426.875 322.068C472.299 271.366 521.597 222.586 581.665 189.426C591.732 250.5 576.997 312 560.219 370.481C625.197 345.771 693.562 323.471 763.94 326.796C735.051 393.056 685.539 447.601 634.38 497.51C645.057 502.696 657.32 502.818 668.669 505.899C716.35 517.644 764.733 533.599 802.744 565.905C746.399 607.943 679.499 632.623 612.507 651.811C647.101 687.504 679.407 729.755 687.766 779.999C630.993 788.114 573.611 779.603 518.211 766.942C524.923 807.974 524.099 851.171 508.144 890.066C465.618 874.966 429.895 846.32 397.192 816.027C383.525 848.212 364.825 879.42 336.545 900.805L335.905 901.384C312.72 872.8 296.765 838.907 287.003 803.581C261.591 820.817 235.081 839.639 203.507 842.354C196.796 810.445 198.565 777.467 203.904 745.496C175.594 749.34 146.277 751.11 118.943 741.104C124.953 710.353 140.542 682.867 158.083 657.302C130.963 646.503 103.904 632.989 84.5625 610.445L83.9219 609.804C102.409 584.697 128.095 566.607 155.215 551.903C133.007 525.911 116.35 495.619 105.734 463.16L106.771 462.611C134.501 445.954 167.876 443.941 199.45 444.703C193.501 402.025 187.491 357.699 197.162 315.143C233.952 314.624 265.893 336.009 294.508 356.753C309.944 302.543 329.895 248.822 362.75 202.574C398.351 232.775 414.825 278.352 426.875 322.068ZM354.514 434.941C337.705 407.15 320.408 378.901 294.874 358.096C287.979 382.104 283.281 406.814 281.634 431.769C280.475 444.551 280.719 457.394 281.878 470.146L277.699 468.376C253.721 455.96 227.577 447.083 200.456 445.649C206.771 475.698 217.052 505.228 233.586 531.25C206.71 534.209 179.681 539.67 155.673 552.605C171.78 571.549 191.426 587.107 212.872 599.584C218.394 602.055 211.988 606.326 209.486 608.096C189.962 621.335 172.573 637.839 159.212 657.272C182.854 666.088 208.357 668.376 233.434 667.309C220.621 691.439 208.785 716.668 204.971 744.002C229.437 740.707 253.049 730.975 273.519 717.37L278.736 715.631C278.431 718.59 277.821 724.508 277.485 727.498C275.685 752.666 280.414 777.711 286.271 802.116C310.218 785.46 326.783 760.933 342.372 736.802C356.558 765.417 374.312 792.812 397.833 814.624C406.924 791.47 412.11 767.095 415.313 742.507C415.893 735.216 416.015 727.894 415.527 720.603C447.04 740.554 481.115 757.455 517.815 765.265C512.11 730.304 498.962 696.9 480.475 666.759C519.675 668.102 558.876 663.495 597.131 655.289C601.433 654.191 605.734 652.879 609.822 651.049C608.815 649.706 606.863 647.052 605.887 645.71C579.224 619.2 546.399 600.011 512.598 584.057C555.398 560.231 597.131 533.355 631.939 498.547C586.851 491.988 540.725 492.69 495.697 499.066C521.323 459.468 544.996 417.949 558.236 372.403C512.903 389.334 472.055 415.905 433.129 444.215C438.864 404.282 436.637 363.19 426.6 324.173C397.558 357.455 372.848 394.734 354.514 434.941Z" fill="#00AAE6"/>
<path d="M354.512 434.941C372.846 394.733 397.556 357.454 426.599 324.172C436.635 363.19 438.862 404.282 433.127 444.215C472.053 415.905 512.901 389.334 558.234 372.402C544.994 417.949 521.321 459.468 495.696 499.065C540.723 492.689 586.849 491.988 631.937 498.546C597.129 533.354 555.397 560.23 512.596 584.056C546.397 600.011 579.222 619.199 605.885 645.709C606.861 647.052 608.813 649.706 609.82 651.048C605.732 652.878 601.431 654.19 597.129 655.288C558.874 663.495 519.674 668.101 480.473 666.759C498.96 696.899 512.108 730.304 517.813 765.264C481.113 757.454 447.038 740.554 415.525 720.603C414.335 694.55 408.874 668.772 398.289 644.916C423.212 656.753 450.363 663.312 477.849 665.233C463.023 643.055 443.377 624.66 421.29 609.895C452.254 606.448 482.029 596.564 510.278 583.629L506.495 582.805C479.832 573.623 451.888 568.345 423.639 568.376C449.692 549.767 472.907 527.222 491.638 501.231C461.132 507.302 431.907 518.589 404.878 533.903C418.209 506.478 428.337 477.406 432.486 447.082C408.447 467.399 387.245 490.981 370.07 517.369C369.796 490.615 364.121 464.166 353.993 439.425C341.333 465.172 334.53 493.391 331.327 521.792C318.423 503.458 303.902 484.941 283.279 474.965C280.808 460.688 280.778 446.167 281.632 431.768C283.279 406.814 287.977 382.104 294.872 358.095C320.406 378.9 337.703 407.149 354.512 434.941Z" fill="#006FBA"/>
<path d="M200.454 445.648C227.574 447.082 253.719 455.96 277.697 468.376L279.435 469.352C283.584 481.86 284.164 495.16 286.971 508.004C289.655 520.694 294.384 532.805 299.082 544.855C278.856 536.802 257.349 531.921 235.476 532.653C247.373 551.262 263.298 566.85 281.144 579.755C260.094 583.202 239.503 590.035 221.26 601.201C238.679 612.732 260.247 614.623 280.503 616.515C263.359 630.914 247.373 646.96 235.75 666.271C257.318 663.83 278.063 656.966 297.282 646.96C290.936 661.603 284.927 676.551 282.089 692.354C280.137 700.926 280.351 710.841 273.517 717.369C253.047 730.975 229.435 740.706 204.969 744.001C208.783 716.667 220.619 691.439 233.432 667.308C208.355 668.376 182.852 666.088 159.21 657.271C172.571 637.839 189.96 621.335 209.484 608.095C211.986 606.326 218.392 602.055 212.87 599.584C191.424 587.107 171.778 571.548 155.671 552.604C179.679 539.669 206.708 534.209 233.584 531.249C217.05 505.227 206.769 475.697 200.454 445.648Z" fill="#006FBA"/>
<path d="M280.533 710.808C299.569 699.917 313.633 682.528 326.75 665.353C328.032 688.935 333.157 712.211 342.4 733.993C353.626 712.425 360.551 688.904 363.755 664.865C377.36 685.823 394.749 704.157 415.219 718.526C415.402 726.488 415.616 734.511 415.31 742.504C412.107 767.092 406.921 791.467 397.83 814.621C374.31 792.809 356.555 765.414 342.37 736.799C326.781 760.93 310.216 785.457 286.268 802.114C280.411 777.708 275.683 752.663 277.482 727.495C278.276 721.882 279.343 716.33 280.533 710.808Z" fill="#006FBA"/>
</svg>
