<svg width="1024" height="1024" viewBox="0 0 1024 1024" fill="none" xmlns="http://www.w3.org/2000/svg">
<path d="M787.374 178.043L549.583 298.104L732.589 391.356V631.479L511.117 744.546L274.491 865.773L512.282 987L949.399 764.362V259.638L787.374 178.043ZM289.644 632.644V391.356L748.908 157.061L511.117 37L74 259.638V764.362L234.859 845.957L472.65 724.73L289.644 632.644Z" fill="#243874"/>
<path d="M511.114 689.756C608.967 689.756 688.292 610.431 688.292 512.578C688.292 414.726 608.967 335.4 511.114 335.4C413.262 335.4 333.937 414.726 333.937 512.578C333.937 610.431 413.262 689.756 511.114 689.756Z" fill="#D09A2B"/>
</svg>
