<svg width="1024" height="1024" viewBox="0 0 1024 1024" fill="none" xmlns="http://www.w3.org/2000/svg">
<path d="M449.892 125.78C583.98 6.84944 829.909 39.9883 903.017 93.7119C964.717 139.054 987 179.577 987 230.532V979.838H667.889L667.907 229.129C667.907 229.129 678.209 135.694 578.7 110.291C507.862 92.2165 448.711 127.552 448.711 127.552" fill="#364F77"/>
<path d="M574.107 899.077C440.02 1018.01 194.091 984.869 120.982 931.145C59.2832 885.803 37 845.279 37 794.325V45H356.111L356.093 795.71C356.093 795.71 345.791 889.144 445.3 914.548C516.137 932.622 575.289 897.286 575.289 897.286" fill="#364F77"/>
<path d="M510.184 660.715C594.577 660.715 662.992 592.301 662.992 507.907C662.992 423.514 594.577 355.1 510.184 355.1C425.791 355.1 357.376 423.514 357.376 507.907C357.376 592.301 425.791 660.715 510.184 660.715Z" fill="#364F77"/>
</svg>
