<svg width="1024" height="1024" viewBox="0 0 1024 1024" fill="none" xmlns="http://www.w3.org/2000/svg">
<path d="M474.186 228.83C474.186 233.316 478.746 229.098 477.934 234.638C477.122 240.178 473.773 239.046 476.826 245.99C479.877 252.931 481.233 255.122 482.905 260.662C484.581 266.202 485.393 269.007 490.365 268.711C495.338 268.418 498.096 262.335 500.312 267.039C502.528 271.742 502.528 270.09 500.041 277.279C497.554 284.47 495.584 287.251 495.88 293.063C496.177 298.871 495.313 300.815 497.258 308.843C499.204 316.867 500.312 316.574 501.69 321.843C502.236 323.924 503.6 326.235 505.197 328.582C503.475 331.018 506.466 335.212 506.466 344.271C506.466 355.25 505.926 349.787 499.895 353.083C493.86 356.383 493.86 355.842 485.073 352.518C476.282 349.194 463.679 359.682 452.156 358.034C440.634 356.383 426.379 358.034 417.589 353.083C408.802 348.135 397.843 342.619 385.781 334.372C374.197 326.455 361.598 325.646 353.335 321.214C351.665 314.285 349.541 305.149 349.541 303.303C349.541 300.25 348.973 293.331 347.596 289.738C346.217 286.143 344.813 277.822 345.38 272.85C345.946 267.874 348.162 266.498 352.297 265.658C356.433 264.823 359.488 264.823 360.029 260.119C360.569 255.418 357.813 255.394 357.813 247.934C357.813 240.474 349.333 233.201 349.333 228.83" stroke="#2F428D" stroke-width="0.75" stroke-miterlimit="22.9256"/>
<path fill-rule="evenodd" clip-rule="evenodd" d="M769.915 773.326C769.915 766.327 763.885 769.557 755.271 769.557C746.549 769.557 735.242 765.788 735.242 765.788C735.242 765.788 735.135 765.573 734.812 765.25C734.812 767.188 733.519 767.834 724.259 765.034C711.661 761.158 707.246 761.804 697.985 759.004C688.617 756.205 690.233 756.312 678.173 755.666C666.113 755.128 654.591 754.051 643.07 751.898C631.549 749.636 631.549 749.098 623.365 744.145C615.074 739.192 615.612 739.192 613.459 728.747C611.305 718.302 611.305 713.887 603.014 708.395C594.83 702.904 592.031 698.489 583.309 700.75C574.479 702.904 568.449 706.242 558.004 711.195C547.56 716.148 547.56 721.64 531.731 719.917C515.794 718.302 509.226 721.102 503.196 715.072C497.166 708.935 502.658 705.704 488.875 704.519C475.2 703.442 475.199 701.289 469.169 697.412C463.139 693.536 462.063 690.305 455.494 687.506C448.818 684.814 446.665 686.429 442.25 680.937C437.943 675.446 432.451 669.416 426.421 662.201C420.391 655.095 419.207 652.295 413.715 641.85C408.223 631.405 404.993 629.79 401.117 619.884C397.348 609.977 400.578 604.378 391.318 603.301C381.95 602.224 381.95 602.87 374.305 598.994C366.552 595.118 367.09 590.164 359.445 593.395C351.8 596.733 352.338 601.148 344.693 604.486C341.247 605.885 339.309 608.9 337.909 611.054C337.048 615.469 336.079 617.515 330.587 620.099C324.665 622.791 325.742 623.868 320.896 629.252C315.943 634.636 322.511 636.358 324.665 642.819C326.818 649.28 330.049 650.357 336.079 660.155C342.001 669.847 342.001 667.155 347.923 674.261C353.953 681.26 354.492 679.645 363.106 683.952C371.828 688.26 373.443 689.336 381.519 693.751C389.595 698.058 389.057 700.212 396.163 711.087C403.162 721.855 401.009 727.347 401.009 731.116C401.009 734.884 401.009 741.345 402.086 748.99C403.163 756.528 406.931 753.297 412.423 757.605C417.807 762.019 418.345 758.143 423.191 754.913C428.144 751.682 431.374 754.374 436.758 758.143C442.142 762.019 444.942 765.25 445.48 773.864C446.019 782.586 446.019 780.432 444.942 784.74C443.865 789.047 444.403 791.2 444.403 791.2L516.979 793.354C516.979 793.354 520.748 791.2 523.44 785.278C526.131 779.248 529.9 780.971 535.392 776.018C540.776 771.172 538.084 770.095 544.006 766.327C549.928 762.558 553.805 763.635 560.804 759.758C567.803 755.989 565.65 748.99 570.064 741.345C574.372 733.808 571.68 732.731 580.294 728.962C589.016 725.086 587.939 728.962 590.631 734.346C593.323 739.73 590.631 738.653 589.016 748.99C587.293 759.22 586.216 762.019 585.678 770.095C585.139 778.171 587.293 773.326 594.4 780.432C601.399 787.432 599.784 786.355 607.967 792.816C616.043 799.384 618.197 792.816 646.409 792.816H720.061C732.013 792.816 739.012 791.2 750.965 791.2C762.809 791.2 762.809 790.124 767.116 787.97C771.53 785.816 769.915 780.432 769.915 773.326Z" stroke="#2F428D" stroke-width="0.75" stroke-miterlimit="22.9256"/>
<path fill-rule="evenodd" clip-rule="evenodd" d="M780.25 693.536C779.712 697.95 777.45 698.489 769.267 701.288C761.083 703.98 756.668 705.703 752.254 712.272C747.839 718.84 741.809 721.1 740.732 728.747C739.655 736.499 736.856 740.268 736.856 748.021C736.856 755.666 734.702 759.543 734.702 762.881C734.702 763.742 734.81 764.604 734.81 765.25C734.81 767.188 733.518 767.834 724.257 765.034C711.659 761.158 707.244 761.804 697.984 759.004C688.616 756.205 690.231 756.312 678.171 755.666C666.111 755.128 654.589 754.051 643.069 751.897C631.547 749.636 631.547 749.098 623.363 744.145C615.072 739.191 615.611 739.191 613.457 728.747C611.303 718.302 611.303 713.887 603.012 708.395C594.829 702.904 592.029 698.489 583.307 700.75C574.477 702.904 568.447 706.242 558.002 711.195C547.558 716.148 547.558 721.64 531.729 719.917C515.793 718.302 509.224 721.101 503.194 715.071C497.164 708.935 502.656 705.703 488.873 704.519C475.198 703.442 475.198 701.288 469.168 697.412C463.138 693.536 462.061 690.305 455.492 687.506C448.816 684.814 446.663 686.429 442.248 680.937C437.941 675.446 432.449 669.416 426.419 662.201C420.389 655.094 419.205 652.295 413.713 641.85C408.222 631.405 404.991 629.79 401.115 619.883C397.346 609.977 400.576 604.378 391.316 603.301C381.948 602.224 381.948 602.87 374.303 598.994C366.55 595.117 367.088 590.164 359.443 593.394C351.798 596.733 352.336 601.147 344.691 604.485C341.245 605.885 339.307 608.9 337.907 611.054C336.185 613.853 335.431 615.146 334.246 609.977C331.985 600.608 330.908 602.763 326.493 591.24C322.186 579.719 323.802 584.671 321.648 572.504C319.387 560.444 316.695 568.197 314.972 555.491C313.357 542.892 312.28 537.399 311.742 529.648C311.203 522.002 313.895 522.541 306.25 518.126C298.605 513.711 292.575 512.85 284.822 508.65C277.177 504.343 273.839 502.728 271.147 497.236C268.347 491.745 267.27 491.745 266.732 486.253C266.193 480.654 268.347 483.992 263.394 475.162C258.548 466.44 257.364 473.009 253.057 460.303C248.642 447.704 247.565 448.781 247.565 439.413C247.565 430.045 245.842 426.815 249.18 422.4C252.518 417.985 253.057 421.861 254.672 414.109C256.287 406.463 256.825 406.463 256.287 398.172C255.749 389.989 259.087 390.527 251.872 384.497C244.765 378.359 248.857 380.62 240.566 374.052C232.382 367.484 231.521 367.161 229.69 358.008C227.752 348.855 225.814 351.978 224.199 340.995C222.476 330.012 220.645 327.212 218.492 319.028C216.231 310.737 214.615 307.937 211.277 294.801C208.047 281.556 205.463 278.972 204.171 271.111C202.878 263.358 202.663 261.743 204.278 255.606C205.786 249.36 206.647 244.407 206.647 240.531C207.832 238.054 211.923 234.931 215.477 234.716C219.138 234.501 226.891 231.486 229.798 233.747C231.09 234.716 230.659 238.269 232.167 240.315C239.166 250.006 237.228 260.666 245.304 267.881C253.486 274.988 260.702 274.449 267.27 271.111C273.839 267.773 282.13 264.005 287.621 261.743C293.113 259.59 296.882 251.837 302.912 246.345C308.942 240.854 316.156 232.024 319.925 238.7C323.802 245.268 324.878 245.807 322.725 253.56C320.463 261.205 316.694 267.235 322.186 272.188C327.678 277.141 335.862 277.68 337.477 284.356C339.2 290.924 336.938 290.386 340.815 300.292C344.691 310.091 344.153 315.69 352.336 320.643C360.519 325.597 373.764 326.135 385.824 334.319C397.884 342.61 408.76 348.102 417.59 353.055C426.418 358.008 440.633 356.393 452.154 358.008C463.676 359.731 476.274 349.178 485.104 352.516C493.826 355.854 493.826 356.393 499.856 353.055C505.886 349.824 506.424 355.208 506.424 344.225C506.424 333.242 502.117 329.473 506.963 327.212C511.916 325.058 512.993 325.058 520.207 319.567C527.314 314.075 534.421 306.861 540.451 301.369C546.481 295.877 544.866 294.801 556.926 294.801C568.986 294.801 564.14 299.215 578.892 295.339C593.644 291.463 596.982 289.847 602.474 292.001C607.965 294.262 617.872 300.292 620.564 305.245C623.363 310.199 618.949 316.767 626.594 317.305C634.239 317.951 634.885 317.952 645.868 317.952C656.744 317.952 671.065 315.69 675.48 323.443C679.787 331.088 685.817 336.042 690.77 338.841C695.723 341.533 700.138 346.486 708.322 349.286C716.613 351.978 719.842 351.44 719.842 359.192C719.842 366.838 719.304 370.176 719.304 381.697C719.304 393.219 720.489 397.634 717.15 407.54C713.812 417.447 714.458 414.109 707.244 426.815C700.137 439.413 692.492 442.213 697.445 451.042C702.291 459.764 706.167 468.594 706.167 480.116C706.167 491.745 709.505 509.834 709.505 518.664C709.505 527.386 707.782 530.186 716.074 535.139C724.257 540.093 727.595 541.277 732.01 547.307C736.317 553.337 741.27 552.26 740.732 559.905C740.194 567.551 745.147 569.812 738.04 574.227C730.826 578.641 729.212 573.688 725.98 579.718C722.642 585.748 717.15 584.133 718.766 591.778C720.488 599.531 719.304 606.638 723.719 615.468C728.134 624.297 728.134 631.404 734.164 637.434C740.194 643.464 742.347 644.648 748.377 649.063C754.407 653.37 759.36 645.187 761.622 650.678C763.775 656.17 762.699 658.862 763.237 667.692C763.775 676.521 763.775 682.551 769.805 686.428C775.835 690.198 780.788 689.121 780.25 693.536Z" stroke="#2F428D" stroke-width="0.75" stroke-miterlimit="22.9256"/>
<path fill-rule="evenodd" clip-rule="evenodd" d="M524.183 431.007C534.545 431.869 544.319 434.75 553.159 439.304L562.367 430.638C569.852 434.579 577.657 441.151 583.49 446.987L576.869 458.14C584.107 466.656 589.524 476.726 592.6 487.829L605.304 488.791C607.545 496.84 607.889 506.959 607.593 515.331L594.841 518.014C593.535 528.7 590.088 538.717 584.918 547.63L593.141 557.407C588.956 564.644 581.964 571.981 575.785 577.619L564.904 570.354C557.444 576.094 548.974 580.498 539.716 583.256L539.176 596.034C530.853 598.051 520.661 598.94 512.462 598.57L509.385 586.038C498.947 584.93 489.099 581.755 480.31 576.954L470.857 585.522C463.568 581.188 455.762 574.49 450.149 568.484L456.971 557.407C450.421 549.282 445.473 539.825 442.592 529.487L429.913 528.624C427.895 520.425 427.254 510.16 427.624 502.011L440.328 499.206C441.386 490.663 443.748 482.537 447.32 475.052L438.358 466.067C442.223 458.558 448.501 450.457 454.115 444.499L465.463 450.754C473.612 443.415 483.338 437.729 494.072 434.332L494.515 421.702C502.615 419.265 512.782 418.402 521.054 418.426L524.183 431.007ZM509.95 539.236V550.784C500.619 548.616 491.264 542.634 481.909 533.623C475.78 528.429 474.229 531.899 477.257 543.965C481.393 559.989 493.926 574.515 517.584 574.467C541.243 574.515 553.776 559.989 557.911 543.965C560.939 531.899 559.389 528.429 553.257 533.623C543.682 542.83 534.152 548.912 524.601 550.93V539.484C539.323 534.829 549.072 526.532 551.754 517.202C555.127 505.408 550.277 500.582 544.271 508.634C538.831 516.021 531.148 520.822 522.235 522.003V507.035C530.434 503.784 536.368 499.499 540.085 494.206C543.163 488.52 539.298 484.826 534.152 487.635C530.336 490.44 526.127 492.383 521.375 493.345V480.443C527.062 478.77 531.42 476.676 533.364 471.705C535.187 466.484 532.625 464.959 527.308 467.422C524.281 468.652 520.981 470.99 517.584 471.286C514.186 470.99 510.887 468.652 507.859 467.422C502.542 464.959 499.981 466.484 501.803 471.705C503.748 476.652 508.18 478.746 513.842 480.419V493.321C509.114 492.36 504.807 490.415 501.013 487.635C495.87 484.826 492.002 488.52 495.082 494.206C498.849 499.575 504.978 503.931 513.399 507.205V522.052C504.312 520.944 496.41 516.119 490.894 508.634C484.888 500.582 480.037 505.408 483.411 517.202C486.045 526.384 495.598 534.533 509.95 539.236Z" fill="#2F428D"/>
<path fill-rule="evenodd" clip-rule="evenodd" d="M517.604 387.131C584.67 387.131 639.076 441.539 639.076 508.653C639.076 515.102 638.537 521.357 637.551 527.537C635.729 564.219 644.32 569.759 678.889 589.16L661.31 623.798C642.031 612.965 625.708 599.523 615.934 580.418L615.959 579.704C612.858 572.345 610.37 564.195 609.262 554.471L601.115 543.021C603.823 536.523 605.84 529.652 606.948 522.465L614.457 520.715C615.565 508.997 614.408 493.904 611.527 481.841L603.872 481.448C600.475 470.639 595.105 460.718 588.189 452.075L591.98 445.329C583.757 436.664 572.014 427.259 561.255 421.155L555.764 426.569C547.346 422.632 538.161 419.946 528.559 418.765L526.566 411.305C514.625 410.814 499.633 412.291 487.716 415.59L487.566 423.222C477.842 426.642 468.932 431.643 461.051 437.995L441.703 413.744C462.479 397.051 488.824 387.131 517.604 387.131ZM588.903 606.69L569.75 582.192C562.509 587.386 554.583 591.62 545.967 594.477L545.671 602.208C533.729 605.184 518.566 606.588 506.87 605.703L504.974 598.17C494.831 596.742 485.18 593.565 476.364 589.059L470.605 594.279C460.093 587.853 448.497 578.056 440.888 569.07L444.925 562.422C438.748 554.102 433.947 544.621 430.919 534.453L423.187 533.913C420.577 521.896 419.644 506.781 420.776 495.064L428.431 493.388C429.588 486.594 431.584 479.994 434.166 473.792L426.044 462.367C424.936 452.667 422.449 444.492 419.372 437.158L419.299 437.256L419.348 437.13C409.598 417.904 393.201 404.388 373.85 393.508L356.271 428.145C390.835 447.52 399.428 452.987 397.609 489.597C396.623 495.802 396.079 502.203 396.079 508.653C396.079 575.718 450.49 630.125 517.604 630.125C544.315 630.125 568.886 621.362 588.903 606.69Z" fill="#2F428D"/>
<path fill-rule="evenodd" clip-rule="evenodd" d="M595.905 291.208L620.388 46.0622C637.645 50.1012 654.537 55.0727 671.006 60.9337L630.983 317.652C629.756 317.576 628.387 317.478 626.617 317.348C618.934 316.78 623.342 310.209 620.586 305.258C617.826 300.31 607.98 294.254 602.488 292.063C600.251 291.17 598.343 290.938 595.905 291.208ZM675.463 323.405C679.53 330.56 684.972 335.27 689.693 338.107L750.034 97.5433C734.846 88.7287 719.163 80.7045 702.961 73.5891L655.869 317.666C664.239 317.478 672.35 317.931 675.463 323.405ZM501.145 274.181C500.854 275.002 500.507 275.96 500.046 277.29C497.559 284.481 495.589 287.262 495.885 293.074C496.181 298.882 495.318 300.827 497.263 308.854C499.209 316.878 500.317 316.585 501.695 321.854C501.938 322.781 502.389 323.767 502.906 324.769L501.145 274.181ZM540.497 301.394C546.528 295.903 544.855 294.795 556.942 294.795C564.337 294.795 565.385 296.44 568.454 296.844L584.196 39.0447C566.963 36.4109 549.434 34.7624 531.659 34.0248L530.05 311.102C533.731 307.727 537.276 304.325 540.497 301.394ZM769.804 686.422C775.836 690.261 780.811 689.153 780.243 693.561C779.678 697.968 777.486 698.508 769.264 701.268C761.041 704.024 756.633 705.676 752.25 712.272C747.869 718.872 741.812 721.062 740.727 728.767C739.647 736.474 736.887 740.314 736.887 748.021C736.887 748.397 736.831 748.659 736.821 749.015L985.007 464.77C983.38 446.972 980.77 429.492 977.226 412.331L766.153 682.766C767.033 684.143 768.169 685.381 769.804 686.422ZM719.877 359.153C719.877 366.857 719.334 370.157 719.334 381.703C719.334 393.25 720.442 397.658 717.141 407.553C713.842 417.452 714.409 414.153 707.27 426.807C700.131 439.462 692.473 442.194 697.396 451.009C702.152 459.517 705.816 468.059 706.069 479.026L822.244 148.974C808.949 137.476 794.966 126.741 780.44 116.773L712.386 350.503C717.646 352.073 719.877 352.871 719.877 359.153ZM748.41 649.025C754.441 653.407 759.389 645.185 761.581 650.672C763.038 654.321 763.041 656.873 763.044 660.681L968.067 375.425C963.094 358.414 957.185 341.794 950.44 325.644L745.375 646.854C746.309 647.518 747.243 648.176 748.41 649.025ZM474.192 228.841C474.192 233.327 478.752 229.109 477.94 234.649C477.128 240.189 473.779 239.057 476.832 246.001C479.883 252.942 481.239 255.133 482.911 260.672C484.587 266.212 485.399 269.017 490.37 268.721C495.344 268.428 498.101 262.345 500.317 267.049C500.555 267.554 500.755 267.955 500.941 268.332L492.782 34C474.985 34.7139 457.455 36.3872 440.222 38.9974L457.359 228.842L474.192 228.841ZM716.059 535.158C723.937 539.898 727.31 541.243 731.432 546.643L885.075 214.635C874.168 200.823 862.475 187.625 850.165 175.12L709.715 528.446C710.355 530.807 712.004 532.718 716.059 535.158ZM737.995 574.206C737.759 574.352 737.577 574.411 737.354 574.536L720.905 606.913C721.448 609.642 722.199 612.441 723.717 615.467C727.498 623.006 728.249 629.311 732.131 634.774L932.886 288.296C924.687 272.662 915.627 257.519 905.806 242.972L741.461 566.452C742.184 569.467 742.555 571.393 737.995 574.206ZM337.884 611.14C336.176 613.834 335.424 615.128 334.209 609.951C332.018 600.621 330.91 602.812 326.526 591.266C322.144 579.719 323.794 584.645 321.603 572.555C319.412 560.468 316.655 568.172 315.004 555.52C313.356 542.866 312.297 537.374 311.732 529.667C311.164 521.963 313.92 522.528 306.241 518.12C298.558 513.716 292.527 512.876 284.847 508.618C282.621 507.385 280.844 506.382 279.263 505.431L335.775 616.458C336.881 615.045 337.402 613.395 337.884 611.14ZM247.524 439.462C247.524 430.107 245.872 426.783 249.172 422.4C252.472 418.016 253.012 421.859 254.663 414.153C256.311 406.445 256.855 406.445 256.311 398.198C255.771 389.951 259.071 390.519 251.928 384.459C244.788 378.404 248.826 380.644 240.604 374.048C232.381 367.448 231.569 367.153 229.649 357.996C227.729 348.836 225.809 352.014 224.158 341.032C222.51 330.053 220.639 327.244 218.447 318.997C216.256 310.749 214.633 307.994 211.333 294.795C208.032 281.599 205.52 278.966 204.193 271.161C203.168 265.146 202.84 262.791 203.454 259.204L168.664 180.364C156.455 193.117 145.03 206.559 134.295 220.618L247.64 443.305C247.569 442.217 247.524 441.016 247.524 439.462ZM767.17 787.978C763.745 789.692 762.938 790.716 756.895 791.075L642.422 889.903L632.401 889.928L736.083 791.994C731.146 792.416 726.251 792.852 720.049 792.852H713.349L621.276 889.952L613.74 889.977L698.544 792.852H680.232L604.408 890.001L598.206 890.026L668.047 792.852H652.167L590.129 890.026L584.22 890.05L640.441 793.021C634.176 793.255 629.372 793.766 625.69 794.325L577.057 890.051L572.503 890.075L616.173 795.708C613.155 795.884 610.953 795.272 607.93 792.853C606.958 792.075 606.14 791.417 605.415 790.83L565.953 890.103H561.374L598.515 784.586C597.519 783.564 596.274 782.28 594.39 780.397C591.766 777.773 589.821 776.807 588.438 776.203L555.268 890.127H551.23L590.408 733.933C587.965 728.755 588.736 725.254 580.306 728.941C578.39 729.779 577.093 730.478 576.091 731.151L545.419 890.127L541.728 890.152L562.2 758.839C561.757 759.171 561.355 759.52 560.808 759.815C555.762 762.532 552.38 762.779 548.678 764.076L536.087 890.152L532.224 890.176L539.518 770.721C538.759 772.092 538.099 773.588 535.349 776.063C532.133 778.957 529.503 779.574 527.319 780.834L526.684 890.176L522.596 890.2L519.161 791.575C517.88 792.855 516.934 793.398 516.934 793.398L508.294 793.14L517.056 890.201L512.774 890.226L499.84 792.888L488.604 792.552L507.112 890.226H503.37L481.161 792.33L469.436 791.98L497.509 890.251H492.781L459.987 791.698L447.426 791.322L486.529 890.274H481.924L422.461 755.516C418.322 758.605 417.501 761.724 412.4 757.647C409.933 755.673 407.827 755.266 406.136 754.697L475.155 890.297L469.716 890.322L347.954 674.241C347.956 674.243 347.952 674.239 347.954 674.241C341.995 667.202 341.989 669.903 336.031 660.153C330.073 650.404 326.822 649.321 324.656 642.819C322.488 636.321 315.99 634.697 320.865 629.279C321.274 628.824 321.589 628.44 321.922 628.044L111.08 253.879C101.602 268.722 92.9369 284.112 85.1312 300.015L462.208 890.322L455.385 890.347L67.2577 341.401C61.0274 357.871 55.7834 374.787 51.4009 392.094L446.745 890.37H441.378L44.7798 422.4C41.5785 439.706 39.3624 457.336 38.108 475.236L431.406 890.395L422.815 890.42L37 517.065C37.3198 535.061 38.6486 552.761 40.913 570.217L410.728 890.443L400.658 890.471L47.658 609.362C51.4526 626.941 56.2755 644.15 61.9642 660.94L385.418 890.495L373.132 890.545L75.6028 696.369C82.7419 712.961 90.8178 729.038 99.7303 744.598L352.993 890.592L337.139 890.617L119.058 775.495C142.57 810.135 170.562 841.499 202.173 868.729L202.886 868.802L172.654 892.265V990.326L526.071 990.351H861.785V889.041L827.219 864.052L826.898 864.174C858.658 836.011 886.675 803.587 909.991 767.911L699.663 889.78L685.311 889.805L929.194 735.806C937.786 720.099 945.493 703.876 952.288 687.159L667.364 889.853L656.332 889.878L965.064 651.682C970.381 634.842 974.813 617.56 978.238 599.983L770.094 779.679C770.255 783.542 770.064 786.53 767.17 787.978ZM986.952 504.309L738.182 766.664C742.119 767.782 749.288 769.563 755.253 769.563C757.017 769.563 758.632 769.422 760.144 769.267L984.536 557.315C986.163 541.312 987 525.089 987 508.618L986.952 504.309ZM396.152 711.066C389.111 700.233 389.651 698.066 381.529 693.735C377.542 691.607 375.122 690.265 372.664 688.936L401.786 746.151C401.071 739.818 401.027 734.407 401.027 731.107C401.027 727.316 403.195 721.898 396.152 711.066ZM436.773 758.187C435.551 757.331 434.464 756.561 433.42 755.872L444.874 784.857C444.886 784.808 444.887 784.776 444.898 784.727C445.982 780.396 445.982 782.563 445.441 773.894C444.898 765.229 442.19 761.978 436.773 758.187ZM319.955 238.687C323.794 245.287 324.878 245.826 322.686 253.534C321.238 258.624 319.127 262.984 319.405 266.791L320.268 269.809C320.713 270.646 321.279 271.464 322.145 272.244C327.635 277.192 335.859 277.735 337.509 284.331C339.158 290.931 336.967 290.415 340.807 300.286C344.649 310.157 344.106 315.697 352.328 320.648C352.638 320.834 353.001 320.978 353.325 321.153C351.658 314.234 349.548 305.155 349.548 303.314C349.548 300.261 348.98 293.342 347.603 289.75C346.224 286.154 344.82 277.833 345.387 272.861C345.954 267.886 348.169 266.51 352.306 265.671C356.442 264.835 359.496 264.835 360.037 260.132C360.1 259.575 360.112 259.092 360.093 258.647L359.48 255.944C358.852 254.335 357.989 252.602 357.862 248.81L356.35 242.143C353.926 236.859 349.342 232.062 349.342 228.842H353.333L318.38 74.7704C302.231 81.9827 286.621 90.1081 271.481 99.0207L311.382 238.694C314.74 236.138 317.85 235.074 319.955 238.687ZM424.898 228.841L400.707 46.7771C383.473 50.9131 366.61 55.9611 350.164 61.9189L381.792 228.841H424.898ZM229.795 233.789C231.053 234.775 230.657 238.27 232.161 240.363C239.175 250.036 237.182 260.722 245.332 267.862C253.481 275.001 260.718 274.437 267.293 271.136C272.628 268.458 278.979 265.453 284.144 263.228L236.935 121.351C222.558 131.567 208.821 142.598 195.699 154.316L226.762 232.921C227.988 232.955 229.052 233.191 229.795 233.789ZM184.472 979.004H851.566V900.712H184.472V979.004Z" fill="#2F428D"/>
</svg>
